<svg width="40" height="40" viewBox="0 0 40 40" fill="none" xmlns="http://www.w3.org/2000/svg">
<rect width="40" height="40" fill="white"/>
<path d="M4.76953 28.481H35.2311" stroke="#161971" stroke-width="1.87488" stroke-linecap="round"/>
<path d="M2 34.1729H38" stroke="#161971" stroke-width="1.87488" stroke-linecap="round"/>
<path d="M9.61621 12.1157V29.1926" stroke="#161971" stroke-width="1.87488"/>
<path d="M16.5391 12.1157V29.1926" stroke="#161971" stroke-width="1.87488"/>
<path d="M23.4619 12.1157V29.1926" stroke="#161971" stroke-width="1.87488"/>
<path d="M30.3848 12.1157V29.1926" stroke="#161971" stroke-width="1.87488"/>
<path d="M5.54785 9.09874V11.3558C5.54785 11.8736 5.96756 12.2933 6.48529 12.2933H32.995C33.5128 12.2933 33.9325 11.8736 33.9325 11.3558V9.11505C33.9325 8.67707 33.6292 8.29746 33.202 8.20075L19.2817 5.0492C19.1388 5.01685 18.9903 5.01844 18.8481 5.05385L6.25875 8.18908C5.84103 8.29311 5.54785 8.66826 5.54785 9.09874Z" stroke="#FF6600" stroke-width="1.87488" stroke-linecap="round"/>
</svg>
