<svg width="40" height="40" viewBox="0 0 40 40" fill="none" xmlns="http://www.w3.org/2000/svg">
<path d="M5.95202 37.5C4.9874 37.5 4.1709 37.1719 3.50252 36.5156C2.83417 35.8594 2.5 35.0577 2.5 34.1106V27.7645C2.5 26.8174 2.83417 26.0157 3.50252 25.3594C4.1709 24.7032 4.9874 24.3751 5.95202 24.3751H24.9383V18.2813C24.9383 17.8823 25.0754 17.5481 25.3496 17.2789C25.6238 17.0097 25.9641 16.875 26.3705 16.875C26.7769 16.875 27.1172 17.0097 27.3914 17.2789C27.6656 17.5481 27.8027 17.8823 27.8027 18.2813V24.3751H31.5118C32.4764 24.3751 33.2929 24.7032 33.9613 25.3594C34.6297 26.0157 34.9639 26.8174 34.9639 27.7645V34.1106C34.9639 35.0577 34.6297 35.8594 33.9613 36.5156C33.2929 37.1719 32.4764 37.5 31.5118 37.5H5.95202ZM31.5118 34.6875C31.6832 34.6875 31.824 34.6334 31.9342 34.5253C32.0444 34.4171 32.0995 34.2788 32.0995 34.1106V27.7645C32.0995 27.5962 32.0444 27.458 31.9342 27.3498C31.824 27.2416 31.6832 27.1875 31.5118 27.1875H5.95202C5.78063 27.1875 5.63984 27.2416 5.52966 27.3498C5.41947 27.458 5.36438 27.5962 5.36438 27.7645V34.1106C5.36438 34.2788 5.41947 34.4171 5.52966 34.5253C5.63984 34.6334 5.78063 34.6875 5.95202 34.6875H31.5118ZM26.3705 13.125C25.8735 13.125 25.4206 13.1863 25.0117 13.3089C24.6028 13.4315 24.2123 13.6154 23.8402 13.8606C23.4656 14.0433 23.0831 14.128 22.6926 14.1148C22.3021 14.1016 21.9587 13.9495 21.6625 13.6587C21.3663 13.3678 21.2261 13.0259 21.242 12.6328C21.2579 12.2398 21.4336 11.9424 21.769 11.7404C22.4619 11.2621 23.1921 10.9045 23.9596 10.6677C24.7271 10.4309 25.5307 10.3125 26.3705 10.3125C27.2103 10.3125 28.0139 10.4309 28.7814 10.6677C29.549 10.9045 30.2792 11.2621 30.9721 11.7404C31.3075 11.9424 31.4831 12.2398 31.499 12.6328C31.5149 13.0259 31.3748 13.3678 31.0785 13.6587C30.7823 13.9495 30.434 14.1016 30.0337 14.1148C29.6335 14.128 29.2461 14.0433 28.8715 13.8606C28.5189 13.6154 28.1333 13.4315 27.7147 13.3089C27.296 13.1863 26.8479 13.125 26.3705 13.125ZM26.3705 6.56246C24.9211 6.56246 23.5764 6.79023 22.3363 7.24576C21.0963 7.70129 19.9866 8.31489 19.0073 9.08655C18.6719 9.32692 18.3089 9.4405 17.9185 9.42728C17.528 9.41406 17.1944 9.27164 16.9178 9.00001C16.6215 8.70914 16.4795 8.37681 16.4918 8.00303C16.504 7.62925 16.6681 7.31615 16.9839 7.06374C18.2765 6.02768 19.7155 5.21638 21.3008 4.62985C22.886 4.04328 24.5759 3.75 26.3705 3.75C28.1651 3.75 29.855 4.04328 31.4403 4.62985C33.0255 5.21638 34.4645 6.02768 35.7572 7.06374C36.073 7.31615 36.237 7.62925 36.2493 8.00303C36.2615 8.37681 36.1195 8.70914 35.8233 9.00001C35.5466 9.27164 35.2131 9.41406 34.8226 9.42728C34.4321 9.4405 34.0691 9.32692 33.7337 9.08655C32.7544 8.31489 31.6448 7.70129 30.4047 7.24576C29.1646 6.79023 27.8199 6.56246 26.3705 6.56246Z" fill="#161971"/>
<path d="M12.4455 29.7824C12.7276 30.0645 12.8686 30.4149 12.8686 30.8337C12.8686 31.2525 12.7276 31.6029 12.4455 31.885C12.1635 32.167 11.8131 32.308 11.3943 32.308C10.9754 32.308 10.625 32.167 10.343 31.885C10.0609 31.6029 9.91992 31.2525 9.91992 30.8337C9.91992 30.4149 10.0609 30.0645 10.343 29.7824C10.625 29.5004 10.9754 29.3594 11.3943 29.3594C11.8131 29.3594 12.1635 29.5004 12.4455 29.7824Z" fill="#FF6600"/>
<path d="M18.2789 29.7824C18.5609 30.0645 18.7019 30.4149 18.7019 30.8337C18.7019 31.2525 18.5609 31.6029 18.2789 31.885C17.9968 32.167 17.6464 32.308 17.2276 32.308C16.8088 32.308 16.4584 32.167 16.1763 31.885C15.8943 31.6029 15.7533 31.2525 15.7533 30.8337C15.7533 30.4149 15.8943 30.0645 16.1763 29.7824C16.4584 29.5004 16.8088 29.3594 17.2276 29.3594C17.6464 29.3594 17.9968 29.5004 18.2789 29.7824Z" fill="#FF6600"/>
<path d="M24.1122 31.885C23.8302 32.167 23.4797 32.308 23.0609 32.308C22.6421 32.308 22.2917 32.167 22.0097 31.885C21.7276 31.6029 21.5866 31.2525 21.5866 30.8337C21.5866 30.4149 21.7276 30.0645 22.0097 29.7824C22.2917 29.5004 22.6421 29.3594 23.0609 29.3594C23.4797 29.3594 23.8302 29.5004 24.1122 29.7824C24.3942 30.0645 24.5353 30.4149 24.5353 30.8337C24.5353 31.2525 24.3942 31.6029 24.1122 31.885Z" fill="#FF6600"/>
</svg>
