<svg width="40" height="40" viewBox="0 0 40 40" fill="none" xmlns="http://www.w3.org/2000/svg">
<rect width="40" height="40" fill="white"/>
<path d="M3 6V26C3 27.6569 4.34315 29 6 29H34C35.6569 29 37 27.6569 37 26V6C37 4.34315 35.6569 3 34 3H6C4.34315 3 3 4.34315 3 6Z" stroke="#161971" stroke-width="2"/>
<path d="M24.5192 16.8638L15.5039 22.1227C14.8372 22.5116 14 22.0308 14 21.259V10.741C14 9.96925 14.8372 9.48837 15.5039 9.87726L24.5192 15.1362C25.1807 15.5221 25.1807 16.4779 24.5192 16.8638Z" fill="#FF6600"/>
<rect x="5" y="32.9521" width="30" height="3" rx="1.5" fill="#FF6600"/>
</svg>
