<svg width="40" height="40" viewBox="0 0 40 40" fill="none" xmlns="http://www.w3.org/2000/svg">
<path d="M12.8849 22.2912C12.8849 23.21 13.34 24.2463 14.2502 25.4002C15.1605 26.554 16.9757 28.366 19.6958 30.8361L20.0003 31.1085L20.3369 30.788C22.948 28.4269 24.7306 26.6564 25.6846 25.4766C26.6387 24.2968 27.1157 23.235 27.1157 22.2912C27.1157 21.5272 26.8642 20.8794 26.3612 20.3479C25.8583 19.8165 25.238 19.5507 24.5003 19.5507C24.0462 19.5507 23.6164 19.6501 23.211 19.8488C22.8055 20.0475 22.465 20.321 22.1894 20.6693L20.3336 22.8841H19.6413L17.7695 20.6693C17.4939 20.321 17.1558 20.0475 16.7551 19.8488C16.3545 19.6501 15.9362 19.5507 15.5003 19.5507C14.7291 19.5507 14.1004 19.8165 13.6142 20.3479C13.128 20.8794 12.8849 21.5272 12.8849 22.2912ZM10.3849 22.2912C10.3849 20.9258 10.8662 19.711 11.8288 18.6469C12.7914 17.5828 14.0153 17.0508 15.5003 17.0508C16.34 17.0508 17.1344 17.2452 17.8833 17.6341C18.6322 18.023 19.2685 18.5401 19.792 19.1854L20.0003 19.4258L20.2086 19.1694C20.7428 18.5348 21.3774 18.023 22.1125 17.6341C22.8475 17.2452 23.6435 17.0508 24.5003 17.0508C25.9746 17.0508 27.1958 17.5878 28.1637 18.6617C29.1317 19.7357 29.6157 20.9455 29.6157 22.2912C29.6157 23.6779 29.0943 25.0679 28.0515 26.461C27.0088 27.8542 24.9255 29.9792 21.8016 32.836L20.0003 34.4866L18.2311 32.8841C15.0302 29.9567 12.9223 27.8088 11.9074 26.4402C10.8924 25.0716 10.3849 23.6886 10.3849 22.2912ZM20.1253 35.8328V33.3328H33.3336V22.179C33.3336 22.0401 33.2829 21.9199 33.1814 21.8184C33.0799 21.7169 32.9597 21.6662 32.8207 21.6662H28.4811V19.1662H32.8207C33.6493 19.1662 34.3585 19.4612 34.9485 20.0512C35.5386 20.6412 35.8336 21.3505 35.8336 22.179V34.3253C35.8336 34.7555 35.6892 35.1143 35.4005 35.4017C35.1117 35.6891 34.754 35.8328 34.3272 35.8328H20.1253ZM6.66695 33.3328H20.1253V35.8328H5.67341C5.2466 35.8328 4.88884 35.6884 4.60012 35.3997C4.31137 35.1109 4.16699 34.7532 4.16699 34.3264V22.1844C4.16699 21.3496 4.45573 20.6379 5.0332 20.0492C5.61065 19.4605 6.32619 19.1662 7.17983 19.1662H11.5195V21.6662H7.17983C7.03024 21.6662 6.90737 21.7169 6.8112 21.8184C6.71503 21.9199 6.66695 22.0401 6.66695 22.179V33.3328Z" fill="#161971"/>
<path d="M31.25 14.1666C31.7222 14.1666 32.118 14.0069 32.4375 13.6874C32.7569 13.368 32.9166 12.9721 32.9166 12.4999C32.9166 12.0277 32.7569 11.6319 32.4375 11.3124C32.118 10.993 31.7222 10.8332 31.25 10.8332C30.7777 10.8332 30.3819 10.993 30.0625 11.3124C29.743 11.6319 29.5833 12.0277 29.5833 12.4999C29.5833 12.9721 29.743 13.368 30.0625 13.6874C30.3819 14.0069 30.7777 14.1666 31.25 14.1666ZM31.2488 16.6665C30.068 16.6665 29.0785 16.2676 28.2805 15.4697C27.4824 14.6718 27.0833 13.6832 27.0833 12.5037C27.0833 11.3474 27.4823 10.3632 28.2802 9.55125C29.0781 8.7393 30.0667 8.33333 31.2462 8.33333C32.4025 8.33333 33.3867 8.73853 34.1986 9.54892C35.0106 10.3593 35.4166 11.3433 35.4166 12.501C35.4166 13.6819 35.0114 14.6714 34.201 15.4695C33.3906 16.2675 32.4065 16.6665 31.2488 16.6665ZM19.5833 12.4999C20.2777 12.4999 20.868 12.2638 21.3541 11.7916C21.8402 11.3194 22.0833 10.7221 22.0833 9.99992C22.0833 9.30547 21.8402 8.71519 21.3541 8.22908C20.868 7.74297 20.2777 7.49992 19.5833 7.49992C18.8611 7.49992 18.2638 7.74297 17.7916 8.22908C17.3194 8.71519 17.0833 9.30547 17.0833 9.99992C17.0833 10.7221 17.3194 11.3194 17.7916 11.7916C18.2638 12.2638 18.8611 12.4999 19.5833 12.4999ZM19.5843 14.9999C18.1798 14.9999 16.9952 14.5182 16.0305 13.555C15.0657 12.5917 14.5833 11.4084 14.5833 10.0051C14.5833 8.62562 15.065 7.44655 16.0282 6.46792C16.9915 5.4893 18.1748 5 19.5781 5C20.9576 5 22.1367 5.488 23.1153 6.464C24.0939 7.43997 24.5833 8.61829 24.5833 9.99896C24.5833 11.4034 24.0952 12.588 23.1192 13.5528C22.1432 14.5175 20.9649 14.9999 19.5843 14.9999ZM7.91663 14.1666C8.38885 14.1666 8.78468 14.0069 9.10412 13.6874C9.42357 13.368 9.58329 12.9721 9.58329 12.4999C9.58329 12.0277 9.42357 11.6319 9.10412 11.3124C8.78468 10.993 8.38885 10.8332 7.91663 10.8332C7.4444 10.8332 7.04857 10.993 6.72913 11.3124C6.40968 11.6319 6.24996 12.0277 6.24996 12.4999C6.24996 12.9721 6.40968 13.368 6.72913 13.6874C7.04857 14.0069 7.4444 14.1666 7.91663 14.1666ZM7.9155 16.6665C6.73464 16.6665 5.74518 16.2676 4.94712 15.4697C4.14904 14.6718 3.75 13.6832 3.75 12.5037C3.75 11.3474 4.14894 10.3632 4.94683 9.55125C5.74472 8.7393 6.7334 8.33333 7.91288 8.33333C9.06921 8.33333 10.0533 8.73853 10.8653 9.54892C11.6773 10.3593 12.0832 11.3433 12.0832 12.501C12.0832 13.6819 11.678 14.6714 10.8676 15.4695C10.0572 16.2675 9.07319 16.6665 7.9155 16.6665Z" fill="#FF6600"/>
</svg>
