<svg width="40" height="40" viewBox="0 0 40 40" fill="none" xmlns="http://www.w3.org/2000/svg">
<rect width="40" height="40" fill="white"/>
<path fill-rule="evenodd" clip-rule="evenodd" d="M36 29.2186V10.0446C36 9.1938 35.7053 8.47369 35.1158 7.88421C34.5263 7.29474 33.8062 7 32.9554 7H7.04456C6.1938 7 5.47369 7.29474 4.88421 7.88421C4.29474 8.47369 4 9.1938 4 10.0446V29.2186C4 30.0693 4.29474 30.7894 4.88421 31.3789C5.47369 31.9684 6.1938 32.2631 7.04456 32.2631H32.9554C33.8062 32.2631 34.5263 31.9684 35.1158 31.3789C35.7053 30.7894 36 30.0693 36 29.2186ZM33.4737 10.0446V18.9514V29.2186C33.4737 29.3482 33.4197 29.4669 33.3118 29.5749C33.2038 29.6829 33.085 29.7369 32.9554 29.7369H7.04456C6.91498 29.7369 6.7962 29.6829 6.68822 29.5749C6.58026 29.4669 6.52628 29.3482 6.52628 29.2186V18.9514V16.1866H16.6314C17.2656 16.1866 17.7798 15.6724 17.7798 15.0382C17.7798 14.404 17.2656 13.8899 16.6314 13.8899H6.52628V10.0446C6.52628 9.91498 6.58026 9.7962 6.68822 9.68822C6.7962 9.58026 6.91498 9.52628 7.04456 9.52628H32.9554C33.085 9.52628 33.2038 9.58026 33.3118 9.68822C33.4197 9.7962 33.4737 9.91498 33.4737 10.0446Z" fill="#161971"/>
<path d="M26.4436 27.3076L21.2051 21.7374C21.1105 21.6428 21.04 21.5345 20.9936 21.4125C20.9472 21.2906 20.9241 21.1611 20.9241 21.0241V20.3955C20.9241 20.1074 21.0253 19.8621 21.2277 19.6596C21.4302 19.4572 21.6755 19.356 21.9636 19.356H24.2511C24.8722 19.356 25.4149 19.1781 25.8791 18.8224C26.3433 18.4666 26.6359 18.0123 26.7569 17.4593H21.1996C20.8875 17.4593 20.6222 17.3501 20.4038 17.1317C20.1854 16.9133 20.0762 16.648 20.0762 16.3359C20.0762 16.0238 20.1854 15.7585 20.4038 15.5401C20.6222 15.3216 20.8875 15.2124 21.1996 15.2124H26.5744C26.3662 14.7897 26.0413 14.4553 25.5998 14.2093C25.1584 13.9632 24.6809 13.8402 24.1672 13.8402H21.1996C20.8875 13.8402 20.6222 13.7309 20.4038 13.5125C20.1854 13.2941 20.0762 13.0288 20.0762 12.7167C20.0762 12.4046 20.1854 12.1393 20.4038 11.9209C20.6222 11.7025 20.8875 11.5933 21.1996 11.5933H29.6784C29.9905 11.5933 30.2558 11.7025 30.4742 11.9209C30.6927 12.1393 30.8019 12.4046 30.8019 12.7167C30.8019 13.0288 30.6927 13.2941 30.4742 13.5125C30.2558 13.7309 29.9905 13.8402 29.6784 13.8402H28.1781C28.328 14.0085 28.4767 14.218 28.6241 14.4687C28.7716 14.7194 28.8837 14.9673 28.9605 15.2124H29.6784C29.9905 15.2124 30.2558 15.3216 30.4742 15.5401C30.6927 15.7585 30.8019 16.0238 30.8019 16.3359C30.8019 16.648 30.6927 16.9133 30.4742 17.1317C30.2558 17.3501 29.9905 17.4593 29.6784 17.4593H29.061C28.9239 18.6285 28.4253 19.5994 27.5652 20.372C26.705 21.1447 25.6842 21.5469 24.5027 21.5789H24.1636L28.1043 25.7492C28.4466 26.1135 28.5175 26.5247 28.3172 26.9827C28.1169 27.4408 27.7692 27.6698 27.2739 27.6698C27.113 27.6698 26.9615 27.6386 26.8196 27.5763C26.6777 27.5139 26.5523 27.4244 26.4436 27.3076Z" fill="#FF6600"/>
</svg>
