<svg width="599" height="324" viewBox="0 0 599 324" fill="none" xmlns="http://www.w3.org/2000/svg">
<rect x="0.5" y="0.5" width="598" height="323" rx="20.5" fill="white" stroke="#DEDEDE"/>
<path opacity="0.36" d="M89.7445 284.727V292H88.6436V285.828H88.601L86.8609 286.964V285.913L88.6756 284.727H89.7445ZM94.2437 292.121C93.6827 292.118 93.2033 291.97 92.8055 291.677C92.4078 291.383 92.1036 290.956 91.8929 290.395C91.6822 289.834 91.5768 289.158 91.5768 288.367C91.5768 287.579 91.6822 286.905 91.8929 286.347C92.106 285.788 92.4114 285.362 92.8091 285.068C93.2092 284.775 93.6874 284.628 94.2437 284.628C94.8001 284.628 95.2771 284.776 95.6748 285.072C96.0726 285.365 96.3768 285.791 96.5875 286.35C96.8006 286.906 96.9071 287.579 96.9071 288.367C96.9071 289.16 96.8017 289.837 96.591 290.398C96.3803 290.957 96.0761 291.384 95.6784 291.68C95.2807 291.974 94.8025 292.121 94.2437 292.121ZM94.2437 291.173C94.7362 291.173 95.1209 290.932 95.3979 290.452C95.6772 289.971 95.8169 289.276 95.8169 288.367C95.8169 287.763 95.753 287.253 95.6251 286.837C95.4997 286.418 95.3186 286.1 95.0818 285.885C94.8474 285.667 94.5681 285.558 94.2437 285.558C93.7537 285.558 93.369 285.8 93.0896 286.283C92.8103 286.766 92.6694 287.46 92.667 288.367C92.667 288.973 92.7298 289.486 92.8552 289.905C92.9831 290.321 93.1642 290.638 93.3986 290.853C93.6329 291.066 93.9147 291.173 94.2437 291.173ZM101.527 292H100.362L102.98 284.727H104.247L106.864 292H105.7L103.644 286.048H103.587L101.527 292ZM101.722 289.152H105.501V290.075H101.722V289.152ZM107.915 284.727H109.246L111.562 290.381H111.647L113.962 284.727H115.294V292H114.25V286.737H114.182L112.038 291.989H111.171L109.026 286.734H108.959V292H107.915V284.727Z" fill="black"/>
<path opacity="0.36" d="M201.118 284.727V292H200.017V285.828H199.974L198.234 286.964V285.913L200.049 284.727H201.118ZM203.085 292V291.205L205.546 288.655C205.809 288.378 206.025 288.135 206.196 287.927C206.369 287.716 206.498 287.516 206.583 287.327C206.668 287.137 206.711 286.936 206.711 286.723C206.711 286.482 206.654 286.273 206.54 286.098C206.427 285.92 206.272 285.784 206.075 285.69C205.879 285.593 205.657 285.544 205.411 285.544C205.151 285.544 204.923 285.597 204.729 285.704C204.535 285.81 204.386 285.961 204.282 286.155C204.178 286.349 204.126 286.576 204.126 286.837H203.078C203.078 286.394 203.18 286.007 203.383 285.675C203.587 285.344 203.866 285.087 204.221 284.905C204.577 284.72 204.98 284.628 205.432 284.628C205.889 284.628 206.292 284.719 206.64 284.901C206.99 285.081 207.264 285.327 207.46 285.64C207.657 285.95 207.755 286.3 207.755 286.691C207.755 286.961 207.704 287.225 207.602 287.483C207.503 287.741 207.329 288.029 207.08 288.346C206.832 288.661 206.486 289.043 206.043 289.493L204.598 291.006V291.059H207.872V292H203.085ZM212.578 292H211.413L214.031 284.727H215.298L217.916 292H216.751L214.695 286.048H214.638L212.578 292ZM212.773 289.152H216.552V290.075H212.773V289.152ZM218.966 284.727H220.297L222.613 290.381H222.698L225.013 284.727H226.345V292H225.301V286.737H225.234L223.089 291.989H222.222L220.077 286.734H220.01V292H218.966V284.727Z" fill="black"/>
<path opacity="0.36" d="M312.264 292.099C311.776 292.099 311.34 292.015 310.957 291.847C310.576 291.679 310.274 291.446 310.051 291.148C309.831 290.847 309.713 290.499 309.696 290.104H310.811C310.825 290.319 310.898 290.506 311.028 290.665C311.16 290.821 311.333 290.942 311.546 291.027C311.759 291.112 311.996 291.155 312.256 291.155C312.543 291.155 312.796 291.105 313.016 291.006C313.239 290.906 313.413 290.768 313.538 290.59C313.664 290.41 313.727 290.203 313.727 289.969C313.727 289.725 313.664 289.511 313.538 289.326C313.415 289.139 313.234 288.992 312.995 288.886C312.758 288.779 312.472 288.726 312.136 288.726H311.521V287.831H312.136C312.406 287.831 312.642 287.782 312.846 287.685C313.052 287.588 313.213 287.453 313.329 287.281C313.445 287.105 313.503 286.901 313.503 286.666C313.503 286.441 313.452 286.246 313.35 286.08C313.251 285.912 313.109 285.781 312.924 285.686C312.742 285.591 312.526 285.544 312.278 285.544C312.041 285.544 311.82 285.588 311.614 285.675C311.41 285.761 311.244 285.884 311.116 286.045C310.989 286.203 310.92 286.394 310.911 286.616H309.849C309.861 286.223 309.977 285.878 310.197 285.58C310.419 285.281 310.713 285.048 311.077 284.88C311.442 284.712 311.847 284.628 312.292 284.628C312.758 284.628 313.161 284.719 313.499 284.901C313.84 285.081 314.103 285.321 314.288 285.622C314.475 285.923 314.567 286.252 314.565 286.609C314.567 287.017 314.453 287.362 314.224 287.646C313.996 287.93 313.693 288.121 313.315 288.218V288.275C313.798 288.348 314.172 288.54 314.437 288.85C314.704 289.16 314.837 289.545 314.835 290.004C314.837 290.404 314.726 290.763 314.501 291.08C314.278 291.397 313.974 291.647 313.588 291.83C313.202 292.009 312.761 292.099 312.264 292.099ZM318.923 292V284.727H321.515C322.081 284.727 322.55 284.83 322.921 285.036C323.293 285.242 323.571 285.524 323.756 285.881C323.941 286.237 324.033 286.637 324.033 287.082C324.033 287.529 323.939 287.932 323.752 288.289C323.568 288.644 323.288 288.926 322.914 289.134C322.543 289.34 322.075 289.443 321.512 289.443H319.729V288.513H321.412C321.77 288.513 322.06 288.451 322.282 288.328C322.505 288.203 322.668 288.032 322.772 287.817C322.876 287.601 322.928 287.356 322.928 287.082C322.928 286.807 322.876 286.563 322.772 286.35C322.668 286.137 322.504 285.97 322.279 285.849C322.056 285.729 321.763 285.668 321.398 285.668H320.02V292H318.923ZM325.319 284.727H326.651L328.966 290.381H329.052L331.367 284.727H332.699V292H331.654V286.737H331.587L329.442 291.989H328.576L326.431 286.734H326.363V292H325.319V284.727Z" fill="black"/>
<path opacity="0.36" d="M418.627 292.099C418.302 292.095 417.983 292.036 417.668 291.922C417.356 291.808 417.071 291.619 416.816 291.354C416.56 291.089 416.355 290.732 416.201 290.285C416.05 289.837 415.974 289.279 415.974 288.609C415.974 287.974 416.037 287.411 416.162 286.918C416.29 286.426 416.474 286.01 416.713 285.672C416.952 285.331 417.241 285.072 417.579 284.894C417.918 284.717 418.298 284.628 418.719 284.628C419.152 284.628 419.537 284.713 419.873 284.884C420.209 285.054 420.482 285.29 420.69 285.59C420.901 285.891 421.034 286.233 421.091 286.616H420.008C419.935 286.313 419.789 286.066 419.571 285.874C419.354 285.683 419.07 285.587 418.719 285.587C418.186 285.587 417.771 285.819 417.473 286.283C417.177 286.747 417.028 287.392 417.025 288.218H417.079C417.204 288.012 417.358 287.837 417.54 287.692C417.725 287.546 417.931 287.433 418.158 287.355C418.388 287.275 418.629 287.234 418.883 287.234C419.304 287.234 419.685 287.337 420.026 287.543C420.369 287.747 420.643 288.029 420.846 288.388C421.05 288.748 421.152 289.16 421.152 289.624C421.152 290.088 421.046 290.509 420.836 290.885C420.627 291.261 420.334 291.56 419.955 291.78C419.576 291.998 419.133 292.104 418.627 292.099ZM418.623 291.176C418.903 291.176 419.152 291.107 419.373 290.97C419.593 290.833 419.767 290.648 419.895 290.416C420.022 290.184 420.086 289.925 420.086 289.638C420.086 289.359 420.024 289.105 419.898 288.875C419.775 288.645 419.605 288.463 419.387 288.328C419.171 288.193 418.925 288.126 418.648 288.126C418.437 288.126 418.242 288.166 418.062 288.246C417.885 288.327 417.728 288.438 417.593 288.58C417.458 288.722 417.352 288.886 417.274 289.07C417.198 289.253 417.16 289.446 417.16 289.649C417.16 289.921 417.223 290.174 417.348 290.406C417.476 290.638 417.65 290.825 417.87 290.967C418.093 291.106 418.344 291.176 418.623 291.176ZM425.191 292V284.727H427.783C428.349 284.727 428.818 284.83 429.19 285.036C429.561 285.242 429.84 285.524 430.024 285.881C430.209 286.237 430.301 286.637 430.301 287.082C430.301 287.529 430.208 287.932 430.021 288.289C429.836 288.644 429.557 288.926 429.183 289.134C428.811 289.34 428.343 289.443 427.78 289.443H425.997V288.513H427.68C428.038 288.513 428.328 288.451 428.55 288.328C428.773 288.203 428.936 288.032 429.041 287.817C429.145 287.601 429.197 287.356 429.197 287.082C429.197 286.807 429.145 286.563 429.041 286.35C428.936 286.137 428.772 285.97 428.547 285.849C428.324 285.729 428.031 285.668 427.666 285.668H426.288V292H425.191ZM431.588 284.727H432.919L435.235 290.381H435.32L437.635 284.727H438.967V292H437.923V286.737H437.855L435.71 291.989H434.844L432.699 286.734H432.632V292H431.588V284.727Z" fill="black"/>
<path opacity="0.36" d="M524.863 284.628C525.187 284.63 525.506 284.689 525.821 284.805C526.136 284.921 526.42 285.111 526.674 285.374C526.929 285.636 527.133 285.991 527.284 286.439C527.438 286.884 527.516 287.438 527.519 288.101C527.519 288.738 527.455 289.305 527.327 289.802C527.199 290.297 527.016 290.714 526.777 291.055C526.54 291.396 526.252 291.656 525.914 291.833C525.575 292.011 525.194 292.099 524.77 292.099C524.337 292.099 523.952 292.014 523.616 291.844C523.28 291.673 523.006 291.438 522.796 291.137C522.585 290.834 522.454 290.486 522.402 290.093H523.485C523.556 290.406 523.7 290.659 523.918 290.853C524.138 291.045 524.422 291.141 524.77 291.141C525.303 291.141 525.718 290.909 526.017 290.445C526.315 289.978 526.465 289.327 526.468 288.491H526.411C526.288 288.695 526.134 288.87 525.949 289.017C525.767 289.164 525.562 289.277 525.335 289.358C525.108 289.438 524.865 289.479 524.607 289.479C524.188 289.479 523.807 289.376 523.463 289.17C523.12 288.964 522.847 288.681 522.643 288.321C522.439 287.961 522.338 287.55 522.338 287.089C522.338 286.629 522.442 286.213 522.65 285.839C522.861 285.465 523.154 285.169 523.531 284.951C523.91 284.731 524.354 284.623 524.863 284.628ZM524.866 285.551C524.589 285.551 524.339 285.62 524.117 285.757C523.897 285.892 523.723 286.076 523.595 286.308C523.467 286.537 523.403 286.793 523.403 287.075C523.403 287.356 523.465 287.612 523.588 287.842C523.713 288.069 523.884 288.25 524.099 288.385C524.317 288.518 524.565 288.584 524.845 288.584C525.053 288.584 525.247 288.544 525.427 288.463C525.607 288.383 525.765 288.271 525.899 288.129C526.034 287.985 526.14 287.821 526.216 287.639C526.291 287.457 526.329 287.265 526.329 287.064C526.329 286.796 526.265 286.548 526.137 286.318C526.012 286.089 525.839 285.904 525.619 285.764C525.399 285.622 525.148 285.551 524.866 285.551ZM531.548 292V284.727H534.14C534.706 284.727 535.174 284.83 535.546 285.036C535.918 285.242 536.196 285.524 536.381 285.881C536.565 286.237 536.658 286.637 536.658 287.082C536.658 287.529 536.564 287.932 536.377 288.289C536.192 288.644 535.913 288.926 535.539 289.134C535.167 289.34 534.7 289.443 534.136 289.443H532.354V288.513H534.037C534.394 288.513 534.684 288.451 534.907 288.328C535.129 288.203 535.293 288.032 535.397 287.817C535.501 287.601 535.553 287.356 535.553 287.082C535.553 286.807 535.501 286.563 535.397 286.35C535.293 286.137 535.128 285.97 534.903 285.849C534.681 285.729 534.387 285.668 534.023 285.668H532.645V292H531.548ZM537.944 284.727H539.276L541.591 290.381H541.676L543.992 284.727H545.323V292H544.279V286.737H544.212L542.067 291.989H541.2L539.056 286.734H538.988V292H537.944V284.727Z" fill="black"/>
<path d="M26.3718 40V26.9091H34.886V28.897H28.7432V32.451H34.4449V34.4389H28.7432V38.0121H34.9371V40H26.3718ZM40.0284 40.1982C39.4062 40.1982 38.8458 40.0874 38.3473 39.8658C37.8529 39.6399 37.4609 39.3075 37.1711 38.8686C36.8856 38.4297 36.7429 37.8885 36.7429 37.245C36.7429 36.6911 36.8451 36.233 37.0497 35.8707C37.2542 35.5085 37.5333 35.2188 37.887 35.0014C38.2407 34.7841 38.6392 34.62 39.0823 34.5092C39.5298 34.3942 39.9921 34.3111 40.4694 34.2599C41.0447 34.2003 41.5113 34.147 41.8693 34.1001C42.2272 34.049 42.4872 33.9723 42.6491 33.87C42.8153 33.7635 42.8984 33.5994 42.8984 33.3778V33.3395C42.8984 32.858 42.7556 32.4851 42.4701 32.2209C42.1846 31.9567 41.7734 31.8246 41.2365 31.8246C40.6697 31.8246 40.2201 31.9482 39.8877 32.1953C39.5596 32.4425 39.338 32.7344 39.223 33.071L37.0625 32.7642C37.2329 32.1676 37.5142 31.669 37.9062 31.2685C38.2983 30.8636 38.7777 30.5611 39.3444 30.3608C39.9112 30.1562 40.5376 30.054 41.2237 30.054C41.6967 30.054 42.1676 30.1094 42.6363 30.2202C43.1051 30.331 43.5333 30.5142 43.9211 30.7699C44.3089 31.0213 44.62 31.3643 44.8544 31.799C45.093 32.2337 45.2123 32.777 45.2123 33.429V40H42.9879V38.6513H42.9112C42.7706 38.924 42.5724 39.1797 42.3167 39.4183C42.0653 39.6527 41.7478 39.8423 41.3643 39.9872C40.985 40.1278 40.5397 40.1982 40.0284 40.1982ZM40.6292 38.4979C41.0937 38.4979 41.4964 38.4062 41.8373 38.223C42.1782 38.0355 42.4403 37.7884 42.6235 37.4815C42.811 37.1747 42.9048 36.8402 42.9048 36.478V35.321C42.8323 35.3807 42.7088 35.4361 42.534 35.4872C42.3636 35.5384 42.1718 35.5831 41.9588 35.6214C41.7457 35.6598 41.5348 35.6939 41.326 35.7237C41.1171 35.7536 40.936 35.7791 40.7826 35.8004C40.4375 35.8473 40.1285 35.924 39.8558 36.0305C39.5831 36.1371 39.3679 36.2862 39.2102 36.478C39.0525 36.6655 38.9737 36.9084 38.9737 37.2067C38.9737 37.6328 39.1292 37.9545 39.4403 38.1719C39.7514 38.3892 40.1477 38.4979 40.6292 38.4979ZM47.539 40V30.1818H49.7826V31.8182H49.8849C50.0639 31.2514 50.3707 30.8146 50.8054 30.5078C51.2443 30.1967 51.745 30.0412 52.3075 30.0412C52.4353 30.0412 52.5781 30.0476 52.7358 30.0604C52.8977 30.0689 53.0319 30.0838 53.1385 30.1051V32.2337C53.0404 32.1996 52.8849 32.1697 52.6718 32.1442C52.463 32.1143 52.2606 32.0994 52.0646 32.0994C51.6427 32.0994 51.2635 32.1911 50.9268 32.3743C50.5944 32.5533 50.3323 32.8026 50.1406 33.1222C49.9488 33.4418 49.8529 33.8104 49.8529 34.228V40H47.539ZM56.9897 34.2472V40H54.6757V30.1818H56.8874V31.8501H57.0024C57.2283 31.3004 57.5884 30.8636 58.0827 30.5398C58.5813 30.2159 59.197 30.054 59.93 30.054C60.6076 30.054 61.1978 30.1989 61.7006 30.4886C62.2077 30.7784 62.5997 31.1982 62.8767 31.7479C63.158 32.2976 63.2965 32.9645 63.2922 33.7486V40H60.9783V34.1065C60.9783 33.4503 60.8078 32.9368 60.4669 32.5661C60.1303 32.1953 59.6637 32.0099 59.0671 32.0099C58.6622 32.0099 58.3022 32.0994 57.9868 32.2784C57.6757 32.4531 57.4307 32.7067 57.2517 33.0391C57.077 33.3714 56.9897 33.7741 56.9897 34.2472ZM65.6445 40V30.1818H67.9584V40H65.6445ZM66.8078 28.7884C66.4414 28.7884 66.126 28.6669 65.8618 28.424C65.5976 28.1768 65.4655 27.8807 65.4655 27.5355C65.4655 27.1861 65.5976 26.8899 65.8618 26.647C66.126 26.3999 66.4414 26.2763 66.8078 26.2763C67.1786 26.2763 67.4939 26.3999 67.7539 26.647C68.0181 26.8899 68.1502 27.1861 68.1502 27.5355C68.1502 27.8807 68.0181 28.1768 67.7539 28.424C67.4939 28.6669 67.1786 28.7884 66.8078 28.7884ZM72.6518 34.2472V40H70.3378V30.1818H72.5495V31.8501H72.6646C72.8904 31.3004 73.2505 30.8636 73.7448 30.5398C74.2434 30.2159 74.8592 30.054 75.5921 30.054C76.2697 30.054 76.8599 30.1989 77.3627 30.4886C77.8698 30.7784 78.2619 31.1982 78.5388 31.7479C78.8201 32.2976 78.9586 32.9645 78.9543 33.7486V40H76.6404V34.1065C76.6404 33.4503 76.4699 32.9368 76.129 32.5661C75.7924 32.1953 75.3258 32.0099 74.7292 32.0099C74.3244 32.0099 73.9643 32.0994 73.6489 32.2784C73.3378 32.4531 73.0928 32.7067 72.9138 33.0391C72.7391 33.3714 72.6518 33.7741 72.6518 34.2472ZM85.5765 43.8864C84.7455 43.8864 84.0317 43.7734 83.4351 43.5476C82.8386 43.326 82.3592 43.0277 81.9969 42.6527C81.6347 42.2777 81.3833 41.8622 81.2427 41.4062L83.3265 40.9013C83.4202 41.093 83.5566 41.2827 83.7356 41.4702C83.9146 41.6619 84.1553 41.8196 84.4579 41.9432C84.7647 42.071 85.1503 42.1349 85.6148 42.1349C86.2711 42.1349 86.8144 41.9751 87.2448 41.6555C87.6752 41.3402 87.8904 40.8203 87.8904 40.0959V38.2358H87.7753C87.656 38.4744 87.4813 38.7195 87.2512 38.9709C87.0253 39.2223 86.7249 39.4332 86.3499 39.6037C85.9792 39.7741 85.5126 39.8594 84.9501 39.8594C84.1958 39.8594 83.5119 39.6825 82.8982 39.3288C82.2888 38.9709 81.803 38.4382 81.4408 37.7308C81.0829 37.0192 80.9039 36.1286 80.9039 35.0589C80.9039 33.9808 81.0829 33.071 81.4408 32.3295C81.803 31.5838 82.291 31.0192 82.9046 30.6357C83.5182 30.2479 84.2022 30.054 84.9565 30.054C85.5317 30.054 86.0047 30.152 86.3755 30.348C86.7505 30.5398 87.0488 30.772 87.2704 31.0447C87.492 31.3132 87.6603 31.5668 87.7753 31.8054H87.9032V30.1818H90.1851V40.1598C90.1851 40.9993 89.9849 41.6939 89.5843 42.2436C89.1837 42.7933 88.6361 43.2045 87.9415 43.4773C87.2469 43.75 86.4586 43.8864 85.5765 43.8864ZM85.5957 38.044C86.0857 38.044 86.5033 37.9247 86.8485 37.6861C87.1937 37.4474 87.4557 37.1044 87.6347 36.657C87.8137 36.2095 87.9032 35.6726 87.9032 35.0462C87.9032 34.4283 87.8137 33.8871 87.6347 33.4226C87.46 32.9581 87.2001 32.598 86.8549 32.3423C86.514 32.0824 86.0942 31.9524 85.5957 31.9524C85.08 31.9524 84.6496 32.0866 84.3045 32.3551C83.9593 32.6236 83.6994 32.9922 83.5246 33.4609C83.3499 33.9254 83.2626 34.4538 83.2626 35.0462C83.2626 35.647 83.3499 36.1733 83.5246 36.625C83.7036 37.0724 83.9657 37.4219 84.3109 37.6733C84.6603 37.9205 85.0886 38.044 85.5957 38.044ZM100.317 32.777L98.2072 33.0071C98.1475 32.794 98.0431 32.5938 97.894 32.4062C97.7491 32.2188 97.553 32.0675 97.3059 31.9524C97.0587 31.8374 96.7562 31.7798 96.3982 31.7798C95.9167 31.7798 95.5119 31.8842 95.1837 32.093C94.8599 32.3018 94.7001 32.5724 94.7043 32.9048C94.7001 33.1903 94.8045 33.4226 95.0175 33.6016C95.2349 33.7805 95.5928 33.9276 96.0914 34.0426L97.7661 34.4006C98.6951 34.6009 99.3854 34.9183 99.8371 35.353C100.293 35.7876 100.523 36.3565 100.527 37.0597C100.523 37.6776 100.342 38.223 99.9842 38.696C99.6305 39.1648 99.1383 39.5312 98.5076 39.7955C97.8769 40.0597 97.1525 40.1918 96.3343 40.1918C95.1326 40.1918 94.1653 39.9403 93.4323 39.4375C92.6994 38.9304 92.2626 38.2251 92.1219 37.3217L94.3783 37.1044C94.4806 37.5476 94.6979 37.8821 95.0303 38.108C95.3627 38.3338 95.7952 38.4467 96.3279 38.4467C96.8776 38.4467 97.3187 38.3338 97.6511 38.108C97.9877 37.8821 98.156 37.603 98.156 37.2706C98.156 36.9893 98.0474 36.7571 97.83 36.5739C97.617 36.3906 97.2846 36.25 96.8329 36.152L95.1582 35.8004C94.2164 35.6044 93.5197 35.2741 93.068 34.8097C92.6163 34.3409 92.3925 33.7486 92.3968 33.0327C92.3925 32.4276 92.5566 31.9034 92.889 31.4602C93.2256 31.0128 93.6922 30.6676 94.2888 30.4247C94.8897 30.1776 95.5822 30.054 96.3663 30.054C97.5168 30.054 98.4224 30.299 99.0829 30.7891C99.7476 31.2791 100.159 31.9418 100.317 32.777Z" fill="#303030"/>
<path opacity="0.56" d="M29.577 52.5455V62H28.1459V53.9766H28.0905L25.8284 55.4538V54.0874L28.1875 52.5455H29.577ZM32.1345 62V60.9659L35.3338 57.6513C35.6754 57.2912 35.957 56.9757 36.1786 56.7049C36.4032 56.431 36.571 56.1709 36.6818 55.9247C36.7926 55.6785 36.848 55.4169 36.848 55.1399C36.848 54.826 36.7741 54.5552 36.6264 54.3274C36.4786 54.0966 36.2771 53.9196 36.0216 53.7965C35.7662 53.6703 35.4784 53.6072 35.1583 53.6072C34.8198 53.6072 34.5243 53.6765 34.272 53.815C34.0196 53.9535 33.8257 54.1489 33.6903 54.4013C33.5549 54.6536 33.4872 54.9491 33.4872 55.2876H32.1253C32.1253 54.7121 32.2576 54.2089 32.5223 53.7781C32.787 53.3472 33.1502 53.0133 33.6118 52.7763C34.0735 52.5362 34.5982 52.4162 35.186 52.4162C35.78 52.4162 36.3032 52.5347 36.7556 52.7717C37.2111 53.0056 37.5666 53.3256 37.822 53.7319C38.0775 54.1351 38.2052 54.5906 38.2052 55.0984C38.2052 55.4492 38.139 55.7924 38.0067 56.1278C37.8774 56.4633 37.6512 56.8372 37.3281 57.2496C37.0049 57.659 36.5556 58.156 35.9801 58.7408L34.1012 60.7074V60.7766H38.3576V62H32.1345ZM43.3987 62.157C42.6693 62.1539 42.0461 61.9615 41.5291 61.5799C41.012 61.1983 40.6166 60.6428 40.3426 59.9134C40.0687 59.1839 39.9318 58.3053 39.9318 57.2773C39.9318 56.2525 40.0687 55.3769 40.3426 54.6506C40.6196 53.9242 41.0166 53.3703 41.5337 52.9886C42.0538 52.607 42.6755 52.4162 43.3987 52.4162C44.122 52.4162 44.7421 52.6085 45.2592 52.9933C45.7762 53.3749 46.1717 53.9289 46.4456 54.6552C46.7226 55.3784 46.8611 56.2525 46.8611 57.2773C46.8611 58.3084 46.7242 59.1886 46.4502 59.918C46.1763 60.6443 45.7809 61.1998 45.2638 61.5845C44.7468 61.9661 44.1251 62.157 43.3987 62.157ZM43.3987 60.9244C44.0389 60.9244 44.539 60.612 44.8991 59.9872C45.2623 59.3625 45.4438 58.4592 45.4438 57.2773C45.4438 56.4925 45.3608 55.8293 45.1946 55.2876C45.0314 54.7429 44.796 54.3305 44.4882 54.0504C44.1835 53.7673 43.8204 53.6257 43.3987 53.6257C42.7617 53.6257 42.2616 53.9396 41.8984 54.5675C41.5352 55.1953 41.3521 56.0986 41.349 57.2773C41.349 58.0652 41.4306 58.7315 41.5937 59.2763C41.7599 59.8179 41.9953 60.2288 42.3 60.5089C42.6047 60.7859 42.971 60.9244 43.3987 60.9244ZM51.6022 53.7734V52.5455H58.9193V53.7734H55.9694V62H54.5475V53.7734H51.6022ZM59.6891 62V54.9091H61.0233V56.0355H61.0972C61.2264 55.6539 61.4542 55.3538 61.7804 55.1353C62.1097 54.9137 62.4821 54.8029 62.8976 54.8029C62.9838 54.8029 63.0853 54.806 63.2023 54.8121C63.3223 54.8183 63.4162 54.826 63.4839 54.8352V56.1555C63.4285 56.1402 63.33 56.1232 63.1884 56.1048C63.0469 56.0832 62.9053 56.0724 62.7637 56.0724C62.4375 56.0724 62.1466 56.1417 61.8912 56.2802C61.6388 56.4156 61.4388 56.6049 61.2911 56.848C61.1433 57.0881 61.0695 57.362 61.0695 57.6697V62H59.6891ZM66.6785 62.157C66.2292 62.157 65.8229 62.0739 65.4597 61.9077C65.0966 61.7384 64.8088 61.4937 64.5965 61.1737C64.3872 60.8536 64.2825 60.4612 64.2825 59.9964C64.2825 59.5964 64.3595 59.267 64.5134 59.0085C64.6672 58.75 64.875 58.5453 65.1366 58.3945C65.3982 58.2437 65.6906 58.1299 66.0137 58.0529C66.3369 57.976 66.6662 57.9175 67.0016 57.8775C67.4264 57.8282 67.7711 57.7882 68.0357 57.7575C68.3004 57.7236 68.4928 57.6697 68.6128 57.5959C68.7328 57.522 68.7928 57.402 68.7928 57.2358V57.2035C68.7928 56.8003 68.679 56.4879 68.4512 56.2663C68.2265 56.0447 67.8911 55.9339 67.4448 55.9339C66.9801 55.9339 66.6139 56.037 66.3461 56.2433C66.0814 56.4464 65.8983 56.6726 65.7967 56.9219L64.4995 56.6264C64.6534 56.1955 64.8781 55.8478 65.1735 55.5831C65.472 55.3153 65.8152 55.1214 66.203 55.0014C66.5908 54.8783 66.9986 54.8168 67.4264 54.8168C67.7095 54.8168 68.0096 54.8506 68.3266 54.9183C68.6466 54.983 68.9452 55.103 69.2222 55.2784C69.5022 55.4538 69.7315 55.7047 69.91 56.0309C70.0885 56.354 70.1778 56.7741 70.1778 57.2912V62H68.8298V61.0305H68.7744C68.6851 61.209 68.5512 61.3845 68.3727 61.5568C68.1942 61.7292 67.9649 61.8723 67.6849 61.9862C67.4048 62.1 67.0694 62.157 66.6785 62.157ZM66.9786 61.049C67.3602 61.049 67.6864 60.9736 67.9573 60.8228C68.2312 60.672 68.4389 60.475 68.5805 60.2319C68.7251 59.9857 68.7975 59.7225 68.7975 59.4425V58.5284C68.7482 58.5777 68.6528 58.6238 68.5112 58.6669C68.3727 58.7069 68.2142 58.7423 68.0357 58.7731C67.8572 58.8008 67.6833 58.8269 67.5141 58.8516C67.3448 58.8731 67.2032 58.8916 67.0894 58.907C66.8216 58.9408 66.5769 58.9978 66.3553 59.0778C66.1368 59.1578 65.9614 59.2732 65.8291 59.424C65.6998 59.5717 65.6352 59.7687 65.6352 60.0149C65.6352 60.3565 65.7613 60.6151 66.0137 60.7905C66.2661 60.9628 66.5877 61.049 66.9786 61.049ZM73.3966 57.7898V62H72.0163V54.9091H73.3412V56.0632H73.4289C73.592 55.6877 73.8475 55.3861 74.1953 55.1584C74.5461 54.9306 74.9878 54.8168 75.5202 54.8168C76.0034 54.8168 76.4266 54.9183 76.7897 55.1214C77.1529 55.3215 77.4345 55.62 77.6345 56.017C77.8346 56.4141 77.9346 56.9049 77.9346 57.4897V62H76.5543V57.6559C76.5543 57.1419 76.4204 56.7403 76.1527 56.451C75.8849 56.1586 75.5171 56.0124 75.0493 56.0124C74.7292 56.0124 74.4446 56.0817 74.1953 56.2202C73.9491 56.3587 73.7536 56.5618 73.609 56.8295C73.4674 57.0942 73.3966 57.4143 73.3966 57.7898ZM85.0994 56.6403L83.8483 56.8619C83.796 56.7018 83.7129 56.5495 83.599 56.4048C83.4882 56.2602 83.3374 56.1417 83.1466 56.0494C82.9558 55.957 82.7173 55.9109 82.4311 55.9109C82.0402 55.9109 81.714 55.9986 81.4524 56.174C81.1908 56.3464 81.06 56.5695 81.06 56.8434C81.06 57.0804 81.1477 57.2712 81.3231 57.4158C81.4985 57.5605 81.7817 57.679 82.1725 57.7713L83.299 58.0298C83.9514 58.1806 84.4377 58.413 84.7578 58.7269C85.0778 59.0408 85.2379 59.4486 85.2379 59.9503C85.2379 60.375 85.1148 60.7536 84.8686 61.0859C84.6254 61.4152 84.2853 61.6738 83.8483 61.8615C83.4144 62.0492 82.9112 62.1431 82.3387 62.1431C81.5447 62.1431 80.8969 61.9738 80.3952 61.6353C79.8935 61.2937 79.5858 60.8089 79.4719 60.1811L80.8061 59.978C80.8892 60.3258 81.06 60.5889 81.3185 60.7674C81.577 60.9428 81.914 61.0305 82.3295 61.0305C82.7819 61.0305 83.1435 60.9367 83.4144 60.7489C83.6852 60.5581 83.8206 60.3258 83.8206 60.0518C83.8206 59.8303 83.7375 59.6441 83.5713 59.4933C83.4082 59.3424 83.1574 59.2286 82.8188 59.1516L81.6186 58.8885C80.9569 58.7377 80.4675 58.4976 80.1505 58.1683C79.8366 57.839 79.6796 57.422 79.6796 56.9173C79.6796 56.4987 79.7966 56.1325 80.0305 55.8185C80.2644 55.5046 80.5876 55.2599 81 55.0845C81.4124 54.906 81.8848 54.8168 82.4172 54.8168C83.1835 54.8168 83.7868 54.983 84.2269 55.3153C84.667 55.6446 84.9578 56.0863 85.0994 56.6403ZM88.8191 62.157C88.3698 62.157 87.9635 62.0739 87.6004 61.9077C87.2372 61.7384 86.9494 61.4937 86.7371 61.1737C86.5278 60.8536 86.4232 60.4612 86.4232 59.9964C86.4232 59.5964 86.5001 59.267 86.654 59.0085C86.8079 58.75 87.0156 58.5453 87.2772 58.3945C87.5388 58.2437 87.8312 58.1299 88.1543 58.0529C88.4775 57.976 88.8068 57.9175 89.1423 57.8775C89.567 57.8282 89.9117 57.7882 90.1764 57.7575C90.441 57.7236 90.6334 57.6697 90.7534 57.5959C90.8734 57.522 90.9335 57.402 90.9335 57.2358V57.2035C90.9335 56.8003 90.8196 56.4879 90.5918 56.2663C90.3672 56.0447 90.0317 55.9339 89.5854 55.9339C89.1207 55.9339 88.7545 56.037 88.4867 56.2433C88.222 56.4464 88.0389 56.6726 87.9374 56.9219L86.6401 56.6264C86.794 56.1955 87.0187 55.8478 87.3141 55.5831C87.6127 55.3153 87.9558 55.1214 88.3436 55.0014C88.7314 54.8783 89.1392 54.8168 89.567 54.8168C89.8501 54.8168 90.1502 54.8506 90.4672 54.9183C90.7873 54.983 91.0858 55.103 91.3628 55.2784C91.6429 55.4538 91.8721 55.7047 92.0506 56.0309C92.2292 56.354 92.3184 56.7741 92.3184 57.2912V62H90.9704V61.0305H90.915C90.8257 61.209 90.6919 61.3845 90.5134 61.5568C90.3349 61.7292 90.1056 61.8723 89.8255 61.9862C89.5454 62.1 89.21 62.157 88.8191 62.157ZM89.1192 61.049C89.5008 61.049 89.827 60.9736 90.0979 60.8228C90.3718 60.672 90.5795 60.475 90.7211 60.2319C90.8658 59.9857 90.9381 59.7225 90.9381 59.4425V58.5284C90.8888 58.5777 90.7934 58.6238 90.6519 58.6669C90.5134 58.7069 90.3549 58.7423 90.1764 58.7731C89.9979 58.8008 89.824 58.8269 89.6547 58.8516C89.4854 58.8731 89.3439 58.8916 89.23 58.907C88.9622 58.9408 88.7176 58.9978 88.496 59.0778C88.2774 59.1578 88.102 59.2732 87.9697 59.424C87.8404 59.5717 87.7758 59.7687 87.7758 60.0149C87.7758 60.3565 87.902 60.6151 88.1543 60.7905C88.4067 60.9628 88.7283 61.049 89.1192 61.049ZM97.1438 62.1431C96.4575 62.1431 95.8666 61.9877 95.371 61.6768C94.8786 61.3629 94.5001 60.9305 94.2354 60.3796C93.9707 59.8287 93.8384 59.1978 93.8384 58.4869C93.8384 57.7667 93.9738 57.1312 94.2446 56.5803C94.5155 56.0263 94.8971 55.5939 95.3895 55.283C95.8819 54.9722 96.4621 54.8168 97.1299 54.8168C97.6685 54.8168 98.1486 54.9168 98.5703 55.1168C98.9919 55.3138 99.332 55.5908 99.5905 55.9478C99.8521 56.3048 100.008 56.7218 100.057 57.1989H98.7134C98.6395 56.8665 98.4702 56.5803 98.2056 56.3402C97.944 56.1001 97.5931 55.9801 97.153 55.9801C96.7683 55.9801 96.4313 56.0817 96.142 56.2848C95.8558 56.4848 95.6326 56.7711 95.4726 57.1435C95.3126 57.5128 95.2326 57.9498 95.2326 58.4545C95.2326 58.9716 95.311 59.4179 95.468 59.7933C95.625 60.1688 95.8465 60.4596 96.1328 60.6658C96.4221 60.872 96.7621 60.9751 97.153 60.9751C97.4146 60.9751 97.6516 60.9274 97.8639 60.832C98.0794 60.7335 98.2594 60.5935 98.4041 60.4119C98.5518 60.2304 98.6549 60.0118 98.7134 59.7564H100.057C100.008 60.215 99.8583 60.6243 99.609 60.9844C99.3597 61.3445 99.0258 61.6276 98.6072 61.8338C98.1917 62.04 97.7039 62.1431 97.1438 62.1431ZM104.843 54.9091V56.017H100.97V54.9091H104.843ZM102.008 53.2102H103.389V59.918C103.389 60.1857 103.429 60.3873 103.509 60.5227C103.589 60.6551 103.692 60.7459 103.818 60.7951C103.947 60.8413 104.087 60.8643 104.238 60.8643C104.349 60.8643 104.446 60.8567 104.529 60.8413C104.612 60.8259 104.677 60.8136 104.723 60.8043L104.972 61.9446C104.892 61.9754 104.778 62.0062 104.631 62.0369C104.483 62.0708 104.298 62.0893 104.077 62.0923C103.713 62.0985 103.375 62.0339 103.061 61.8984C102.747 61.763 102.493 61.5537 102.299 61.2706C102.105 60.9875 102.008 60.632 102.008 60.2042V53.2102ZM106.37 62V54.9091H107.75V62H106.37ZM107.067 53.815C106.827 53.815 106.621 53.735 106.448 53.5749C106.279 53.4118 106.194 53.2179 106.194 52.9933C106.194 52.7655 106.279 52.5716 106.448 52.4116C106.621 52.2485 106.827 52.1669 107.067 52.1669C107.307 52.1669 107.512 52.2485 107.681 52.4116C107.853 52.5716 107.939 52.7655 107.939 52.9933C107.939 53.2179 107.853 53.4118 107.681 53.5749C107.512 53.735 107.307 53.815 107.067 53.815ZM112.594 62.1431C111.929 62.1431 111.349 61.9908 110.854 61.6861C110.358 61.3814 109.973 60.9551 109.699 60.4073C109.426 59.8595 109.289 59.2193 109.289 58.4869C109.289 57.7513 109.426 57.1081 109.699 56.5572C109.973 56.0063 110.358 55.5785 110.854 55.2738C111.349 54.9691 111.929 54.8168 112.594 54.8168C113.259 54.8168 113.839 54.9691 114.334 55.2738C114.83 55.5785 115.215 56.0063 115.489 56.5572C115.762 57.1081 115.899 57.7513 115.899 58.4869C115.899 59.2193 115.762 59.8595 115.489 60.4073C115.215 60.9551 114.83 61.3814 114.334 61.6861C113.839 61.9908 113.259 62.1431 112.594 62.1431ZM112.599 60.9844C113.029 60.9844 113.386 60.8705 113.67 60.6428C113.953 60.415 114.162 60.1119 114.297 59.7333C114.436 59.3548 114.505 58.9377 114.505 58.4822C114.505 58.0298 114.436 57.6143 114.297 57.2358C114.162 56.8542 113.953 56.5479 113.67 56.3171C113.386 56.0863 113.029 55.9709 112.599 55.9709C112.165 55.9709 111.805 56.0863 111.518 56.3171C111.235 56.5479 111.024 56.8542 110.886 57.2358C110.75 57.6143 110.683 58.0298 110.683 58.4822C110.683 58.9377 110.75 59.3548 110.886 59.7333C111.024 60.1119 111.235 60.415 111.518 60.6428C111.805 60.8705 112.165 60.9844 112.599 60.9844ZM118.82 57.7898V62H117.44V54.9091H118.765V56.0632H118.853C119.016 55.6877 119.271 55.3861 119.619 55.1584C119.97 54.9306 120.412 54.8168 120.944 54.8168C121.427 54.8168 121.85 54.9183 122.214 55.1214C122.577 55.3215 122.858 55.62 123.058 56.017C123.258 56.4141 123.358 56.9049 123.358 57.4897V62H121.978V57.6559C121.978 57.1419 121.844 56.7403 121.576 56.451C121.309 56.1586 120.941 56.0124 120.473 56.0124C120.153 56.0124 119.868 56.0817 119.619 56.2202C119.373 56.3587 119.177 56.5618 119.033 56.8295C118.891 57.0942 118.82 57.4143 118.82 57.7898ZM130.523 56.6403L129.272 56.8619C129.22 56.7018 129.137 56.5495 129.023 56.4048C128.912 56.2602 128.761 56.1417 128.57 56.0494C128.38 55.957 128.141 55.9109 127.855 55.9109C127.464 55.9109 127.138 55.9986 126.876 56.174C126.615 56.3464 126.484 56.5695 126.484 56.8434C126.484 57.0804 126.572 57.2712 126.747 57.4158C126.922 57.5605 127.206 57.679 127.596 57.7713L128.723 58.0298C129.375 58.1806 129.862 58.413 130.182 58.7269C130.502 59.0408 130.662 59.4486 130.662 59.9503C130.662 60.375 130.539 60.7536 130.292 61.0859C130.049 61.4152 129.709 61.6738 129.272 61.8615C128.838 62.0492 128.335 62.1431 127.763 62.1431C126.969 62.1431 126.321 61.9738 125.819 61.6353C125.317 61.2937 125.01 60.8089 124.896 60.1811L126.23 59.978C126.313 60.3258 126.484 60.5889 126.742 60.7674C127.001 60.9428 127.338 61.0305 127.753 61.0305C128.206 61.0305 128.567 60.9367 128.838 60.7489C129.109 60.5581 129.244 60.3258 129.244 60.0518C129.244 59.8303 129.161 59.6441 128.995 59.4933C128.832 59.3424 128.581 59.2286 128.243 59.1516L127.042 58.8885C126.381 58.7377 125.891 58.4976 125.574 58.1683C125.26 57.839 125.103 57.422 125.103 56.9173C125.103 56.4987 125.22 56.1325 125.454 55.8185C125.688 55.5046 126.011 55.2599 126.424 55.0845C126.836 54.906 127.309 54.8168 127.841 54.8168C128.607 54.8168 129.211 54.983 129.651 55.3153C130.091 55.6446 130.382 56.0863 130.523 56.6403ZM138.93 54.9091V56.017H135.057V54.9091H138.93ZM136.095 53.2102H137.476V59.918C137.476 60.1857 137.516 60.3873 137.596 60.5227C137.676 60.6551 137.779 60.7459 137.905 60.7951C138.034 60.8413 138.174 60.8643 138.325 60.8643C138.436 60.8643 138.533 60.8567 138.616 60.8413C138.699 60.8259 138.764 60.8136 138.81 60.8043L139.059 61.9446C138.979 61.9754 138.865 62.0062 138.717 62.0369C138.57 62.0708 138.385 62.0893 138.163 62.0923C137.8 62.0985 137.462 62.0339 137.148 61.8984C136.834 61.763 136.58 61.5537 136.386 61.2706C136.192 60.9875 136.095 60.632 136.095 60.2042V53.2102ZM143.367 62.1431C142.703 62.1431 142.122 61.9908 141.627 61.6861C141.131 61.3814 140.747 60.9551 140.473 60.4073C140.199 59.8595 140.062 59.2193 140.062 58.4869C140.062 57.7513 140.199 57.1081 140.473 56.5572C140.747 56.0063 141.131 55.5785 141.627 55.2738C142.122 54.9691 142.703 54.8168 143.367 54.8168C144.032 54.8168 144.612 54.9691 145.108 55.2738C145.603 55.5785 145.988 56.0063 146.262 56.5572C146.536 57.1081 146.673 57.7513 146.673 58.4869C146.673 59.2193 146.536 59.8595 146.262 60.4073C145.988 60.9551 145.603 61.3814 145.108 61.6861C144.612 61.9908 144.032 62.1431 143.367 62.1431ZM143.372 60.9844C143.803 60.9844 144.16 60.8705 144.443 60.6428C144.726 60.415 144.935 60.1119 145.071 59.7333C145.209 59.3548 145.279 58.9377 145.279 58.4822C145.279 58.0298 145.209 57.6143 145.071 57.2358C144.935 56.8542 144.726 56.5479 144.443 56.3171C144.16 56.0863 143.803 55.9709 143.372 55.9709C142.938 55.9709 142.578 56.0863 142.292 56.3171C142.009 56.5479 141.798 56.8542 141.659 57.2358C141.524 57.6143 141.456 58.0298 141.456 58.4822C141.456 58.9377 141.524 59.3548 141.659 59.7333C141.798 60.1119 142.009 60.415 142.292 60.6428C142.578 60.8705 142.938 60.9844 143.372 60.9844ZM150.868 62.1385C150.296 62.1385 149.785 61.9923 149.335 61.6999C148.889 61.4045 148.538 60.9844 148.283 60.4396C148.03 59.8918 147.904 59.2347 147.904 58.4684C147.904 57.7021 148.032 57.0465 148.287 56.5018C148.546 55.957 148.9 55.54 149.349 55.2507C149.799 54.9614 150.308 54.8168 150.877 54.8168C151.317 54.8168 151.671 54.8906 151.939 55.0384C152.21 55.183 152.419 55.3523 152.567 55.5462C152.718 55.7401 152.835 55.9109 152.918 56.0586H153.001V52.5455H154.381V62H153.033V60.8967H152.918C152.835 61.0475 152.715 61.2198 152.558 61.4137C152.404 61.6076 152.191 61.7769 151.921 61.9215C151.65 62.0662 151.299 62.1385 150.868 62.1385ZM151.173 60.9613C151.57 60.9613 151.905 60.8567 152.179 60.6474C152.456 60.435 152.665 60.1411 152.807 59.7656C152.952 59.3902 153.024 58.9531 153.024 58.4545C153.024 57.9621 152.953 57.5312 152.812 57.1619C152.67 56.7926 152.462 56.5049 152.188 56.2987C151.914 56.0924 151.576 55.9893 151.173 55.9893C150.757 55.9893 150.411 56.0971 150.134 56.3125C149.857 56.5279 149.648 56.8219 149.506 57.1942C149.368 57.5666 149.298 57.9867 149.298 58.4545C149.298 58.9285 149.369 59.3548 149.511 59.7333C149.652 60.1119 149.862 60.4119 150.139 60.6335C150.419 60.852 150.763 60.9613 151.173 60.9613ZM158.415 62.157C157.965 62.157 157.559 62.0739 157.196 61.9077C156.833 61.7384 156.545 61.4937 156.333 61.1737C156.124 60.8536 156.019 60.4612 156.019 59.9964C156.019 59.5964 156.096 59.267 156.25 59.0085C156.404 58.75 156.611 58.5453 156.873 58.3945C157.135 58.2437 157.427 58.1299 157.75 58.0529C158.073 57.976 158.403 57.9175 158.738 57.8775C159.163 57.8282 159.507 57.7882 159.772 57.7575C160.037 57.7236 160.229 57.6697 160.349 57.5959C160.469 57.522 160.529 57.402 160.529 57.2358V57.2035C160.529 56.8003 160.415 56.4879 160.188 56.2663C159.963 56.0447 159.627 55.9339 159.181 55.9339C158.716 55.9339 158.35 56.037 158.082 56.2433C157.818 56.4464 157.635 56.6726 157.533 56.9219L156.236 56.6264C156.39 56.1955 156.614 55.8478 156.91 55.5831C157.208 55.3153 157.552 55.1214 157.939 55.0014C158.327 54.8783 158.735 54.8168 159.163 54.8168C159.446 54.8168 159.746 54.8506 160.063 54.9183C160.383 54.983 160.682 55.103 160.958 55.2784C161.239 55.4538 161.468 55.7047 161.646 56.0309C161.825 56.354 161.914 56.7741 161.914 57.2912V62H160.566V61.0305H160.511C160.421 61.209 160.288 61.3845 160.109 61.5568C159.931 61.7292 159.701 61.8723 159.421 61.9862C159.141 62.1 158.806 62.157 158.415 62.157ZM158.715 61.049C159.097 61.049 159.423 60.9736 159.694 60.8228C159.967 60.672 160.175 60.475 160.317 60.2319C160.461 59.9857 160.534 59.7225 160.534 59.4425V58.5284C160.485 58.5777 160.389 58.6238 160.248 58.6669C160.109 58.7069 159.951 58.7423 159.772 58.7731C159.594 58.8008 159.42 58.8269 159.25 58.8516C159.081 58.8731 158.94 58.8916 158.826 58.907C158.558 58.9408 158.313 58.9978 158.092 59.0778C157.873 59.1578 157.698 59.2732 157.565 59.424C157.436 59.5717 157.371 59.7687 157.371 60.0149C157.371 60.3565 157.498 60.6151 157.75 60.7905C158.002 60.9628 158.324 61.049 158.715 61.049ZM164.371 64.6591C164.165 64.6591 163.977 64.6422 163.808 64.6083C163.639 64.5775 163.513 64.5437 163.429 64.5067L163.762 63.3757C164.014 63.4434 164.239 63.4727 164.436 63.4634C164.633 63.4542 164.807 63.3803 164.958 63.2418C165.111 63.1033 165.247 62.8771 165.364 62.5632L165.535 62.0923L162.94 54.9091H164.417L166.213 60.4119H166.287L168.083 54.9091H169.565L166.643 62.9464C166.507 63.3157 166.335 63.6281 166.125 63.8835C165.916 64.142 165.667 64.3359 165.378 64.4652C165.088 64.5945 164.753 64.6591 164.371 64.6591Z" fill="#303030"/>
<path d="M347.41 27.5455V28.3977H344.43V27.5455H347.41ZM345.229 26.2386H346.291V31.3984C346.291 31.6044 346.322 31.7595 346.383 31.8636C346.445 31.9654 346.524 32.0353 346.621 32.0732C346.721 32.1087 346.828 32.1264 346.944 32.1264C347.03 32.1264 347.104 32.1205 347.168 32.1087C347.232 32.0968 347.282 32.0874 347.317 32.0803L347.509 32.9574C347.447 32.9811 347.36 33.0047 347.246 33.0284C347.133 33.0545 346.991 33.0687 346.82 33.071C346.541 33.0758 346.28 33.026 346.039 32.9219C345.797 32.8177 345.602 32.6567 345.453 32.4389C345.304 32.2211 345.229 31.9477 345.229 31.6186V26.2386Z" fill="black"/>
<path opacity="0.36" d="M51.4385 267.727V275H50.3377V268.828H50.2951L48.555 269.964V268.913L50.3697 267.727H51.4385ZM55.9378 275.121C55.3768 275.118 54.8974 274.97 54.4996 274.677C54.1019 274.383 53.7977 273.956 53.587 273.395C53.3763 272.834 53.2709 272.158 53.2709 271.367C53.2709 270.579 53.3763 269.905 53.587 269.347C53.8 268.788 54.1054 268.362 54.5032 268.068C54.9033 267.775 55.3815 267.628 55.9378 267.628C56.4942 267.628 56.9712 267.776 57.3689 268.072C57.7667 268.365 58.0709 268.791 58.2816 269.35C58.4947 269.906 58.6012 270.579 58.6012 271.367C58.6012 272.16 58.4958 272.837 58.2851 273.398C58.0744 273.957 57.7702 274.384 57.3725 274.68C56.9748 274.974 56.4965 275.121 55.9378 275.121ZM55.9378 274.173C56.4303 274.173 56.815 273.932 57.092 273.452C57.3713 272.971 57.511 272.276 57.511 271.367C57.511 270.763 57.4471 270.253 57.3192 269.837C57.1938 269.418 57.0126 269.1 56.7759 268.885C56.5415 268.667 56.2622 268.558 55.9378 268.558C55.4478 268.558 55.0631 268.8 54.7837 269.283C54.5044 269.766 54.3635 270.46 54.3611 271.367C54.3611 271.973 54.4239 272.486 54.5493 272.905C54.6772 273.321 54.8583 273.638 55.0927 273.853C55.327 274.066 55.6088 274.173 55.9378 274.173Z" fill="black"/>
<path opacity="0.36" d="M49.5874 242.099C49.1424 242.099 48.7423 242.014 48.3872 241.844C48.0344 241.671 47.7527 241.434 47.542 241.134C47.3313 240.833 47.2188 240.49 47.2046 240.104H48.27C48.296 240.416 48.4345 240.673 48.6855 240.874C48.9364 241.076 49.2371 241.176 49.5874 241.176C49.8668 241.176 50.1142 241.112 50.3296 240.984C50.5474 240.854 50.7179 240.675 50.841 240.448C50.9665 240.221 51.0292 239.962 51.0292 239.67C51.0292 239.375 50.9653 239.111 50.8374 238.879C50.7096 238.647 50.5332 238.464 50.3083 238.332C50.0858 238.199 49.8301 238.132 49.5413 238.129C49.3211 238.129 49.0998 238.167 48.8772 238.243C48.6547 238.319 48.4748 238.418 48.3374 238.541L47.3325 238.392L47.7409 234.727H51.7394V235.668H48.6535L48.4227 237.703H48.4653C48.6073 237.566 48.7955 237.451 49.0299 237.359C49.2667 237.266 49.52 237.22 49.7899 237.22C50.2326 237.22 50.6267 237.326 50.9724 237.536C51.3204 237.747 51.5938 238.035 51.7927 238.399C51.9939 238.761 52.0934 239.178 52.091 239.649C52.0934 240.12 51.9868 240.54 51.7714 240.91C51.5583 241.279 51.2624 241.57 50.8836 241.783C50.5072 241.994 50.0751 242.099 49.5874 242.099ZM55.92 242.121C55.3589 242.118 54.8795 241.97 54.4818 241.677C54.0841 241.383 53.7799 240.956 53.5692 240.395C53.3585 239.834 53.2531 239.158 53.2531 238.367C53.2531 237.579 53.3585 236.905 53.5692 236.347C53.7822 235.788 54.0876 235.362 54.4854 235.068C54.8854 234.775 55.3637 234.628 55.92 234.628C56.4764 234.628 56.9534 234.776 57.3511 235.072C57.7488 235.365 58.0531 235.791 58.2638 236.35C58.4768 236.906 58.5834 237.579 58.5834 238.367C58.5834 239.16 58.478 239.837 58.2673 240.398C58.0566 240.957 57.7524 241.384 57.3547 241.68C56.9569 241.974 56.4787 242.121 55.92 242.121ZM55.92 241.173C56.4124 241.173 56.7971 240.932 57.0741 240.452C57.3535 239.971 57.4932 239.276 57.4932 238.367C57.4932 237.763 57.4292 237.253 57.3014 236.837C57.1759 236.418 56.9948 236.1 56.7581 235.885C56.5237 235.667 56.2443 235.558 55.92 235.558C55.43 235.558 55.0452 235.8 54.7659 236.283C54.4865 236.766 54.3457 237.46 54.3433 238.367C54.3433 238.973 54.406 239.486 54.5315 239.905C54.6594 240.321 54.8405 240.638 55.0748 240.853C55.3092 241.066 55.5909 241.173 55.92 241.173Z" fill="black"/>
<path opacity="0.36" d="M42.4847 201.727V209H41.3838V202.828H41.3412L39.6012 203.964V202.913L41.4158 201.727H42.4847ZM46.984 209.121C46.4229 209.118 45.9435 208.97 45.5458 208.677C45.148 208.383 44.8438 207.956 44.6331 207.395C44.4224 206.834 44.3171 206.158 44.3171 205.367C44.3171 204.579 44.4224 203.905 44.6331 203.347C44.8462 202.788 45.1516 202.362 45.5493 202.068C45.9494 201.775 46.4276 201.628 46.984 201.628C47.5403 201.628 48.0174 201.776 48.4151 202.072C48.8128 202.365 49.117 202.791 49.3277 203.35C49.5408 203.906 49.6473 204.579 49.6473 205.367C49.6473 206.16 49.542 206.837 49.3313 207.398C49.1206 207.957 48.8164 208.384 48.4186 208.68C48.0209 208.974 47.5427 209.121 46.984 209.121ZM46.984 208.173C47.4764 208.173 47.8611 207.932 48.1381 207.452C48.4175 206.971 48.5571 206.276 48.5571 205.367C48.5571 204.763 48.4932 204.253 48.3654 203.837C48.2399 203.418 48.0588 203.1 47.822 202.885C47.5877 202.667 47.3083 202.558 46.984 202.558C46.4939 202.558 46.1092 202.8 45.8299 203.283C45.5505 203.766 45.4096 204.46 45.4073 205.367C45.4073 205.973 45.47 206.486 45.5955 206.905C45.7233 207.321 45.9044 207.638 46.1388 207.853C46.3732 208.066 46.6549 208.173 46.984 208.173ZM53.4391 209.121C52.878 209.118 52.3986 208.97 52.0008 208.677C51.6031 208.383 51.2989 207.956 51.0882 207.395C50.8775 206.834 50.7722 206.158 50.7722 205.367C50.7722 204.579 50.8775 203.905 51.0882 203.347C51.3013 202.788 51.6067 202.362 52.0044 202.068C52.4045 201.775 52.8827 201.628 53.4391 201.628C53.9954 201.628 54.4724 201.776 54.8702 202.072C55.2679 202.365 55.5721 202.791 55.7828 203.35C55.9959 203.906 56.1024 204.579 56.1024 205.367C56.1024 206.16 55.9971 206.837 55.7864 207.398C55.5757 207.957 55.2714 208.384 54.8737 208.68C54.476 208.974 53.9978 209.121 53.4391 209.121ZM53.4391 208.173C53.9315 208.173 54.3162 207.932 54.5932 207.452C54.8725 206.971 55.0122 206.276 55.0122 205.367C55.0122 204.763 54.9483 204.253 54.8204 203.837C54.695 203.418 54.5139 203.1 54.2771 202.885C54.0427 202.667 53.7634 202.558 53.4391 202.558C52.949 202.558 52.5643 202.8 52.2849 203.283C52.0056 203.766 51.8647 204.46 51.8623 205.367C51.8623 205.973 51.9251 206.486 52.0506 206.905C52.1784 207.321 52.3595 207.638 52.5939 207.853C52.8283 208.066 53.11 208.173 53.4391 208.173Z" fill="black"/>
<path opacity="0.36" d="M39.1414 176.099C38.6963 176.099 38.2962 176.014 37.9411 175.844C37.5884 175.671 37.3066 175.434 37.0959 175.134C36.8852 174.833 36.7728 174.49 36.7586 174.104H37.8239C37.85 174.416 37.9885 174.673 38.2394 174.874C38.4904 175.076 38.791 175.176 39.1414 175.176C39.4208 175.176 39.6682 175.112 39.8836 174.984C40.1014 174.854 40.2718 174.675 40.395 174.448C40.5204 174.221 40.5832 173.962 40.5832 173.67C40.5832 173.375 40.5192 173.111 40.3914 172.879C40.2636 172.647 40.0872 172.464 39.8623 172.332C39.6397 172.199 39.3841 172.132 39.0952 172.129C38.8751 172.129 38.6537 172.167 38.4312 172.243C38.2086 172.319 38.0287 172.418 37.8914 172.541L36.8864 172.392L37.2948 168.727H41.2934V169.668H38.2075L37.9766 171.703H38.0192C38.1613 171.566 38.3495 171.451 38.5839 171.359C38.8206 171.266 39.0739 171.22 39.3438 171.22C39.7865 171.22 40.1807 171.326 40.5263 171.536C40.8744 171.747 41.1478 172.035 41.3467 172.399C41.5479 172.761 41.6473 173.178 41.645 173.649C41.6473 174.12 41.5408 174.54 41.3254 174.91C41.1123 175.279 40.8164 175.57 40.4376 175.783C40.0611 175.994 39.6291 176.099 39.1414 176.099ZM45.474 176.121C44.9129 176.118 44.4335 175.97 44.0358 175.677C43.638 175.383 43.3338 174.956 43.1231 174.395C42.9124 173.834 42.8071 173.158 42.8071 172.367C42.8071 171.579 42.9124 170.905 43.1231 170.347C43.3362 169.788 43.6416 169.362 44.0393 169.068C44.4394 168.775 44.9176 168.628 45.474 168.628C46.0303 168.628 46.5073 168.776 46.9051 169.072C47.3028 169.365 47.607 169.791 47.8177 170.35C48.0308 170.906 48.1373 171.579 48.1373 172.367C48.1373 173.16 48.032 173.837 47.8213 174.398C47.6106 174.957 47.3064 175.384 46.9086 175.68C46.5109 175.974 46.0327 176.121 45.474 176.121ZM45.474 175.173C45.9664 175.173 46.3511 174.932 46.6281 174.452C46.9074 173.971 47.0471 173.276 47.0471 172.367C47.0471 171.763 46.9832 171.253 46.8554 170.837C46.7299 170.418 46.5488 170.1 46.312 169.885C46.0777 169.667 45.7983 169.558 45.474 169.558C44.9839 169.558 44.5992 169.8 44.3198 170.283C44.0405 170.766 43.8996 171.46 43.8973 172.367C43.8973 172.973 43.96 173.486 44.0855 173.905C44.2133 174.321 44.3944 174.638 44.6288 174.853C44.8632 175.066 45.1449 175.173 45.474 175.173ZM51.929 176.121C51.368 176.118 50.8886 175.97 50.4908 175.677C50.0931 175.383 49.7889 174.956 49.5782 174.395C49.3675 173.834 49.2621 173.158 49.2621 172.367C49.2621 171.579 49.3675 170.905 49.5782 170.347C49.7913 169.788 50.0967 169.362 50.4944 169.068C50.8945 168.775 51.3727 168.628 51.929 168.628C52.4854 168.628 52.9624 168.776 53.3602 169.072C53.7579 169.365 54.0621 169.791 54.2728 170.35C54.4859 170.906 54.5924 171.579 54.5924 172.367C54.5924 173.16 54.487 173.837 54.2763 174.398C54.0656 174.957 53.7614 175.384 53.3637 175.68C52.966 175.974 52.4878 176.121 51.929 176.121ZM51.929 175.173C52.4215 175.173 52.8062 174.932 53.0832 174.452C53.3625 173.971 53.5022 173.276 53.5022 172.367C53.5022 171.763 53.4383 171.253 53.3104 170.837C53.185 170.418 53.0039 170.1 52.7671 169.885C52.5327 169.667 52.2534 169.558 51.929 169.558C51.439 169.558 51.0543 169.8 50.7749 170.283C50.4956 170.766 50.3547 171.46 50.3523 172.367C50.3523 172.973 50.4151 173.486 50.5405 173.905C50.6684 174.321 50.8495 174.638 51.0839 174.853C51.3182 175.066 51.6 175.173 51.929 175.173Z" fill="black"/>
<path opacity="0.36" d="M32.0384 135.727V143H30.9375V136.828H30.8949L29.1549 137.964V136.913L30.9695 135.727H32.0384ZM36.5377 143.121C35.9766 143.118 35.4972 142.97 35.0995 142.677C34.7017 142.383 34.3975 141.956 34.1868 141.395C33.9761 140.834 33.8708 140.158 33.8708 139.367C33.8708 138.579 33.9761 137.905 34.1868 137.347C34.3999 136.788 34.7053 136.362 35.103 136.068C35.5031 135.775 35.9813 135.628 36.5377 135.628C37.094 135.628 37.5711 135.776 37.9688 136.072C38.3665 136.365 38.6707 136.791 38.8814 137.35C39.0945 137.906 39.201 138.579 39.201 139.367C39.201 140.16 39.0957 140.837 38.885 141.398C38.6743 141.957 38.3701 142.384 37.9723 142.68C37.5746 142.974 37.0964 143.121 36.5377 143.121ZM36.5377 142.173C37.0301 142.173 37.4148 141.932 37.6918 141.452C37.9712 140.971 38.1108 140.276 38.1108 139.367C38.1108 138.763 38.0469 138.253 37.9191 137.837C37.7936 137.418 37.6125 137.1 37.3758 136.885C37.1414 136.667 36.862 136.558 36.5377 136.558C36.0476 136.558 35.6629 136.8 35.3836 137.283C35.1042 137.766 34.9633 138.46 34.961 139.367C34.961 139.973 35.0237 140.486 35.1492 140.905C35.277 141.321 35.4581 141.638 35.6925 141.853C35.9269 142.066 36.2086 142.173 36.5377 142.173ZM42.9928 143.121C42.4317 143.118 41.9523 142.97 41.5546 142.677C41.1568 142.383 40.8526 141.956 40.6419 141.395C40.4312 140.834 40.3259 140.158 40.3259 139.367C40.3259 138.579 40.4312 137.905 40.6419 137.347C40.855 136.788 41.1604 136.362 41.5581 136.068C41.9582 135.775 42.4364 135.628 42.9928 135.628C43.5491 135.628 44.0261 135.776 44.4239 136.072C44.8216 136.365 45.1258 136.791 45.3365 137.35C45.5496 137.906 45.6561 138.579 45.6561 139.367C45.6561 140.16 45.5508 140.837 45.3401 141.398C45.1294 141.957 44.8252 142.384 44.4274 142.68C44.0297 142.974 43.5515 143.121 42.9928 143.121ZM42.9928 142.173C43.4852 142.173 43.8699 141.932 44.1469 141.452C44.4262 140.971 44.5659 140.276 44.5659 139.367C44.5659 138.763 44.502 138.253 44.3742 137.837C44.2487 137.418 44.0676 137.1 43.8308 136.885C43.5965 136.667 43.3171 136.558 42.9928 136.558C42.5027 136.558 42.118 136.8 41.8386 137.283C41.5593 137.766 41.4184 138.46 41.4161 139.367C41.4161 139.973 41.4788 140.486 41.6043 140.905C41.7321 141.321 41.9132 141.638 42.1476 141.853C42.382 142.066 42.6637 142.173 42.9928 142.173ZM49.4478 143.121C48.8868 143.118 48.4074 142.97 48.0096 142.677C47.6119 142.383 47.3077 141.956 47.097 141.395C46.8863 140.834 46.7809 140.158 46.7809 139.367C46.7809 138.579 46.8863 137.905 47.097 137.347C47.3101 136.788 47.6155 136.362 48.0132 136.068C48.4133 135.775 48.8915 135.628 49.4478 135.628C50.0042 135.628 50.4812 135.776 50.879 136.072C51.2767 136.365 51.5809 136.791 51.7916 137.35C52.0047 137.906 52.1112 138.579 52.1112 139.367C52.1112 140.16 52.0058 140.837 51.7951 141.398C51.5844 141.957 51.2802 142.384 50.8825 142.68C50.4848 142.974 50.0066 143.121 49.4478 143.121ZM49.4478 142.173C49.9403 142.173 50.325 141.932 50.602 141.452C50.8813 140.971 51.021 140.276 51.021 139.367C51.021 138.763 50.9571 138.253 50.8292 137.837C50.7038 137.418 50.5227 137.1 50.2859 136.885C50.0515 136.667 49.7722 136.558 49.4478 136.558C48.9578 136.558 48.5731 136.8 48.2937 137.283C48.0144 137.766 47.8735 138.46 47.8711 139.367C47.8711 139.973 47.9339 140.486 48.0593 140.905C48.1872 141.321 48.3683 141.638 48.6027 141.853C48.837 142.066 49.1188 142.173 49.4478 142.173Z" fill="black"/>
<path opacity="0.36" d="M27.787 110V109.205L30.2479 106.655C30.5107 106.378 30.7273 106.135 30.8978 105.927C31.0706 105.716 31.1996 105.516 31.2848 105.327C31.3701 105.137 31.4127 104.936 31.4127 104.723C31.4127 104.482 31.3559 104.273 31.2422 104.098C31.1286 103.92 30.9735 103.784 30.777 103.69C30.5805 103.593 30.3592 103.544 30.113 103.544C29.8526 103.544 29.6253 103.597 29.4312 103.704C29.237 103.81 29.0879 103.961 28.9837 104.155C28.8795 104.349 28.8275 104.576 28.8275 104.837H27.7799C27.7799 104.394 27.8817 104.007 28.0853 103.675C28.2889 103.344 28.5682 103.087 28.9233 102.905C29.2785 102.72 29.6821 102.628 30.1343 102.628C30.5912 102.628 30.9937 102.719 31.3417 102.901C31.692 103.081 31.9655 103.327 32.162 103.64C32.3585 103.95 32.4567 104.3 32.4567 104.691C32.4567 104.961 32.4058 105.225 32.304 105.483C32.2046 105.741 32.0306 106.029 31.782 106.346C31.5334 106.661 31.1878 107.043 30.7451 107.493L29.2998 109.006V109.059H32.5739V110H27.787ZM36.4517 110.121C35.8907 110.118 35.4113 109.97 35.0135 109.677C34.6158 109.383 34.3116 108.956 34.1009 108.395C33.8902 107.834 33.7848 107.158 33.7848 106.367C33.7848 105.579 33.8902 104.905 34.1009 104.347C34.314 103.788 34.6194 103.362 35.0171 103.068C35.4172 102.775 35.8954 102.628 36.4517 102.628C37.0081 102.628 37.4851 102.776 37.8829 103.072C38.2806 103.365 38.5848 103.791 38.7955 104.35C39.0086 104.906 39.1151 105.579 39.1151 106.367C39.1151 107.16 39.0098 107.837 38.7991 108.398C38.5883 108.957 38.2841 109.384 37.8864 109.68C37.4887 109.974 37.0105 110.121 36.4517 110.121ZM36.4517 109.173C36.9442 109.173 37.3289 108.932 37.6059 108.452C37.8852 107.971 38.0249 107.276 38.0249 106.367C38.0249 105.763 37.961 105.253 37.8331 104.837C37.7077 104.418 37.5266 104.1 37.2898 103.885C37.0554 103.667 36.7761 103.558 36.4517 103.558C35.9617 103.558 35.577 103.8 35.2976 104.283C35.0183 104.766 34.8774 105.46 34.875 106.367C34.875 106.973 34.9378 107.486 35.0633 107.905C35.1911 108.321 35.3722 108.638 35.6066 108.853C35.841 109.066 36.1227 109.173 36.4517 109.173ZM42.9068 110.121C42.3457 110.118 41.8663 109.97 41.4686 109.677C41.0709 109.383 40.7667 108.956 40.556 108.395C40.3453 107.834 40.2399 107.158 40.2399 106.367C40.2399 105.579 40.3453 104.905 40.556 104.347C40.769 103.788 41.0744 103.362 41.4722 103.068C41.8723 102.775 42.3505 102.628 42.9068 102.628C43.4632 102.628 43.9402 102.776 44.3379 103.072C44.7357 103.365 45.0399 103.791 45.2506 104.35C45.4636 104.906 45.5702 105.579 45.5702 106.367C45.5702 107.16 45.4648 107.837 45.2541 108.398C45.0434 108.957 44.7392 109.384 44.3415 109.68C43.9438 109.974 43.4655 110.121 42.9068 110.121ZM42.9068 109.173C43.3993 109.173 43.784 108.932 44.0609 108.452C44.3403 107.971 44.48 107.276 44.48 106.367C44.48 105.763 44.4161 105.253 44.2882 104.837C44.1627 104.418 43.9816 104.1 43.7449 103.885C43.5105 103.667 43.2312 103.558 42.9068 103.558C42.4168 103.558 42.0321 103.8 41.7527 104.283C41.4734 104.766 41.3325 105.46 41.3301 106.367C41.3301 106.973 41.3929 107.486 41.5183 107.905C41.6462 108.321 41.8273 108.638 42.0617 108.853C42.296 109.066 42.5778 109.173 42.9068 109.173ZM49.3619 110.121C48.8008 110.118 48.3214 109.97 47.9237 109.677C47.526 109.383 47.2218 108.956 47.0111 108.395C46.8004 107.834 46.695 107.158 46.695 106.367C46.695 105.579 46.8004 104.905 47.0111 104.347C47.2241 103.788 47.5295 103.362 47.9272 103.068C48.3273 102.775 48.8056 102.628 49.3619 102.628C49.9182 102.628 50.3953 102.776 50.793 103.072C51.1907 103.365 51.495 103.791 51.7057 104.35C51.9187 104.906 52.0253 105.579 52.0253 106.367C52.0253 107.16 51.9199 107.837 51.7092 108.398C51.4985 108.957 51.1943 109.384 50.7966 109.68C50.3988 109.974 49.9206 110.121 49.3619 110.121ZM49.3619 109.173C49.8543 109.173 50.239 108.932 50.516 108.452C50.7954 107.971 50.9351 107.276 50.9351 106.367C50.9351 105.763 50.8711 105.253 50.7433 104.837C50.6178 104.418 50.4367 104.1 50.2 103.885C49.9656 103.667 49.6862 103.558 49.3619 103.558C48.8718 103.558 48.4871 103.8 48.2078 104.283C47.9284 104.766 47.7876 105.46 47.7852 106.367C47.7852 106.973 47.8479 107.486 47.9734 107.905C48.1013 108.321 48.2824 108.638 48.5167 108.853C48.7511 109.066 49.0328 109.173 49.3619 109.173Z" fill="black"/>
<path d="M113.981 107.161L80.4214 134.134V225L545.783 210.5L545.783 153.352L527.139 125.031H501.783L471.206 93H437.646L413.036 125.031H377.239L361.578 116.264H325.035L304.899 159.084H249.712L229.576 134.134H190.796L165.439 107.161H113.981Z" fill="url(#paint0_linear_1091_171)"/>
<path d="M80.4214 134.082L112.138 108.679C113.38 107.685 114.923 107.143 116.514 107.143H162.611C164.538 107.143 166.38 107.937 167.703 109.339L188.972 131.885C190.294 133.287 192.136 134.082 194.063 134.082H226.572C228.684 134.082 230.683 135.035 232.012 136.676L247.991 156.406C249.32 158.047 251.319 159 253.431 159H300.966C303.675 159 306.141 157.437 307.297 154.987L323.691 120.247C324.847 117.798 327.312 116.235 330.021 116.235H360.389C361.583 116.235 362.757 116.54 363.799 117.121L376.316 124.103C377.358 124.685 378.532 124.99 379.726 124.99H410.341C412.512 124.99 414.56 123.983 415.885 122.264L436.347 95.7257C437.673 94.0068 439.72 93 441.891 93H469.096C471.005 93 472.831 93.7794 474.151 95.1576L500.663 122.832C501.983 124.21 503.809 124.99 505.717 124.99H524.378C526.728 124.99 528.922 126.17 530.218 128.131L546.829 153.276" stroke="#74CA8F" stroke-width="3" stroke-linecap="round"/>
<path d="M113.64 163.5L80.0637 203.5V273H545.659V232L527.005 190H501.636L471.044 142.5H437.468L412.845 190H377.03L361.361 177H324.8L304.654 240.5H249.439L229.293 203.5H190.493L165.124 163.5H113.64Z" fill="url(#paint1_linear_1091_171)" fill-opacity="0.2"/>
<path d="M80.0637 203.5L111.542 165.999C112.872 164.415 114.835 163.5 116.904 163.5H161.275C163.672 163.5 165.902 164.727 167.186 166.751L188.432 200.249C189.715 202.273 191.946 203.5 194.343 203.5H225.134C227.697 203.5 230.056 204.901 231.282 207.153L247.45 236.847C248.676 239.099 251.034 240.5 253.598 240.5H299.531C302.581 240.5 305.28 238.525 306.203 235.617L323.25 181.883C324.173 178.975 326.872 177 329.923 177H358.835C360.467 177 362.048 177.57 363.305 178.613L375.086 188.387C376.342 189.43 377.923 190 379.556 190H408.589C411.204 190 413.6 188.543 414.804 186.222L435.509 146.278C436.712 143.957 439.109 142.5 441.724 142.5H467.226C469.606 142.5 471.823 143.709 473.112 145.71L499.569 186.79C500.858 188.791 503.074 190 505.454 190H522.455C525.222 190 527.729 191.63 528.852 194.159L545.659 232" stroke="#609EF0" stroke-width="3" stroke-linecap="round"/>
<line x1="82.3027" y1="272.5" x2="543.421" y2="272.5" stroke="#D6D6D6" stroke-dasharray="4 4"/>
<line x1="82.3027" y1="238.5" x2="543.421" y2="238.5" stroke="#D6D6D6" stroke-dasharray="4 4"/>
<line x1="82.3027" y1="205.5" x2="543.421" y2="205.5" stroke="#D6D6D6" stroke-dasharray="4 4"/>
<line x1="82.3027" y1="171.5" x2="543.421" y2="171.5" stroke="#D6D6D6" stroke-dasharray="4 4"/>
<line x1="82.3027" y1="139.5" x2="543.421" y2="139.5" stroke="#D6D6D6" stroke-dasharray="4 4"/>
<line x1="82.3027" y1="105.5" x2="543.421" y2="105.5" stroke="#D6D6D6" stroke-dasharray="4 4"/>
<rect x="501.927" y="21.25" width="70.7387" height="25.5" rx="5.75" fill="#F9F9F9" stroke="#DEDEDE" stroke-width="0.5"/>
<path d="M554.855 35.9904L551.542 32.6875H558.169L554.855 35.9904Z" fill="black"/>
<path opacity="0.56" d="M516.468 30.7273V38H514.93V32.1868H514.888L513.222 33.2308V31.8672L515.023 30.7273H516.468ZM523.132 38H520.553V30.7273H523.153C523.884 30.7273 524.514 30.8729 525.042 31.1641C525.57 31.4529 525.976 31.8684 526.26 32.4105C526.547 32.9527 526.69 33.6013 526.69 34.3565C526.69 35.1141 526.547 35.7652 526.26 36.3097C525.976 36.8542 525.568 37.272 525.035 37.5632C524.505 37.8544 523.87 38 523.132 38ZM522.091 36.6825H523.068C523.522 36.6825 523.905 36.602 524.215 36.4411C524.527 36.2777 524.762 36.0256 524.918 35.6847C525.076 35.3414 525.156 34.8987 525.156 34.3565C525.156 33.8191 525.076 33.38 524.918 33.0391C524.762 32.6982 524.528 32.4472 524.218 32.2862C523.908 32.1252 523.526 32.0447 523.071 32.0447H522.091V36.6825ZM529.356 38.103C529.008 38.103 528.698 38.0426 528.425 37.9219C528.153 37.7988 527.938 37.6177 527.779 37.3786C527.623 37.1371 527.545 36.8364 527.545 36.4766C527.545 36.1735 527.6 35.919 527.712 35.7131C527.823 35.5071 527.974 35.3414 528.166 35.2159C528.358 35.0904 528.576 34.9957 528.82 34.9318C529.066 34.8679 529.324 34.8229 529.594 34.7969C529.911 34.7637 530.167 34.733 530.361 34.7045C530.555 34.6738 530.696 34.6288 530.783 34.5696C530.871 34.5104 530.915 34.4228 530.915 34.3068V34.2855C530.915 34.0606 530.844 33.8866 530.702 33.7635C530.562 33.6404 530.363 33.5788 530.105 33.5788C529.833 33.5788 529.616 33.6392 529.455 33.7599C529.294 33.8783 529.188 34.0275 529.136 34.2074L527.737 34.0938C527.808 33.7623 527.947 33.4759 528.156 33.2344C528.364 32.9905 528.633 32.8035 528.962 32.6733C529.293 32.5407 529.677 32.4744 530.112 32.4744C530.415 32.4744 530.705 32.5099 530.982 32.581C531.262 32.652 531.509 32.7621 531.724 32.9112C531.942 33.0604 532.114 33.2521 532.239 33.4865C532.365 33.7185 532.428 33.9967 532.428 34.321V38H530.993V37.2436H530.95C530.863 37.4141 530.746 37.5644 530.599 37.6946C530.452 37.8224 530.276 37.9231 530.07 37.9964C529.864 38.0675 529.626 38.103 529.356 38.103ZM529.789 37.0589C530.012 37.0589 530.208 37.0152 530.379 36.9276C530.549 36.8376 530.683 36.7169 530.78 36.5653C530.877 36.4138 530.925 36.2422 530.925 36.0504V35.4716C530.878 35.5024 530.813 35.5308 530.73 35.5568C530.65 35.5805 530.559 35.603 530.457 35.6243C530.355 35.6432 530.253 35.661 530.151 35.6776C530.05 35.6918 529.957 35.7048 529.874 35.7166C529.697 35.7427 529.542 35.7841 529.409 35.8409C529.277 35.8977 529.174 35.9747 529.1 36.0717C529.027 36.1664 528.99 36.2848 528.99 36.4268C528.99 36.6328 529.065 36.7902 529.214 36.8991C529.365 37.0057 529.557 37.0589 529.789 37.0589ZM534.34 40.0455C534.148 40.0455 533.968 40.0301 533.8 39.9993C533.634 39.9709 533.497 39.9342 533.388 39.8892L533.729 38.7599C533.907 38.8144 534.066 38.844 534.208 38.8487C534.353 38.8535 534.477 38.8203 534.581 38.7493C534.688 38.6783 534.774 38.5575 534.841 38.3871L534.929 38.1562L532.973 32.5455H534.564L535.693 36.5511H535.75L536.89 32.5455H538.491L536.371 38.5895C536.269 38.883 536.131 39.1387 535.956 39.3565C535.783 39.5767 535.564 39.746 535.299 39.8643C535.034 39.9851 534.714 40.0455 534.34 40.0455Z" fill="black"/>
<defs>
<linearGradient id="paint0_linear_1091_171" x1="321.641" y1="119" x2="318.007" y2="205.676" gradientUnits="userSpaceOnUse">
<stop stop-color="#E3FADC"/>
<stop offset="1" stop-color="white" stop-opacity="0"/>
</linearGradient>
<linearGradient id="paint1_linear_1091_171" x1="313.607" y1="156.5" x2="313.272" y2="273.001" gradientUnits="userSpaceOnUse">
<stop stop-color="#609EF0"/>
<stop offset="1" stop-color="white" stop-opacity="0"/>
</linearGradient>
</defs>
</svg>
