<svg width="40" height="40" viewBox="0 0 40 40" fill="none" xmlns="http://www.w3.org/2000/svg">
<path d="M9.76237 29.0853C9.24754 28.7988 8.84407 28.4123 8.55196 27.9257C8.25983 27.4391 8.11377 26.8934 8.11377 26.2884V18.7136L4.62856 16.7863C4.34204 16.6229 4.13164 16.4241 3.99734 16.1899C3.86305 15.9557 3.7959 15.6955 3.7959 15.4092C3.7959 15.123 3.86305 14.863 3.99734 14.6291C4.13164 14.3951 4.34204 14.1965 4.62856 14.0331L17.9593 6.76976C18.196 6.63817 18.4397 6.5416 18.6905 6.48006C18.9412 6.41848 19.1986 6.3877 19.4626 6.3877C19.7266 6.3877 19.984 6.41848 20.2348 6.48006C20.4855 6.5416 20.7295 6.63803 20.9666 6.76932L36.0225 14.9631C36.2911 15.1086 36.497 15.3054 36.6403 15.5535C36.7836 15.8016 36.8552 16.0693 36.8552 16.3565V26.6578C36.8552 27.0288 36.7296 27.3398 36.4786 27.5908C36.2275 27.8418 35.9163 27.9672 35.5452 27.9672C35.174 27.9672 34.863 27.8418 34.6123 27.5908C34.3616 27.3398 34.2363 27.0288 34.2363 26.6578V16.8602L30.8115 18.7136V26.2884C30.8115 26.8934 30.6654 27.4391 30.3733 27.9257C30.0812 28.4123 29.6777 28.7988 29.1629 29.0853L20.9702 33.5141C20.7307 33.6484 20.4855 33.7463 20.2348 33.8079C19.984 33.8694 19.7266 33.9002 19.4626 33.9002C19.1986 33.9002 18.9412 33.8694 18.6905 33.8079C18.4397 33.7463 18.1946 33.6484 17.9551 33.5141L9.76237 29.0853ZM19.2611 21.7691C19.3395 21.8139 19.4095 21.8363 19.471 21.8363C19.5326 21.8363 19.6025 21.8139 19.6809 21.7691L31.4058 15.4097L19.6809 9.06708C19.6025 9.0223 19.5326 8.99991 19.471 8.99991C19.4095 8.99991 19.3395 9.0223 19.2611 9.06708L7.51943 15.4097L19.2611 21.7691ZM19.2444 31.2477C19.3227 31.2925 19.3955 31.3149 19.4626 31.3149C19.5298 31.3149 19.6025 31.2925 19.6809 31.2477L27.9407 26.7854C28.0302 26.7294 28.0946 26.6651 28.1338 26.5923C28.173 26.5195 28.1926 26.4272 28.1926 26.3153V20.1104L20.9971 24.0623C20.7576 24.1966 20.5091 24.2946 20.2517 24.3561C19.9943 24.4177 19.7313 24.4484 19.4626 24.4484C19.194 24.4484 18.931 24.4177 18.6736 24.3561C18.4162 24.2946 18.1677 24.1966 17.9282 24.0623L10.7327 20.1104V26.3153C10.7327 26.4048 10.7523 26.4916 10.7915 26.5755C10.8307 26.6595 10.895 26.7294 10.9846 26.7854L19.2444 31.2477Z" fill="#161971"/>
<path d="M31.876 14.3748L35.626 16.2498V28.1248" stroke="#FF6600" stroke-width="2.10526" stroke-linecap="round"/>
</svg>
