<svg width="40" height="40" viewBox="0 0 40 40" fill="none" xmlns="http://www.w3.org/2000/svg">
<path d="M19.833 37.9735C18.907 37.9735 18.1084 37.6527 17.4374 37.011C16.7664 36.3694 16.4015 35.5855 16.3427 34.6595H23.3233C23.2645 35.5855 22.8996 36.3694 22.2286 37.011C21.5576 37.6527 20.759 37.9735 19.833 37.9735ZM14.3331 32.121C13.943 32.121 13.6163 31.9894 13.353 31.7262C13.0898 31.4629 12.9582 31.1362 12.9582 30.7461C12.9582 30.356 13.0898 30.0293 13.353 29.766C13.6163 29.5028 13.943 29.3711 14.3331 29.3711H25.3329C25.723 29.3711 26.0497 29.5028 26.313 29.766C26.5762 30.0293 26.7078 30.356 26.7078 30.7461C26.7078 31.1362 26.5762 31.4629 26.313 31.7262C26.0497 31.9894 25.723 32.121 25.3329 32.121H14.3331ZM13.2402 26.8327C11.32 25.6387 9.7999 24.0787 8.67994 22.1526C7.55998 20.2264 7 18.1199 7 15.833C7 12.2605 8.24569 9.22849 10.7371 6.73708C13.2285 4.24569 16.2605 3 19.833 3C23.4055 3 26.4375 4.24569 28.9289 6.73708C31.4203 9.22849 32.666 12.2605 32.666 15.833C32.666 18.1199 32.106 20.2264 30.9861 22.1526C29.8661 24.0787 28.346 25.6387 26.4258 26.8327H13.2402ZM14.0581 24.0828H25.6079C26.9829 23.1051 28.0446 21.8982 28.7932 20.4621C29.5418 19.026 29.9161 17.483 29.9161 15.833C29.9161 13.022 28.9384 10.6387 26.9829 8.68316C25.0273 6.72765 22.6441 5.7499 19.833 5.7499C17.022 5.7499 14.6387 6.72765 12.6832 8.68316C10.7277 10.6387 9.74989 13.022 9.74989 15.833C9.74989 17.483 10.1242 19.026 10.8728 20.4621C11.6214 21.8982 12.6832 23.1051 14.0581 24.0828Z" fill="#161971"/>
<path d="M19.0056 22.8841H18.181L19.0056 17.1122H16.1196C15.394 17.1122 15.8475 16.4937 15.864 16.469C16.9277 14.589 18.5273 11.7855 20.663 8.04199H21.4875L20.663 13.8139H23.5572C23.887 13.8139 24.0684 13.9706 23.887 14.3581C20.63 20.0393 19.0056 22.8841 19.0056 22.8841Z" fill="#FF6600"/>
</svg>
