<svg width="40" height="40" viewBox="0 0 40 40" fill="none" xmlns="http://www.w3.org/2000/svg">
<g clip-path="url(#clip0_1080_476)">
<path d="M11.8907 14.7762H28.1086C28.4633 14.7762 28.7603 14.6566 28.9996 14.4173C29.2389 14.178 29.3586 13.881 29.3586 13.5263C29.3586 13.1716 29.1347 12.8746 28.6871 12.6353C28.2394 12.3959 27.8703 12.2763 27.5797 12.2763H11.8907C11.536 12.2763 11.239 12.3959 10.9997 12.6353C10.7604 12.8746 10.6407 13.1716 10.6407 13.5263C10.6407 13.881 10.7604 14.178 10.9997 14.4173C11.239 14.6566 11.536 14.7762 11.8907 14.7762ZM5.83301 35.4973V8.84682C5.83301 8.01563 6.12735 7.30569 6.71605 6.71703C7.30472 6.12833 8.01465 5.83398 8.84584 5.83398H31.1534C31.9846 5.83398 32.6946 6.12833 33.2832 6.71703C33.8719 7.30569 34.1663 8.01563 34.1663 8.84682V19.3628C33.7667 19.1876 33.3612 19.0407 32.9499 18.9221C32.5386 18.8035 32.1107 18.7132 31.6663 18.6513V8.84682C31.6663 8.7186 31.6129 8.60106 31.506 8.49419C31.3992 8.38736 31.2816 8.33394 31.1534 8.33394H8.84584C8.71762 8.33394 8.60008 8.38736 8.49322 8.49419C8.38638 8.60106 8.33297 8.7186 8.33297 8.84682V31.7506H18.6823C18.7892 32.4087 18.9457 33.0412 19.1519 33.648C19.3581 34.2548 19.6332 34.8307 19.9772 35.3755C19.8917 35.3926 19.802 35.3798 19.708 35.3371C19.6139 35.2943 19.5327 35.2388 19.4644 35.1704L18.115 34.0294C17.9697 33.9055 17.8073 33.8435 17.6278 33.8435C17.4484 33.8435 17.286 33.9055 17.1407 34.0294L15.7432 35.2025C15.5979 35.3264 15.4355 35.3884 15.256 35.3884C15.0766 35.3884 14.9142 35.3264 14.7689 35.2025L13.3715 34.0294C13.2262 33.9055 13.0638 33.8435 12.8843 33.8435C12.7048 33.8435 12.5424 33.9055 12.3971 34.0294L10.9997 35.2025C10.8544 35.3264 10.692 35.3884 10.5125 35.3884C10.333 35.3884 10.1706 35.3264 10.0253 35.2025L8.62788 34.0294C8.48258 33.9055 8.32019 33.8435 8.14072 33.8435C7.96122 33.8435 7.79883 33.9055 7.65355 34.0294L6.33622 35.2025C6.30416 35.2238 6.13642 35.3221 5.83301 35.4973ZM11.8907 27.7249H18.7946C18.8672 27.2805 18.9681 26.8526 19.0974 26.4413C19.2267 26.03 19.3843 25.6245 19.5702 25.225H11.8907C11.536 25.225 11.239 25.3446 10.9997 25.5839C10.7604 25.8233 10.6407 26.1202 10.6407 26.4749C10.6407 26.8296 10.7604 27.1266 10.9997 27.3659C11.239 27.6053 11.536 27.7249 11.8907 27.7249ZM11.8907 21.2506H22.6503C23.4495 20.522 24.3554 19.9365 25.3682 19.4942C26.381 19.0519 27.46 18.8041 28.6053 18.7507H11.8907C11.536 18.7507 11.239 18.8703 10.9997 19.1096C10.7604 19.3489 10.6407 19.6459 10.6407 20.0006C10.6407 20.3553 10.7604 20.6523 10.9997 20.8916C11.239 21.1309 11.536 21.2506 11.8907 21.2506Z" fill="#161971"/>
<path fill-rule="evenodd" clip-rule="evenodd" d="M30 40C35.5228 40 40 35.5228 40 30C40 24.4772 35.5228 20 30 20C24.4772 20 20 24.4772 20 30C20 35.5228 24.4772 40 30 40ZM26.9198 31.3099L30.0278 34.7747C30.0923 34.8473 30.1667 34.903 30.2509 34.9418C30.3351 34.9806 30.425 35 30.5205 35C30.8143 35 31.0206 34.8575 31.1395 34.5726C31.2583 34.2877 31.2162 34.0319 31.0132 33.8053L28.6751 31.2113H28.8763C29.5773 31.1914 30.1829 30.9412 30.6933 30.4606C31.2036 29.98 31.4994 29.3761 31.5807 28.6488H31.9471C32.1323 28.6488 32.2897 28.5809 32.4192 28.445C32.5488 28.3092 32.6136 28.1442 32.6136 27.95C32.6136 27.7559 32.5488 27.5909 32.4192 27.455C32.2897 27.3191 32.1323 27.2512 31.9471 27.2512H31.5211C31.4756 27.0987 31.409 26.9445 31.3216 26.7886C31.2341 26.6327 31.1459 26.5023 31.0569 26.3976H31.9471C32.1323 26.3976 32.2897 26.3297 32.4192 26.1938C32.5488 26.058 32.6136 25.893 32.6136 25.6988C32.6136 25.5047 32.5488 25.3397 32.4192 25.2038C32.2897 25.0679 32.1323 25 31.9471 25H26.9166C26.7314 25 26.574 25.0679 26.4444 25.2038C26.3148 25.3397 26.25 25.5047 26.25 25.6988C26.25 25.893 26.3148 26.058 26.4444 26.1938C26.574 26.3297 26.7314 26.3976 26.9166 26.3976H28.6772C28.982 26.3976 29.2653 26.4742 29.5272 26.6272C29.7891 26.7803 29.9819 26.9883 30.1055 27.2512H26.9166C26.7314 27.2512 26.574 27.3191 26.4444 27.455C26.3148 27.5909 26.25 27.7559 26.25 27.95C26.25 28.1442 26.3148 28.3092 26.4444 28.445C26.574 28.5809 26.7314 28.6488 26.9166 28.6488H30.2137C30.1419 28.9928 29.9683 29.2754 29.6929 29.4967C29.4175 29.7179 29.0955 29.8286 28.727 29.8286H27.3698C27.1989 29.8286 27.0533 29.8915 26.9332 30.0175C26.8131 30.1434 26.7531 30.296 26.7531 30.4752V30.8662C26.7531 30.9514 26.7668 31.032 26.7943 31.1078C26.8219 31.1837 26.8637 31.251 26.9198 31.3099Z" fill="#FF6600"/>
</g>
<defs>
<clipPath id="clip0_1080_476">
<rect width="40" height="40" fill="white"/>
</clipPath>
</defs>
</svg>
