<svg width="40" height="40" viewBox="0 0 40 40" fill="none" xmlns="http://www.w3.org/2000/svg">
<rect width="40" height="40" fill="white"/>
<path d="M6.20857 13.7073C6.09799 13.6159 6.03083 13.5017 6.00711 13.3647C5.98341 13.2277 6.01897 13.0841 6.11379 12.9339C7.72543 10.7314 9.71267 9.00497 12.0755 7.75456C14.4384 6.50412 16.9592 5.87891 19.638 5.87891C22.3453 5.87891 24.8995 6.47925 27.3003 7.67995C29.7012 8.88064 31.7006 10.6056 33.2984 12.8547C33.4386 13.0313 33.4816 13.1967 33.4273 13.351C33.373 13.5053 33.2787 13.6281 33.1443 13.7194C33.01 13.8108 32.8653 13.851 32.7102 13.8401C32.5551 13.8291 32.4193 13.7361 32.303 13.5611C30.8513 11.4622 29.0055 9.86009 26.7656 8.75479C24.5257 7.64949 22.1498 7.09684 19.638 7.09684C17.1474 7.09684 14.8011 7.65964 12.5989 8.78523C10.3967 9.91082 8.56679 11.5028 7.10921 13.5611C6.9749 13.758 6.8248 13.8595 6.65891 13.8656C6.49299 13.8717 6.34288 13.8189 6.20857 13.7073ZM24.0196 33.2827C21.4283 32.5966 19.2953 31.2457 17.6204 29.23C15.9456 27.2144 15.1082 24.7501 15.1082 21.8371C15.1082 20.5582 15.5605 19.4905 16.465 18.6339C17.3696 17.7772 18.4477 17.3489 19.6992 17.3489C20.9508 17.3489 22.0183 17.7772 22.9018 18.6339C23.7852 19.4905 24.227 20.5582 24.227 21.8371C24.227 22.7594 24.5647 23.5351 25.24 24.1639C25.9154 24.7928 26.7123 25.1072 27.6308 25.1072C28.5493 25.1072 29.3364 24.7901 29.9922 24.1557C30.6479 23.5214 30.9757 22.7485 30.9757 21.8371C30.9757 18.7244 29.8618 16.1081 27.6339 13.9883C25.4059 11.8685 22.7455 10.8086 19.6527 10.8086C16.5598 10.8086 13.9073 11.8715 11.6953 13.9973C9.48322 16.1232 8.37719 18.7334 8.37719 21.8279C8.37719 22.4714 8.44978 23.2758 8.59495 24.241C8.74012 25.2062 9.02106 26.3222 9.43778 27.5888C9.49506 27.7654 9.49358 27.9207 9.43335 28.0547C9.37311 28.1887 9.26004 28.2952 9.09412 28.3744C8.92823 28.4536 8.77369 28.4564 8.6305 28.383C8.4873 28.3096 8.38706 28.189 8.32978 28.0212C7.9249 26.9311 7.63407 25.8883 7.4573 24.8926C7.28054 23.8969 7.19217 22.8784 7.19217 21.8371C7.19217 18.3705 8.41658 15.4643 10.8654 13.1185C13.3142 10.7726 16.2389 9.59974 19.6393 9.59974C23.0651 9.59974 26.0085 10.7726 28.4694 13.1185C30.9303 15.4643 32.1608 18.3705 32.1608 21.8371C32.1608 23.1131 31.7223 24.1786 30.8452 25.0336C29.9682 25.8886 28.8998 26.3161 27.6399 26.3161C26.3897 26.3161 25.3108 25.8886 24.4032 25.0336C23.4957 24.1786 23.0419 23.1131 23.0419 21.8371C23.0419 20.9256 22.7128 20.1528 22.0547 19.5184C21.3965 18.8841 20.6106 18.5669 19.6972 18.5669C18.7676 18.5669 17.9679 18.8813 17.298 19.5102C16.6281 20.1391 16.2932 20.9147 16.2932 21.8371C16.2932 24.4575 17.0511 26.6457 18.567 28.4017C20.0828 30.1576 22.009 31.3787 24.3455 32.0648C24.5281 32.1249 24.6552 32.2251 24.7268 32.3655C24.7985 32.5058 24.8086 32.6561 24.7573 32.8165C24.7059 32.9568 24.623 33.0828 24.5084 33.1944C24.3939 33.306 24.2309 33.3355 24.0196 33.2827ZM15.8192 32.7894C14.3636 31.194 13.2264 29.5401 12.4078 27.8278C11.5891 26.1156 11.1798 24.1184 11.1798 21.836C11.1798 19.4759 12.0127 17.4915 13.6787 15.8828C15.3445 14.2741 17.3512 13.4698 19.6986 13.4698C22.046 13.4698 24.0552 14.2741 25.726 15.8828C27.3969 17.4915 28.2324 19.4763 28.2324 21.8371C28.2324 22.0198 28.1781 22.1669 28.0695 22.2786C27.9608 22.3902 27.8176 22.4461 27.6399 22.4461C27.4937 22.4461 27.3584 22.3902 27.234 22.2786C27.1096 22.1669 27.0474 22.0198 27.0474 21.8371C27.0474 19.8173 26.3203 18.1208 24.8661 16.7476C23.4119 15.3743 21.6892 14.6877 19.6979 14.6877C17.7066 14.6877 15.9866 15.3743 14.5379 16.7476C13.0892 18.1208 12.3648 19.8165 12.3648 21.8347C12.3648 24.0144 12.7341 25.8548 13.4728 27.3559C14.2115 28.857 15.2741 30.378 16.6606 31.9189C16.8146 32.0811 16.8768 32.2424 16.8472 32.4028C16.8176 32.5631 16.7554 32.692 16.6606 32.7895C16.546 32.9072 16.4107 32.9711 16.2547 32.9813C16.0986 32.9914 15.9535 32.9275 15.8192 32.7894ZM27.3318 30.0369C25.1059 30.0369 23.1669 29.2597 21.5147 27.7052C19.8626 26.1507 19.0365 24.1947 19.0365 21.8371C19.0365 21.6747 19.0903 21.5326 19.1978 21.4108C19.3053 21.289 19.447 21.2281 19.6229 21.2281C19.7988 21.2281 19.9426 21.289 20.0542 21.4108C20.1658 21.5326 20.2216 21.6747 20.2216 21.8371C20.2216 23.8786 20.9296 25.5526 22.3457 26.8591C23.7619 28.1657 25.4239 28.819 27.3318 28.819C27.5846 28.819 27.8522 28.8058 28.1346 28.7794C28.4171 28.753 28.7025 28.7134 28.9908 28.6606C29.1429 28.6281 29.2727 28.651 29.3804 28.7291C29.488 28.8073 29.5675 28.9368 29.6189 29.1175C29.6702 29.2783 29.6416 29.4189 29.533 29.5394C29.4243 29.66 29.2871 29.7466 29.1211 29.7994C28.8367 29.8704 28.5311 29.9278 28.2043 29.9714C27.8774 30.0151 27.5866 30.0369 27.3318 30.0369Z" fill="#161971"/>
<path d="M10.584 5.53356C10.74 5.57924 10.8713 5.56656 10.978 5.49552C12.3467 4.77083 13.7598 4.21007 15.2174 3.81323C16.675 3.41637 18.1634 3.21794 19.6824 3.21794C21.2277 3.21794 22.7402 3.40419 24.22 3.7767C25.6998 4.14918 27.1102 4.72212 28.4513 5.49552C28.6093 5.58685 28.7633 5.60005 28.9134 5.5351C29.0635 5.47013 29.1672 5.3656 29.2245 5.22149C29.2818 5.07735 29.2961 4.92815 29.2675 4.77388C29.2388 4.61961 29.1188 4.48665 28.9075 4.375C27.4672 3.60972 25.9763 3.02257 24.4348 2.61354C22.8934 2.20451 21.3141 2 19.6968 2C18.0793 2 16.4874 2.20604 14.9212 2.61813C13.355 3.03019 11.8628 3.64221 10.4447 4.45416C10.2986 4.54552 10.2146 4.66174 10.1929 4.80281C10.1712 4.94389 10.1919 5.08953 10.2551 5.23973C10.3183 5.38997 10.4279 5.48791 10.584 5.53356Z" fill="#FF6600"/>
<path d="M28.8828 33.6832C28.7268 33.6376 28.5955 33.6502 28.4888 33.7213C27.1201 34.446 25.707 35.0067 24.2494 35.4036C22.7918 35.8004 21.3034 35.9989 19.7844 35.9989C18.2391 35.9989 16.7266 35.8126 15.2468 35.4401C13.767 35.0676 12.3566 34.4947 11.0155 33.7213C10.8575 33.6299 10.7035 33.6168 10.5534 33.6817C10.4033 33.7467 10.2996 33.8512 10.2423 33.9953C10.185 34.1394 10.1707 34.2887 10.1993 34.4429C10.228 34.5972 10.348 34.7301 10.5593 34.8418C11.9996 35.6071 13.4905 36.1942 15.032 36.6033C16.5734 37.0123 18.1527 37.2168 19.7699 37.2168C21.3875 37.2168 22.9794 37.0108 24.5456 36.5987C26.1118 36.1866 27.604 35.5746 29.0221 34.7626C29.1682 34.6713 29.2522 34.5551 29.2739 34.414C29.2956 34.2729 29.2749 34.1273 29.2117 33.9771C29.1485 33.8268 29.0389 33.7289 28.8828 33.6832Z" fill="#FF6600"/>
</svg>
