<svg width="40" height="40" viewBox="0 0 40 40" fill="none" xmlns="http://www.w3.org/2000/svg">
<rect width="40" height="40" fill="white"/>
<rect x="5" y="20.9563" width="30" height="11.7391" rx="1.02948" stroke="#161971" stroke-width="2.05896"/>
<circle cx="20.6517" cy="26.1736" r="2.6087" fill="#FF6600"/>
<rect x="9.06152" y="33.0303" width="2.6087" height="3.91304" rx="1.30435" fill="black"/>
<rect x="29.1484" y="33.0303" width="2.6087" height="3.91304" rx="1.30435" fill="black"/>
<rect x="15.458" y="18.4458" width="2.6087" height="10.5478" rx="1.30435" transform="rotate(-90 15.458 18.4458)" fill="black"/>
<rect x="19.3477" y="17.0432" width="2.6087" height="3.91304" rx="1.30435" fill="black"/>
<path d="M20.6514 14.4348C19.5343 14.4348 18.603 14.0174 17.8575 13.1825C17.112 12.3477 16.7393 11.3086 16.7393 10.0652C16.7393 9.51454 16.854 8.96208 17.0834 8.4078C17.3128 7.85353 17.5996 7.3216 17.9438 6.81203C18.2879 6.30245 18.6602 5.82312 19.0605 5.37404C19.4608 4.92495 19.8326 4.53425 20.1757 4.20193C20.2419 4.13353 20.3163 4.08277 20.3988 4.04966C20.4814 4.01655 20.5658 4 20.6523 4C20.7388 4 20.8232 4.01655 20.9058 4.04966C20.9883 4.08277 21.0627 4.13353 21.1289 4.20193C21.472 4.53425 21.8438 4.92495 22.2441 5.37404C22.6444 5.82312 23.0167 6.30245 23.3608 6.81203C23.705 7.3216 23.9918 7.85353 24.2212 8.4078C24.4506 8.96208 24.5653 9.51454 24.5653 10.0652C24.5653 11.3086 24.1923 12.3477 23.4462 13.1825C22.7001 14.0174 21.7685 14.4348 20.6514 14.4348Z" fill="#FF6600"/>
</svg>
