<svg width="40" height="40" viewBox="0 0 40 40" fill="none" xmlns="http://www.w3.org/2000/svg">
<path d="M34.653 35.4212H28.6618C28.292 35.4212 27.982 35.2961 27.7318 35.0458C27.4816 34.7955 27.3566 34.4853 27.3566 34.1153C27.3566 33.7453 27.4816 33.4354 27.7318 33.1855C27.982 32.9356 28.292 32.8106 28.6618 32.8106H34.653C34.8092 32.8106 34.9376 32.7604 35.038 32.66C35.1384 32.5595 35.1886 32.4312 35.1886 32.275V8.97995C35.1886 8.82374 35.1384 8.69542 35.038 8.595C34.9376 8.49458 34.8092 8.44437 34.653 8.44437H19.5246C19.3684 8.44437 19.2401 8.49458 19.1397 8.595C19.0392 8.69542 18.989 8.82374 18.989 8.97995V11.5672L16.3784 9.67952V8.92638C16.3784 8.08053 16.6824 7.35363 17.2903 6.74569C17.8983 6.13773 18.6252 5.83374 19.471 5.83374H34.653C35.5182 5.83374 36.2589 6.14181 36.875 6.75796C37.4912 7.37408 37.7992 8.11474 37.7992 8.97995V32.275C37.7992 33.1402 37.4912 33.8809 36.875 34.497C36.2589 35.1132 35.5182 35.4212 34.653 35.4212ZM4.39616 35.4212C3.53096 35.4212 2.79029 35.1132 2.17418 34.497C1.55806 33.8809 1.25 33.1402 1.25 32.275V20.9388C1.25 20.4256 1.36658 19.9419 1.59974 19.4878C1.8329 19.0338 2.15924 18.664 2.57874 18.3784L10.7454 12.5579C11.2984 12.1674 11.9041 11.9722 12.5626 11.9722C13.2209 11.9722 13.8268 12.1674 14.3802 12.5579L22.5469 18.3784C22.9664 18.664 23.2927 19.0338 23.5259 19.4878C23.7591 19.9419 23.8757 20.4256 23.8757 20.9388V32.275C23.8757 33.1402 23.5676 33.8809 22.9514 34.497C22.3353 35.1132 21.5947 35.4212 20.7295 35.4212H16.1107C15.6649 35.4212 15.2913 35.2705 14.9898 34.9689C14.6883 34.6674 14.5376 34.2938 14.5376 33.8481V27.1541H10.5881V33.8481C10.5881 34.2938 10.4373 34.6674 10.1358 34.9689C9.8343 35.2705 9.46068 35.4212 9.01496 35.4212H4.39616ZM3.86058 20.912V32.275C3.86058 32.4312 3.91079 32.5595 4.01122 32.66C4.11164 32.7604 4.23996 32.8106 4.39616 32.8106H7.97743V26.1166C7.97743 25.6709 8.1282 25.2973 8.42973 24.9958C8.73123 24.6943 9.10484 24.5435 9.55054 24.5435H15.5751C16.0208 24.5435 16.3944 24.6943 16.6959 24.9958C16.9974 25.2973 17.1482 25.6709 17.1482 26.1166V32.8106H20.7295C20.8857 32.8106 21.014 32.7604 21.1144 32.66C21.2148 32.5595 21.265 32.4312 21.265 32.275V20.912C21.265 20.8228 21.2455 20.7391 21.2065 20.6609C21.1674 20.5829 21.1088 20.5159 21.0307 20.4601L12.8641 14.7C12.7748 14.633 12.6744 14.5995 12.5628 14.5995C12.4512 14.5995 12.3508 14.633 12.2615 14.7L4.09489 20.4601C4.0168 20.5159 3.95822 20.5829 3.91915 20.6609C3.8801 20.7391 3.86058 20.8228 3.86058 20.912Z" fill="#161971"/>
<path d="M31.475 14.8078H28.5264V11.8591H31.475V14.8078Z" fill="#FF6600"/>
<path d="M31.475 21.4745H28.5264V18.5258H31.475V21.4745Z" fill="#FF6600"/>
<path d="M31.475 28.1411H28.5264V25.1925H31.475V28.1411Z" fill="#FF6600"/>
</svg>
