<svg width="40" height="40" viewBox="0 0 40 40" fill="none" xmlns="http://www.w3.org/2000/svg">
<path d="M19.3012 31.6375H11.616C11.1768 31.6375 10.8086 31.4889 10.5115 31.1918C10.2144 30.8947 10.0658 30.5265 10.0658 30.0873V17.9163H8.27157C7.91536 17.9163 7.67678 17.7525 7.55584 17.4248C7.43489 17.0972 7.51043 16.822 7.78245 16.5992L20.172 5.42218C20.4555 5.14073 20.8034 5 21.2158 5C21.6281 5 21.975 5.14073 22.2565 5.42218L27.9429 10.5676V7.14724C27.9429 6.94057 28.0204 6.75972 28.1754 6.6047C28.3305 6.44965 28.5113 6.37212 28.718 6.37212H31.1257C31.3324 6.37212 31.5133 6.44965 31.6683 6.6047C31.8233 6.75972 31.9009 6.94057 31.9009 7.14724V14.11L34.6483 16.597C34.9188 16.8322 34.9936 17.1109 34.8726 17.433C34.7517 17.7552 34.5131 17.9163 34.1569 17.9163H32.3627V30.0873C32.3627 30.5265 32.2141 30.8947 31.9169 31.1918C31.6198 31.4889 31.2517 31.6375 30.8124 31.6375H23.1273V22.0063H19.3012V31.6375ZM12.6385 29.0648H16.7285V19.4336H25.7V29.0648H29.79V15.6866L21.2142 7.96846L12.6385 15.6866V29.0648Z" fill="#161971"/>
<path d="M24.8207 16.3416H17.6777C17.6777 15.3991 18.0349 14.626 18.7492 14.0222C19.4635 13.4184 20.2969 13.1165 21.2492 13.1165C22.2016 13.1165 23.035 13.4189 23.7493 14.0238C24.4636 14.6287 24.8207 15.4013 24.8207 16.3416Z" fill="#FF6600"/>
</svg>
