<svg width="40" height="40" viewBox="0 0 40 40" fill="none" xmlns="http://www.w3.org/2000/svg">
<path d="M20 35.618C19.8269 35.618 19.657 35.6041 19.4903 35.5763C19.3237 35.5485 19.1622 35.5069 19.006 35.4513C15.4913 34.2013 12.695 31.985 10.617 28.8023C8.539 25.6196 7.5 22.1853 7.5 18.4994V10.9931C7.5 10.36 7.68203 9.79021 8.04608 9.28374C8.41014 8.77727 8.88089 8.41009 9.45833 8.1822L18.9455 4.64053C19.3023 4.51234 19.6538 4.44824 20 4.44824C20.3461 4.44824 20.6976 4.51234 21.0544 4.64053L30.5416 8.1822C31.119 8.41009 31.5898 8.77727 31.9538 9.28374C32.3179 9.79021 32.4999 10.36 32.4999 10.9931V18.4994C32.4999 22.1853 31.4609 25.6196 29.3829 28.8023C27.3049 31.985 24.5086 34.2013 20.9939 35.4513C20.8377 35.5069 20.6762 35.5485 20.5096 35.5763C20.3429 35.6041 20.173 35.618 20 35.618ZM20 33.1661C22.8888 32.2494 25.2777 30.4161 27.1666 27.6661C29.0555 24.9161 30 21.8606 30 18.4994V10.977C30 10.8702 29.9706 10.774 29.9118 10.6886C29.853 10.6031 29.7702 10.539 29.6634 10.4962L20.1762 6.95457C20.1228 6.93321 20.0641 6.92253 20 6.92253C19.9358 6.92253 19.8771 6.93321 19.8237 6.95457L10.3365 10.4962C10.2297 10.539 10.1469 10.6031 10.0881 10.6886C10.0293 10.774 9.99996 10.8702 9.99996 10.977V18.4994C9.99996 21.8606 10.9444 24.9161 12.8333 27.6661C14.7222 30.4161 17.1111 32.2494 20 33.1661Z" fill="#161971"/>
<path d="M17.9167 24.1504V21.2498H15.016C14.6573 21.2498 14.3566 21.1284 14.114 20.8858C13.8713 20.6432 13.75 20.3425 13.75 19.9838V18.3492C13.75 17.9838 13.8713 17.6814 14.114 17.4421C14.3566 17.2028 14.6573 17.0832 15.016 17.0832H17.9167V14.1825C17.9167 13.8171 18.038 13.5148 18.2806 13.2755C18.5233 13.0362 18.8239 12.9165 19.1827 12.9165H20.8173C21.1826 12.9165 21.485 13.0362 21.7243 13.2755C21.9636 13.5148 22.0833 13.8171 22.0833 14.1825V17.0832H24.9839C25.3493 17.0832 25.6517 17.2028 25.891 17.4421C26.1303 17.6814 26.2499 17.9838 26.2499 18.3492V19.9838C26.2499 20.3425 26.1303 20.6432 25.891 20.8858C25.6517 21.1284 25.3493 21.2498 24.9839 21.2498H22.0833V24.1504C22.0833 24.5091 21.9636 24.8098 21.7243 25.0525C21.485 25.2951 21.1826 25.4164 20.8173 25.4164H19.1827C18.8239 25.4164 18.5233 25.2951 18.2806 25.0525C18.038 24.8098 17.9167 24.5091 17.9167 24.1504Z" fill="#FF6600"/>
</svg>
