<svg width="40" height="40" viewBox="0 0 40 40" fill="none" xmlns="http://www.w3.org/2000/svg">
<rect width="40" height="40" fill="white"/>
<path d="M5 10.5449V31.9997C5 33.1043 5.89543 33.9997 7 33.9997H33C34.1046 33.9997 35 33.1043 35 31.9997V10.5449C35 9.44035 34.1046 8.54492 33 8.54492H7C5.89543 8.54492 5 9.44035 5 10.5449Z" stroke="#161971" stroke-width="2"/>
<path d="M10.2158 8C10.2158 6.89543 11.1113 6 12.2158 6H16.0419C17.1465 6 18.0419 6.89543 18.0419 8V19.2729C18.0419 20.3775 17.1465 21.2729 16.0419 21.2729H12.2158C11.1113 21.2729 10.2158 20.3775 10.2158 19.2729V8Z" fill="white" stroke="#161971" stroke-width="2"/>
<ellipse cx="23.2614" cy="21.273" rx="1.30435" ry="1.27274" fill="#FF6600"/>
<ellipse cx="23.2614" cy="26.3643" rx="1.30435" ry="1.27274" fill="#FF6600"/>
<path d="M22.6094 14.9089H28.4789" stroke="#161971" stroke-width="2" stroke-linecap="round"/>
<ellipse cx="28.4792" cy="21.273" rx="1.30435" ry="1.27274" fill="#FF6600"/>
<ellipse cx="28.4792" cy="26.3643" rx="1.30435" ry="1.27274" fill="#FF6600"/>
</svg>
