<svg width="40" height="40" viewBox="0 0 40 40" fill="none" xmlns="http://www.w3.org/2000/svg">
<path d="M12.5013 5.83398C13.9564 5.83398 15.3314 6.17428 16.6263 6.85486C17.9211 7.53542 19.0461 8.51137 20.0013 9.78273C20.9564 8.51137 22.0814 7.53542 23.3763 6.85486C24.6711 6.17428 26.0461 5.83398 27.5013 5.83398C29.8666 5.83398 31.8468 6.63153 33.4419 8.22661C35.037 9.82169 35.8346 11.8019 35.8346 14.1673C35.8346 14.3275 35.8276 14.4824 35.8137 14.632C35.7998 14.7816 35.7875 14.9365 35.7768 15.0968H33.2769C33.3047 14.9365 33.3212 14.7816 33.3266 14.632C33.3319 14.4824 33.3346 14.3275 33.3346 14.1673C33.3346 12.5006 32.779 11.1117 31.6679 10.0006C30.5568 8.8895 29.1679 8.33394 27.5013 8.33394C26.185 8.33394 24.9687 8.70735 23.8522 9.45415C22.7358 10.2009 21.8517 11.2399 21.2 12.5712H18.8026C18.1402 11.2293 17.2534 10.1876 16.1423 9.44611C15.0312 8.70467 13.8175 8.33394 12.5013 8.33394C10.8453 8.33394 9.45907 8.8895 8.34259 10.0006C7.22615 11.1117 6.66793 12.5006 6.66793 14.1673C6.66793 14.3275 6.67059 14.4824 6.67593 14.632C6.68129 14.7816 6.69786 14.9365 6.72564 15.0968H4.22568C4.21498 14.9365 4.20269 14.7816 4.1888 14.632C4.17491 14.4824 4.16797 14.3275 4.16797 14.1673C4.16797 11.8019 4.96551 9.82169 6.56059 8.22661C8.15568 6.63153 10.1359 5.83398 12.5013 5.83398ZM20.0013 33.5134C19.6551 33.5134 19.317 33.4466 18.9868 33.313C18.6567 33.1795 18.3549 32.9813 18.0814 32.7185C17.3934 32.0818 16.6418 31.3852 15.8266 30.6288C15.0115 29.8724 14.2235 29.1277 13.4628 28.3948C12.7022 27.6619 12.0035 26.9867 11.3667 26.3692C10.73 25.7517 10.2492 25.2634 9.92443 24.9044H13.4211C14.31 25.7762 15.2929 26.7202 16.3698 27.7362C17.4468 28.7522 18.6572 29.8681 20.0013 31.0839C21.3453 29.8681 22.5558 28.7522 23.6327 27.7362C24.7096 26.7202 25.6925 25.7762 26.5814 24.9044H30.1038C29.779 25.2634 29.2982 25.7517 28.6615 26.3692C28.0247 26.9867 27.3233 27.6646 26.5573 28.4028C25.7913 29.1411 25.0017 29.8884 24.1887 30.6448C23.3757 31.4012 22.6252 32.0924 21.9371 32.7185C21.6636 32.992 21.3618 33.1928 21.0317 33.3211C20.7016 33.4493 20.3581 33.5134 20.0013 33.5134Z" fill="#161971"/>
<path d="M18.8333 26.6665C19.0983 26.6665 19.3253 26.5891 19.5144 26.4342C19.7035 26.2793 19.8429 26.0779 19.9327 25.83L22.4551 18.237L24.2981 20.9967C24.437 21.1975 24.6154 21.3594 24.8333 21.4822C25.0513 21.6051 25.2885 21.6665 25.5449 21.6665H37.0833C37.438 21.6665 37.735 21.5469 37.9743 21.3076C38.2136 21.0683 38.3333 20.7713 38.3333 20.4166C38.3333 20.0619 38.2136 19.7649 37.9743 19.5256C37.735 19.2863 37.438 19.1666 37.0833 19.1666H26.1025L23.1314 14.7403C23.0075 14.5544 22.8456 14.415 22.6458 14.322C22.446 14.2291 22.2308 14.1826 22 14.1826C21.7351 14.1826 21.5054 14.2601 21.3109 14.415C21.1165 14.5699 20.9797 14.7713 20.9007 15.0192L18.3782 22.6025L16.5288 19.8365C16.3899 19.6356 16.2115 19.4738 15.9936 19.3509C15.7756 19.228 15.5385 19.1666 15.282 19.1666H3.75C3.39531 19.1666 3.09831 19.2863 2.859 19.5256C2.61969 19.7649 2.50003 20.0619 2.5 20.4166C2.5 20.7713 2.61965 21.0683 2.85896 21.3076C3.09826 21.5469 3.39528 21.6665 3.75 21.6665H14.6987L17.6859 26.1089C17.8099 26.3054 17.9744 26.4475 18.1795 26.5352C18.3846 26.6227 18.6026 26.6665 18.8333 26.6665Z" fill="#FF6600"/>
</svg>
