<svg width="40" height="40" viewBox="0 0 40 40" fill="none" xmlns="http://www.w3.org/2000/svg">
<rect width="40" height="40" fill="white"/>
<circle cx="25.2148" cy="13" r="10" stroke="#FF6600" stroke-width="2"/>
<path d="M22 8.07422H25.4998M28.9996 8.07422H25.4998M25.4998 8.07422C26.6664 8.34927 27.8944 9.31197 27.8944 10.9623C27.8944 14.263 22.3684 13.8504 22.7368 14.263L27.1576 18.8014" stroke="#161971" stroke-width="2" stroke-linecap="round"/>
<path d="M22 11L28.9996 11" stroke="#161971" stroke-width="2" stroke-linecap="round"/>
<path d="M19.9707 37.4374L9.49983 34.3013V36.133H4V24.6104H12.7627L21.0759 27.7519C21.5677 27.9439 21.9912 28.2891 22.3464 28.7873C22.7016 29.2855 22.8792 29.9224 22.8792 30.6978H27.0041C27.8326 30.6978 28.4716 30.9967 28.9211 31.5946C29.3706 32.1925 29.5954 32.9806 29.5954 33.9589V34.3394L19.9707 37.4374ZM5.37492 34.7198H8.12484V26.0235H5.37492V34.7198ZM19.9019 35.9373L28.1358 33.323C28.1199 32.9552 28.0093 32.6612 27.804 32.4411C27.5986 32.221 27.332 32.1109 27.0041 32.1109H20.563C19.9407 32.1109 19.3255 32.0684 18.7173 31.9832C18.1092 31.898 17.5521 31.7649 17.0462 31.5837L14.3835 30.6815L14.8833 29.3009L17.4746 30.2195C17.9399 30.397 18.4652 30.5211 19.0505 30.5918C19.6357 30.6625 20.4536 30.6978 21.5042 30.6978C21.5042 30.2575 21.4254 29.9015 21.2676 29.6298C21.1098 29.358 20.8838 29.1687 20.5894 29.0618L12.5459 26.0235H9.49983V32.8175L19.9019 35.9373Z" fill="#161971"/>
</svg>
