<svg width="150" height="36" viewBox="0 0 150 36" fill="none" xmlns="http://www.w3.org/2000/svg">
    <g clip-path="url(#z81ftrizea)">
        <path d="M32.402 9.3c-.057-.628-.312-1.117-.763-1.465-.445-.354-1.082-.531-1.91-.531-.549 0-1.006.071-1.371.214-.366.143-.64.34-.823.591a1.427 1.427 0 0 0-.283.848c-.011.263.04.494.155.694.12.2.29.377.514.531.228.149.502.28.822.395.32.114.68.214 1.08.3l1.508.342c.868.189 1.633.44 2.296.754.668.314 1.228.689 1.68 1.123.456.434.802.934 1.036 1.499.234.566.354 1.2.36 1.902-.006 1.108-.286 2.06-.84 2.853-.554.794-1.35 1.403-2.39 1.825-1.034.423-2.282.634-3.745.634-1.468 0-2.747-.22-3.838-.66-1.091-.44-1.94-1.108-2.545-2.004-.605-.897-.916-2.03-.934-3.402h4.062c.034.566.185 1.037.454 1.414a2.49 2.49 0 0 0 1.105.857c.474.194 1.022.291 1.645.291.571 0 1.057-.077 1.457-.231.405-.155.716-.369.934-.643.217-.274.328-.588.334-.942a1.298 1.298 0 0 0-.309-.849c-.2-.24-.508-.445-.925-.617-.411-.177-.937-.34-1.577-.488l-1.833-.428c-1.52-.349-2.716-.911-3.59-1.688-.874-.783-1.308-1.84-1.303-3.17-.005-1.086.286-2.037.874-2.854.589-.816 1.403-1.453 2.442-1.91 1.04-.457 2.225-.686 3.556-.686 1.36 0 2.539.232 3.539.694 1.005.457 1.785 1.1 2.339 1.928.554.828.837 1.788.848 2.879h-4.061zM44.997 21.835c-1.377 0-2.565-.271-3.565-.814a5.63 5.63 0 0 1-2.296-2.34c-.531-1.016-.797-2.224-.797-3.624 0-1.359.269-2.547.806-3.564a5.815 5.815 0 0 1 2.27-2.382c.977-.571 2.128-.857 3.453-.857.937 0 1.794.146 2.57.437a5.525 5.525 0 0 1 2.014 1.294c.566.571 1.005 1.277 1.32 2.117.314.833.47 1.79.47 2.87v1.045H39.805v-2.433h7.54a2.361 2.361 0 0 0-.317-1.191 2.154 2.154 0 0 0-.848-.814 2.45 2.45 0 0 0-1.225-.3 2.5 2.5 0 0 0-1.26.317 2.331 2.331 0 0 0-.882.848 2.383 2.383 0 0 0-.343 1.208v2.476c0 .537.106 1.009.317 1.414.212.4.511.711.9.934.388.223.85.334 1.388.334.371 0 .708-.051 1.01-.154.304-.103.563-.254.78-.454.218-.2.38-.446.489-.737l3.847.111a4.761 4.761 0 0 1-1.054 2.254c-.537.634-1.242 1.128-2.116 1.482-.874.348-1.885.523-3.033.523zM65.796 8.426l-4.516 13.16h-4.798l-4.507-13.16h4.413l2.425 9.065h.137l2.433-9.065h4.413zM73.13 21.835c-1.377 0-2.565-.271-3.564-.814a5.632 5.632 0 0 1-2.297-2.34c-.53-1.016-.796-2.224-.796-3.624 0-1.359.268-2.547.805-3.564a5.815 5.815 0 0 1 2.27-2.382c.977-.571 2.128-.857 3.453-.857.937 0 1.794.146 2.571.437a5.524 5.524 0 0 1 2.013 1.294c.566.571 1.006 1.277 1.32 2.117.314.833.471 1.79.471 2.87v1.045H67.938v-2.433h7.54a2.358 2.358 0 0 0-.317-1.191 2.158 2.158 0 0 0-.848-.814c-.355-.2-.763-.3-1.226-.3-.468 0-.888.106-1.26.317a2.381 2.381 0 0 0-1.225 2.056v2.476c0 .537.106 1.009.317 1.414.212.4.512.711.9.934.388.223.851.334 1.388.334.372 0 .708-.051 1.011-.154.303-.103.563-.254.78-.454.217-.2.38-.446.488-.737l3.847.111a4.76 4.76 0 0 1-1.054 2.254c-.536.634-1.242 1.128-2.116 1.482-.874.348-1.885.523-3.033.523zM85.706 14.08v7.506h-4.19V8.426H85.5v2.416h.146a3.694 3.694 0 0 1 1.49-1.894c.703-.462 1.54-.694 2.511-.694.925 0 1.727.209 2.407.626a4.17 4.17 0 0 1 1.594 1.73c.383.738.571 1.6.566 2.588v8.388h-4.19v-7.565c.006-.732-.18-1.303-.557-1.714-.371-.411-.888-.617-1.551-.617-.44 0-.828.097-1.165.292a1.93 1.93 0 0 0-.771.814c-.178.354-.269.782-.274 1.285zM96.808 26.521V8.427h4.147v2.253h.128c.172-.4.414-.785.728-1.157a3.66 3.66 0 0 1 1.217-.908c.497-.24 1.091-.36 1.782-.36.914 0 1.768.24 2.562.72.8.48 1.445 1.22 1.937 2.22.491.999.736 2.273.736 3.82 0 1.492-.236 2.74-.711 3.745-.468 1.005-1.102 1.76-1.902 2.262a4.848 4.848 0 0 1-2.647.754c-.663 0-1.237-.109-1.722-.326a3.755 3.755 0 0 1-1.226-.857 4.104 4.104 0 0 1-.754-1.14h-.086v7.07h-4.19zm4.104-11.515c0 .708.094 1.325.283 1.85.194.526.471.935.831 1.226.365.285.802.428 1.311.428.514 0 .951-.143 1.31-.428.36-.291.632-.7.814-1.225.189-.526.283-1.143.283-1.851s-.094-1.322-.283-1.842c-.182-.52-.454-.923-.814-1.208-.354-.286-.79-.429-1.31-.429-.514 0-.952.14-1.311.42-.36.28-.637.68-.831 1.2-.189.52-.283 1.14-.283 1.859zM115.951 21.81c-.84 0-1.585-.14-2.236-.42a3.482 3.482 0 0 1-1.534-1.286c-.371-.577-.557-1.3-.557-2.168 0-.73.129-1.348.385-1.85a3.306 3.306 0 0 1 1.063-1.226 4.996 4.996 0 0 1 1.559-.71 10.141 10.141 0 0 1 1.886-.335c.748-.069 1.35-.14 1.807-.214.457-.08.789-.192.994-.334a.721.721 0 0 0 .317-.626v-.043c0-.44-.151-.78-.454-1.02-.302-.24-.711-.36-1.225-.36-.554 0-1 .12-1.337.36-.337.24-.551.572-.642.995l-3.864-.137c.114-.8.408-1.514.882-2.142.48-.634 1.136-1.131 1.97-1.491.84-.366 1.848-.549 3.025-.549.84 0 1.614.1 2.322.3.709.194 1.325.48 1.851.857.525.371.931.828 1.216 1.371.292.543.438 1.162.438 1.86v8.944h-3.942v-1.833h-.103a3.737 3.737 0 0 1-.899 1.13c-.36.31-.786.54-1.277.695a5.423 5.423 0 0 1-1.645.231zm1.294-2.743c.451 0 .856-.091 1.216-.274.366-.183.657-.434.874-.754.218-.326.326-.703.326-1.13v-1.252c-.12.063-.266.12-.437.171-.166.052-.349.1-.549.146-.2.046-.405.086-.616.12-.212.034-.414.066-.609.094-.394.063-.731.16-1.011.292a1.601 1.601 0 0 0-.634.514 1.265 1.265 0 0 0-.214.737c0 .434.154.765.463.993.314.23.711.343 1.191.343zM128.469 26.521c-.503 0-.977-.04-1.422-.12a5.723 5.723 0 0 1-1.148-.3l.925-3.041c.411.137.782.217 1.113.24.338.023.626-.032.866-.163.246-.126.434-.351.566-.677l.162-.394-4.678-13.64h4.387l2.425 9.39h.137l2.459-9.39h4.412l-4.96 14.42c-.24.72-.58 1.354-1.02 1.902a4.43 4.43 0 0 1-1.688 1.302c-.686.314-1.531.471-2.536.471z" fill="#161971"/>
        <path d="M9.46 9.858a3.245 3.245 0 1 1 5.247 3.82L7.162 24.043a3.245 3.245 0 1 1-5.247-3.82L9.46 9.859z" fill="#F60"/>
        <path d="M9.46 9.858a3.245 3.245 0 1 1 5.247 3.82L7.162 24.043a3.245 3.245 0 1 1-5.247-3.82L9.46 9.859z" fill="url(#fr4vup3cdb)"/>
        <path d="M12.805 7.921a3.036 3.036 0 0 1 0 6.073H3.036a3.036 3.036 0 0 1 0-6.073h9.77zM12.805 0a3.036 3.036 0 0 1 0 6.073H3.036a3.036 3.036 0 1 1 0-6.073h9.77z" fill="#F60"/>
        <path d="M9.46 9.858a3.245 3.245 0 1 1 5.247 3.82L7.162 24.043a3.245 3.245 0 1 1-5.247-3.82L9.46 9.859z" fill="#F60"/>
        <path d="M9.46 9.858a3.245 3.245 0 1 1 5.247 3.82L7.162 24.043a3.245 3.245 0 1 1-5.247-3.82L9.46 9.859z" fill="url(#xutvakuznc)"/>
        <path d="M12.805 7.921a3.036 3.036 0 0 1 0 6.073H3.036a3.036 3.036 0 0 1 0-6.073h9.77zM12.805 0a3.036 3.036 0 0 1 0 6.073H3.036a3.036 3.036 0 1 1 0-6.073h9.77z" fill="#F60"/>
        <path d="M23.86 34.12v-6.084h2.281c.468 0 .86.087 1.177.262.319.174.56.414.722.719.164.303.246.647.246 1.034 0 .39-.082.736-.246 1.04a1.762 1.762 0 0 1-.728.715c-.321.173-.716.259-1.186.259h-1.512v-.906h1.364c.273 0 .497-.048.671-.143a.899.899 0 0 0 .386-.392 1.24 1.24 0 0 0 .128-.573c0-.216-.043-.406-.128-.57a.867.867 0 0 0-.389-.384c-.174-.093-.399-.14-.674-.14h-1.01v5.164h-1.103zm7.261.09c-.445 0-.832-.098-1.159-.294a1.997 1.997 0 0 1-.76-.823c-.178-.353-.268-.765-.268-1.236s.09-.884.268-1.239c.18-.354.434-.63.76-.826.327-.196.714-.294 1.16-.294.445 0 .831.098 1.158.294.327.196.58.472.757.826.18.355.27.768.27 1.239 0 .471-.09.883-.27 1.236-.178.352-.43.627-.757.823-.327.196-.713.294-1.159.294zm.006-.861a.926.926 0 0 0 .606-.2 1.2 1.2 0 0 0 .363-.54c.08-.226.122-.478.122-.755 0-.28-.041-.532-.122-.758a1.2 1.2 0 0 0-.363-.543.917.917 0 0 0-.606-.202.943.943 0 0 0-.618.202 1.22 1.22 0 0 0-.365.543c-.08.226-.12.479-.12.758 0 .277.04.529.12.755.08.225.203.406.365.54.165.133.37.2.618.2zm3.905.772-1.29-4.564h1.097l.802 3.21h.041l.82-3.21h1.085l.82 3.191h.044l.79-3.19h1.1l-1.292 4.563h-1.12l-.856-3.084h-.063l-.855 3.084h-1.123zm7.95.089c-.458 0-.853-.095-1.186-.285a1.931 1.931 0 0 1-.764-.814c-.178-.353-.267-.768-.267-1.245 0-.47.09-.881.267-1.236a2.02 2.02 0 0 1 .755-.832c.323-.2.702-.3 1.138-.3.281 0 .547.046.796.137a1.8 1.8 0 0 1 .666.416c.194.188.346.427.457.719.111.289.167.633.167 1.034v.33h-3.74v-.726h2.709a1.158 1.158 0 0 0-.134-.55.972.972 0 0 0-.365-.383 1.027 1.027 0 0 0-.541-.14c-.22 0-.413.054-.58.161a1.106 1.106 0 0 0-.389.416c-.09.17-.137.358-.14.562v.633c0 .265.05.493.146.683.097.188.233.333.407.434.175.099.379.148.612.148.157 0 .298-.022.425-.065a.943.943 0 0 0 .33-.2.829.829 0 0 0 .21-.323l1.005.113a1.565 1.565 0 0 1-.362.695 1.77 1.77 0 0 1-.678.458c-.275.107-.59.16-.945.16zm2.938-.09v-4.563h1.043v.761h.048a1.138 1.138 0 0 1 1.126-.826c.06 0 .126.003.199.009.075.004.138.01.187.02v.99a1.134 1.134 0 0 0-.217-.041 2.004 2.004 0 0 0-.282-.021 1.09 1.09 0 0 0-.529.127.935.935 0 0 0-.365.348.979.979 0 0 0-.134.514v2.683H45.92zm5.15.09c-.458 0-.853-.095-1.185-.285a1.932 1.932 0 0 1-.764-.814c-.178-.353-.267-.768-.267-1.245 0-.47.089-.881.267-1.236.18-.357.432-.634.755-.832.322-.2.702-.3 1.138-.3.28 0 .546.046.796.137.251.089.473.227.665.416.194.188.347.427.458.719.11.289.166.633.166 1.034v.33h-3.74v-.726h2.71a1.157 1.157 0 0 0-.135-.55.971.971 0 0 0-.365-.383 1.028 1.028 0 0 0-.54-.14c-.22 0-.414.054-.58.161a1.106 1.106 0 0 0-.39.416c-.09.17-.137.358-.139.562v.633c0 .265.049.493.146.683.097.188.232.333.407.434.174.099.378.148.612.148.156 0 .298-.022.425-.065a.942.942 0 0 0 .33-.2.83.83 0 0 0 .21-.323l1.005.113a1.565 1.565 0 0 1-.363.695 1.77 1.77 0 0 1-.677.458c-.276.107-.59.16-.945.16zm4.632-.009c-.358 0-.679-.092-.962-.276a1.878 1.878 0 0 1-.672-.802c-.164-.35-.246-.777-.246-1.278 0-.507.083-.935.25-1.283.168-.35.395-.615.68-.794.285-.18.603-.27.953-.27.268 0 .488.046.66.137.172.089.309.197.41.323.101.125.18.243.235.354h.044v-2.276h1.079v6.085h-1.058v-.72h-.065c-.056.112-.136.23-.241.354a1.322 1.322 0 0 1-.416.315c-.172.088-.39.131-.65.131zm.3-.882a.93.93 0 0 0 .583-.184c.16-.125.282-.299.365-.52.083-.222.125-.48.125-.776 0-.295-.042-.551-.125-.77a1.096 1.096 0 0 0-.362-.507.938.938 0 0 0-.586-.182c-.24 0-.44.063-.6.188-.16.124-.28.297-.362.516a2.17 2.17 0 0 0-.122.755c0 .285.04.54.122.764.083.222.205.397.365.526.163.126.362.19.597.19zm5.4.802v-6.085h1.075v2.276h.045a1.98 1.98 0 0 1 .234-.354c.101-.126.238-.234.41-.323.173-.091.393-.137.66-.137.352 0 .67.09.954.27.285.179.51.443.677.794.168.348.253.776.253 1.283 0 .501-.083.927-.247 1.278-.164.35-.388.618-.672.802a1.726 1.726 0 0 1-.962.276c-.262 0-.479-.043-.65-.13a1.322 1.322 0 0 1-.417-.316 2.04 2.04 0 0 1-.24-.353h-.063v.719h-1.058zm1.054-2.282c0 .295.042.554.125.776.085.221.207.395.365.52a.93.93 0 0 0 .583.184.933.933 0 0 0 .597-.19c.16-.13.281-.304.362-.526a2.18 2.18 0 0 0 .125-.764c0-.283-.04-.535-.122-.755a1.134 1.134 0 0 0-.362-.516.948.948 0 0 0-.6-.188c-.23 0-.425.06-.586.182-.16.12-.282.29-.365.508a2.2 2.2 0 0 0-.122.77zm4.681 3.993a2.175 2.175 0 0 1-.701-.113l.25-.837c.156.045.296.067.418.065a.514.514 0 0 0 .324-.116c.095-.073.175-.196.24-.369l.093-.246-1.655-4.659h1.141l1.052 3.447h.047l1.055-3.447h1.144l-1.827 5.116a2.051 2.051 0 0 1-.34.621c-.14.175-.312.307-.516.399-.202.093-.444.14-.725.14zm6.275-1.711v-6.085h2.33c.439 0 .804.07 1.095.208.294.137.513.324.657.562.146.238.22.507.22.808 0 .247-.048.46-.143.636a1.198 1.198 0 0 1-.383.424c-.16.11-.34.188-.538.235v.06c.216.012.423.078.621.199.2.119.364.287.49.505.127.218.19.481.19.79 0 .315-.076.598-.229.85-.152.25-.381.446-.689.591-.306.145-.693.217-1.158.217h-2.463zm1.102-.921H75.7c.4 0 .689-.076.865-.229a.752.752 0 0 0 .268-.594.911.911 0 0 0-.514-.832 1.264 1.264 0 0 0-.59-.128h-1.214V33.2zm0-2.576h1.09c.19 0 .362-.035.514-.104a.803.803 0 0 0 .493-.764.754.754 0 0 0-.25-.582c-.164-.152-.408-.229-.733-.229h-1.114v1.679zm5.662 3.589c-.289 0-.55-.052-.781-.154a1.277 1.277 0 0 1-.547-.464c-.133-.204-.2-.456-.2-.755 0-.257.049-.47.144-.638.095-.169.224-.303.388-.404.165-.101.35-.178.556-.23.208-.053.423-.091.645-.115.267-.028.484-.052.65-.074a.965.965 0 0 0 .363-.107c.077-.05.116-.126.116-.23v-.017c0-.224-.066-.397-.2-.52-.132-.123-.323-.184-.573-.184-.263 0-.472.057-.626.172a.856.856 0 0 0-.31.407l-1.004-.142a1.615 1.615 0 0 1 1.061-1.117c.263-.095.554-.143.873-.143.22 0 .44.026.657.077.218.052.417.137.597.256.18.117.325.276.434.478.111.202.166.455.166.758v3.054h-1.033v-.627h-.036a1.306 1.306 0 0 1-.72.621 1.783 1.783 0 0 1-.62.098zm.28-.79c.215 0 .402-.043.56-.128a.943.943 0 0 0 .366-.345.876.876 0 0 0 .131-.466v-.538a.504.504 0 0 1-.173.077c-.079.024-.168.045-.267.063a8.47 8.47 0 0 1-.294.047l-.252.036c-.16.022-.305.057-.43.107a.714.714 0 0 0-.301.208.51.51 0 0 0-.11.339c0 .198.072.347.217.448a.942.942 0 0 0 .552.152zm4.287-1.976v2.674h-1.076v-4.564h1.028v.776h.054c.105-.256.272-.459.502-.61.231-.15.517-.225.858-.225.315 0 .59.067.823.202.236.135.418.33.547.585.13.256.195.566.192.93v2.906h-1.075v-2.74c0-.304-.08-.543-.237-.715-.157-.173-.374-.259-.651-.259-.188 0-.355.042-.502.125a.864.864 0 0 0-.342.354 1.191 1.191 0 0 0-.121.561zm5.003 1.242-.003-1.298h.172l1.64-1.834h1.256l-2.017 2.247h-.222l-.826.885zm-.98 1.432v-6.085h1.075v6.085h-1.076zm2.863 0-1.486-2.077.726-.757 2.047 2.834h-1.287zm1.9 0v-4.564h1.075v4.564H93.53zm.54-5.211a.63.63 0 0 1-.44-.17.547.547 0 0 1-.184-.413c0-.162.062-.3.184-.413a.624.624 0 0 1 .44-.172c.172 0 .32.058.44.172a.54.54 0 0 1 .184.413c0 .16-.061.298-.184.413a.621.621 0 0 1-.44.17zm3.952.647v.832h-2.697v-.832h2.697zm-2.023 4.564v-4.994c0-.307.063-.563.19-.767.129-.204.302-.356.517-.457.216-.101.455-.152.72-.152.186 0 .35.015.495.045.145.03.252.056.321.08l-.214.832a1.952 1.952 0 0 0-.172-.042 1.046 1.046 0 0 0-.232-.024c-.2 0-.342.049-.425.146-.081.095-.121.232-.121.41v4.923h-1.079zm3.534 1.711a2.17 2.17 0 0 1-.701-.113l.25-.837c.156.045.296.067.418.065a.513.513 0 0 0 .324-.116c.095-.073.175-.196.24-.369l.093-.246-1.655-4.659h1.141l1.052 3.447h.047l1.055-3.447h1.144l-1.828 5.116a2.037 2.037 0 0 1-.338.621 1.38 1.38 0 0 1-.517.399c-.202.093-.444.14-.725.14z" fill="#303030"/>
        <path fill-rule="evenodd" clip-rule="evenodd" d="M145.333 1.588a3.744 3.744 0 1 0 0 7.489 3.744 3.744 0 0 0 0-7.489zm-4.588 3.745a4.588 4.588 0 1 1 9.176 0 4.588 4.588 0 0 1-9.176 0z" fill="#303030"/>
        <path d="M143.713 7.333V2.97h1.721c.33 0 .611.059.844.177.234.116.413.282.535.496.123.213.185.464.185.752 0 .29-.063.54-.187.748a1.219 1.219 0 0 1-.544.477c-.236.111-.521.166-.856.166h-1.153v-.741h1.003c.177 0 .323-.024.44-.072a.529.529 0 0 0 .26-.218.689.689 0 0 0 .087-.36.717.717 0 0 0-.087-.366.545.545 0 0 0-.262-.226 1.08 1.08 0 0 0-.442-.079h-.622v3.61h-.922zm2.356-1.985 1.084 1.985h-1.018l-1.061-1.985h.995z" fill="#303030"/>
    </g>
    <defs>
        <linearGradient id="fr4vup3cdb" x1="10.844" y1="13.785" x2="2.629" y2="24.757" gradientUnits="userSpaceOnUse">
            <stop/>
            <stop offset="1" stop-opacity="0"/>
        </linearGradient>
        <linearGradient id="xutvakuznc" x1="10.844" y1="13.785" x2="2.629" y2="24.757" gradientUnits="userSpaceOnUse">
            <stop/>
            <stop offset="1" stop-opacity="0"/>
        </linearGradient>
        <clipPath id="z81ftrizea">
            <path fill="#fff" d="M0 0h150v36H0z"/>
        </clipPath>
    </defs>
</svg>
