<svg width="40" height="40" viewBox="0 0 40 40" fill="none" xmlns="http://www.w3.org/2000/svg">
<path d="M19.999 37.4999C16.749 37.4999 13.7998 36.6954 11.1512 35.0864C8.50274 33.4774 6.42529 31.3214 4.9189 28.6184V32.3396C4.9189 32.6943 4.79925 32.9913 4.55995 33.2306C4.32061 33.4699 4.0236 33.5896 3.6689 33.5896C3.31424 33.5896 3.01724 33.4699 2.7779 33.2306C2.5386 32.9913 2.41895 32.6943 2.41895 32.3396V25.9294C2.41895 25.4999 2.56264 25.1415 2.85003 24.8541C3.13742 24.5667 3.49586 24.423 3.92536 24.423H10.3356C10.6903 24.423 10.9873 24.5427 11.2266 24.782C11.4659 25.0213 11.5856 25.3183 11.5856 25.673C11.5856 26.0277 11.4659 26.3247 11.2266 26.564C10.9873 26.8033 10.6903 26.9229 10.3356 26.9229H6.85153C8.05667 29.3503 9.83765 31.3033 12.1945 32.782C14.5513 34.2606 17.1529 35 19.999 35C23.8729 35 27.217 33.7211 30.0311 31.1634C32.8452 28.6057 34.468 25.4134 34.8997 21.5865C34.9445 21.2382 35.0909 20.9562 35.3388 20.7404C35.5866 20.5246 35.8847 20.4167 36.233 20.4167C36.5877 20.4167 36.8863 20.5358 37.1288 20.774C37.3713 21.0123 37.4701 21.297 37.4252 21.6282C37.2201 23.8611 36.625 25.9396 35.64 27.8637C34.655 29.7878 33.3831 31.4641 31.8243 32.8925C30.2655 34.321 28.4771 35.446 26.4589 36.2675C24.4408 37.0891 22.2875 37.4999 19.999 37.4999ZM19.999 4.99996C16.1892 4.99996 12.8639 6.26011 10.0231 8.78042C7.18226 11.3007 5.54071 14.5063 5.0984 18.3974C5.05352 18.7457 4.90714 19.0304 4.65928 19.2515C4.41145 19.4727 4.11339 19.5833 3.76511 19.5833C3.39972 19.5833 3.09845 19.4641 2.86128 19.2259C2.62408 18.9877 2.52793 18.6976 2.57282 18.3557C2.79932 16.0801 3.4131 13.9775 4.41415 12.048C5.41521 10.1186 6.69513 8.44764 8.2539 7.03525C9.81265 5.62286 11.5958 4.51389 13.6032 3.70833C15.6107 2.90278 17.7426 2.5 19.999 2.5C23.217 2.5 26.1662 3.30717 28.8468 4.9215C31.5274 6.53583 33.6048 8.71054 35.0792 11.4456V7.66029C35.0792 7.3056 35.1988 7.0086 35.4381 6.76929C35.6774 6.52999 35.9744 6.41033 36.3291 6.41033C36.6838 6.41033 36.9808 6.52999 37.2202 6.76929C37.4595 7.0086 37.5791 7.3056 37.5791 7.66029V14.0705C37.5791 14.5 37.4354 14.8584 37.148 15.1458C36.8606 15.4332 36.5022 15.5769 36.0727 15.5769H29.6624C29.3078 15.5769 29.0108 15.4573 28.7714 15.218C28.5321 14.9787 28.4125 14.6817 28.4125 14.327C28.4125 13.9723 28.5321 13.6753 28.7714 13.436C29.0108 13.1967 29.3078 13.077 29.6624 13.077H33.1465C31.9734 10.6923 30.2058 8.75 27.8436 7.25C25.4814 5.74997 22.8666 4.99996 19.999 4.99996Z" fill="#161971"/>
<path d="M20.4759 26.0142L15.9709 21.2239C15.8895 21.1425 15.8289 21.0494 15.789 20.9445C15.7491 20.8396 15.7292 20.7282 15.7292 20.6104V20.0699C15.7292 19.8221 15.8162 19.6111 15.9903 19.437C16.1644 19.2629 16.3754 19.1758 16.6232 19.1758H18.5904C19.1246 19.1758 19.5913 19.0229 19.9904 18.7169C20.3896 18.411 20.6413 18.0203 20.7454 17.5448H15.9662C15.6977 17.5448 15.4696 17.4508 15.2818 17.263C15.0939 17.0751 15 16.847 15 16.5786C15 16.3102 15.0939 16.082 15.2818 15.8942C15.4696 15.7064 15.6977 15.6124 15.9662 15.6124H20.5884C20.4093 15.2489 20.1299 14.9614 19.7503 14.7497C19.3707 14.5381 18.96 14.4323 18.5182 14.4323H15.9662C15.6977 14.4323 15.4696 14.3384 15.2818 14.1505C15.0939 13.9627 15 13.7346 15 13.4661C15 13.1977 15.0939 12.9696 15.2818 12.7817C15.4696 12.5939 15.6977 12.5 15.9662 12.5H23.2578C23.5262 12.5 23.7544 12.5939 23.9422 12.7817C24.1301 12.9696 24.224 13.1977 24.224 13.4661C24.224 13.7346 24.1301 13.9627 23.9422 14.1505C23.7544 14.3384 23.5262 14.4323 23.2578 14.4323H21.9675C22.0965 14.5771 22.2243 14.7573 22.3511 14.9728C22.478 15.1884 22.5744 15.4016 22.6404 15.6124H23.2578C23.5262 15.6124 23.7544 15.7064 23.9422 15.8942C24.1301 16.082 24.224 16.3102 24.224 16.5786C24.224 16.847 24.1301 17.0751 23.9422 17.263C23.7544 17.4508 23.5262 17.5448 23.2578 17.5448H22.7268C22.609 18.5503 22.1802 19.3852 21.4405 20.0497C20.7007 20.7141 19.8228 21.0601 18.8068 21.0875H18.5151L21.9041 24.6739C22.1984 24.9873 22.2595 25.3409 22.0872 25.7348C21.915 26.1287 21.6159 26.3257 21.19 26.3257C21.0516 26.3257 20.9213 26.2988 20.7993 26.2452C20.6772 26.1916 20.5694 26.1146 20.4759 26.0142Z" fill="#FF6600"/>
</svg>
