<svg width="40" height="40" viewBox="0 0 40 40" fill="none" xmlns="http://www.w3.org/2000/svg">
<path d="M5.83299 35.83C5.14264 35.83 4.58301 35.2704 4.58301 34.58V34.58C4.58301 33.8897 5.14264 33.33 5.83299 33.33H7.91634V17.4967H6.88109C6.41059 17.4967 6.0168 17.3335 5.69972 17.0072C5.38263 16.6808 5.22409 16.2831 5.22409 15.814C5.22409 15.553 5.28369 15.3137 5.40288 15.0962C5.52208 14.8787 5.69004 14.6938 5.90676 14.5416L18.692 5.56087C18.9655 5.37071 19.2462 5.22968 19.5343 5.13779C19.8224 5.04593 20.1167 5 20.4173 5C20.7179 5 21.0119 5.04593 21.2993 5.13779C21.5867 5.22968 21.8671 5.37071 22.1406 5.56087L34.9258 14.5416C35.1426 14.693 35.3105 14.8823 35.4297 15.1095C35.5489 15.3366 35.6085 15.58 35.6085 15.8396C35.6085 16.3102 35.45 16.704 35.1329 17.021C34.8158 17.3381 34.422 17.4967 33.9515 17.4967H32.9163V33.33H34.9996C35.69 33.33 36.2496 33.8897 36.2496 34.58V34.58C36.2496 35.2704 35.69 35.83 34.9996 35.83H5.83299ZM30.4163 33.33V14.4134L20.7048 7.62171C20.6193 7.55763 20.5231 7.52558 20.4163 7.52558C20.3095 7.52558 20.2133 7.55763 20.1278 7.62171L10.4163 14.4134V33.33H30.4163Z" fill="#161971"/>
<path d="M20.4759 29.7642L15.9709 24.9739C15.8895 24.8925 15.8289 24.7994 15.789 24.6945C15.7491 24.5896 15.7292 24.4782 15.7292 24.3604V23.8199C15.7292 23.5721 15.8162 23.3611 15.9903 23.187C16.1644 23.0129 16.3754 22.9258 16.6232 22.9258H18.5904C19.1246 22.9258 19.5913 22.7729 19.9904 22.4669C20.3896 22.161 20.6413 21.7703 20.7454 21.2948H15.9662C15.6977 21.2948 15.4696 21.2008 15.2818 21.013C15.0939 20.8251 15 20.597 15 20.3286C15 20.0602 15.0939 19.832 15.2818 19.6442C15.4696 19.4564 15.6977 19.3624 15.9662 19.3624H20.5884C20.4093 18.9989 20.1299 18.7114 19.7503 18.4997C19.3707 18.2881 18.96 18.1823 18.5182 18.1823H15.9662C15.6977 18.1823 15.4696 18.0884 15.2818 17.9005C15.0939 17.7127 15 17.4846 15 17.2161C15 16.9477 15.0939 16.7196 15.2818 16.5317C15.4696 16.3439 15.6977 16.25 15.9662 16.25H23.2578C23.5262 16.25 23.7544 16.3439 23.9422 16.5317C24.1301 16.7196 24.224 16.9477 24.224 17.2161C24.224 17.4846 24.1301 17.7127 23.9422 17.9005C23.7544 18.0884 23.5262 18.1823 23.2578 18.1823H21.9675C22.0965 18.3271 22.2243 18.5073 22.3511 18.7228C22.478 18.9384 22.5744 19.1516 22.6404 19.3624H23.2578C23.5262 19.3624 23.7544 19.4564 23.9422 19.6442C24.1301 19.832 24.224 20.0602 24.224 20.3286C24.224 20.597 24.1301 20.8251 23.9422 21.013C23.7544 21.2008 23.5262 21.2948 23.2578 21.2948H22.7268C22.609 22.3003 22.1802 23.1352 21.4405 23.7997C20.7007 24.4641 19.8228 24.8101 18.8068 24.8375H18.5151L21.9041 28.4239C22.1984 28.7373 22.2595 29.0909 22.0872 29.4848C21.915 29.8787 21.6159 30.0757 21.19 30.0757C21.0516 30.0757 20.9213 30.0488 20.7993 29.9952C20.6772 29.9416 20.5694 29.8646 20.4759 29.7642Z" fill="#FF6600"/>
</svg>
