<svg width="40" height="40" viewBox="0 0 40 40" fill="none" xmlns="http://www.w3.org/2000/svg">
<rect width="40" height="40" fill="white"/>
<path d="M10 6V34C10 35.6569 11.3431 37 13 37H27C28.6569 37 30 35.6569 30 34V6C30 4.34315 28.6569 3 27 3H13C11.3431 3 10 4.34315 10 6Z" stroke="#161971" stroke-width="2"/>
<path d="M20.8892 24.3746L16.2555 19.2649C16.1718 19.1781 16.1094 19.0788 16.0684 18.9669C16.0274 18.855 16.0068 18.7363 16.0068 18.6106V18.034C16.0068 17.7697 16.0964 17.5446 16.2755 17.3589C16.4545 17.1732 16.6715 17.0804 16.9264 17.0804H18.9498C19.4992 17.0804 19.9793 16.9172 20.3899 16.5909C20.8005 16.2646 21.0593 15.8478 21.1663 15.3405H16.2506C15.9745 15.3405 15.7399 15.2404 15.5467 15.04C15.3534 14.8396 15.2568 14.5963 15.2568 14.31C15.2568 14.0237 15.3534 13.7803 15.5467 13.58C15.7399 13.3796 15.9745 13.2794 16.2506 13.2794H21.0049C20.8207 12.8916 20.5333 12.5849 20.1429 12.3592C19.7524 12.1335 19.33 12.0206 18.8756 12.0206H16.2506C15.9745 12.0206 15.7399 11.9204 15.5467 11.7201C15.3534 11.5197 15.2568 11.2764 15.2568 10.99C15.2568 10.7037 15.3534 10.4604 15.5467 10.26C15.7399 10.0597 15.9745 9.95947 16.2506 9.95947H23.7506C24.0267 9.95947 24.2613 10.0597 24.4546 10.26C24.6478 10.4604 24.7444 10.7037 24.7444 10.99C24.7444 11.2764 24.6478 11.5197 24.4546 11.7201C24.2613 11.9204 24.0267 12.0206 23.7506 12.0206H22.4234C22.5561 12.175 22.6876 12.3672 22.818 12.5972C22.9484 12.8271 23.0476 13.0545 23.1156 13.2794H23.7506C24.0267 13.2794 24.2613 13.3796 24.4546 13.58C24.6478 13.7803 24.7444 14.0237 24.7444 14.31C24.7444 14.5963 24.6478 14.8396 24.4546 15.04C24.2613 15.2404 24.0267 15.3405 23.7506 15.3405H23.2044C23.0832 16.4131 22.6422 17.3037 21.8813 18.0124C21.1204 18.7212 20.2175 19.0902 19.1724 19.1195H18.8724L22.3582 22.945C22.6609 23.2792 22.7237 23.6564 22.5465 24.0766C22.3694 24.4968 22.0617 24.7068 21.6237 24.7068C21.4813 24.7068 21.3473 24.6782 21.2218 24.621C21.0963 24.5638 20.9854 24.4817 20.8892 24.3746Z" fill="#161971"/>
<rect x="16.1436" y="30.667" width="7.71429" height="2.66667" rx="1.33333" fill="#FF6600"/>
</svg>
