<svg width="40" height="40" viewBox="0 0 40 40" fill="none" xmlns="http://www.w3.org/2000/svg">
<rect width="40" height="40" fill="white"/>
<path d="M10 6V34C10 35.6569 11.3431 37 13 37H27C28.6569 37 30 35.6569 30 34V6C30 4.34315 28.6569 3 27 3H13C11.3431 3 10 4.34315 10 6Z" stroke="#161971" stroke-width="2"/>
<rect x="16.1426" y="30.667" width="7.71429" height="2.66667" rx="1.33333" fill="#FF6600"/>
<path d="M19.2252 26.3926H18.4542L19.2252 20.7955H16.5266C15.8481 20.7955 16.2721 20.1958 16.2875 20.1718C17.2822 18.3488 18.778 15.6301 20.775 12H21.546L20.775 17.5971H23.4813C23.7897 17.5971 23.9593 17.7491 23.7897 18.1249C20.7441 23.6341 19.2252 26.3926 19.2252 26.3926Z" fill="#161971"/>
</svg>
