<svg width="40" height="40" viewBox="0 0 40 40" fill="none" xmlns="http://www.w3.org/2000/svg">
<rect width="40" height="40" fill="white"/>
<path d="M4.64244 8.81781V32.6091C4.64244 34.5208 6.19221 36.0706 8.10394 36.0706H31.8952C33.807 36.0706 35.3567 34.5208 35.3567 32.6091V8.81781C35.3567 6.90607 33.807 5.35631 31.8952 5.35631H8.10394C6.19221 5.35631 4.64244 6.90608 4.64244 8.81781Z" stroke="#161971" stroke-width="2.14286"/>
<path d="M5 13.5713H35" stroke="#161971" stroke-width="2.14286" stroke-linecap="round"/>
<path d="M14.2861 13.5713L7.42449 5.3951" stroke="#161971" stroke-width="2.14286" stroke-linecap="round"/>
<path d="M21.7555 13.865C22.1359 14.3183 22.8117 14.3774 23.2649 13.997C23.7182 13.6166 23.7773 12.9408 23.3969 12.4875L21.7555 13.865ZM23.3969 12.4875L16.5352 4.31132L14.8938 5.68884L21.7555 13.865L23.3969 12.4875Z" fill="#161971"/>
<path d="M23.781 25.8821L17.186 30.1217C16.3907 30.633 15.3447 30.062 15.3447 29.1165V20.6372C15.3447 19.6917 16.3907 19.1206 17.186 19.6319L23.781 23.8716C24.5128 24.342 24.5128 25.4116 23.781 25.8821Z" fill="#FF6600"/>
</svg>
