<svg width="575" height="483" viewBox="0 0 575 483" fill="none" xmlns="http://www.w3.org/2000/svg">
<rect x="0.59082" y="0.5" width="573.906" height="482" rx="20.5" fill="white" stroke="#DEDEDE"/>
<ellipse cx="57.475" cy="118" rx="24.1647" ry="24" fill="#161971"/>
<path d="M57.4752 130.875C64.7042 130.875 70.5644 125.055 70.5644 117.875C70.5644 110.695 64.7042 104.875 57.4752 104.875C50.2462 104.875 44.386 110.695 44.386 117.875C44.386 125.055 50.2462 130.875 57.4752 130.875Z" stroke="white" stroke-width="2" stroke-linecap="round" stroke-linejoin="round"/>
<path d="M52.938 112.816H57.3527M61.7674 112.816H57.3527M57.3527 112.816C58.8243 113.152 60.3733 114.325 60.3733 116.337C60.3733 120.36 53.4027 119.857 53.8674 120.36L59.4439 125.892" stroke="white" stroke-width="1.5" stroke-linecap="round"/>
<path d="M52.938 115.906H61.7674" stroke="white" stroke-width="1.5" stroke-linecap="round"/>
<path d="M98.589 137V136.045L101.542 132.986C101.857 132.653 102.117 132.362 102.322 132.112C102.529 131.859 102.684 131.619 102.786 131.392C102.889 131.165 102.94 130.923 102.94 130.668C102.94 130.378 102.872 130.128 102.735 129.918C102.599 129.705 102.413 129.541 102.177 129.428C101.941 129.311 101.676 129.253 101.38 129.253C101.068 129.253 100.795 129.317 100.562 129.445C100.329 129.572 100.15 129.753 100.025 129.986C99.9001 130.219 99.8376 130.491 99.8376 130.804H98.5805C98.5805 130.273 98.7026 129.808 98.947 129.411C99.1913 129.013 99.5265 128.705 99.9526 128.486C100.379 128.264 100.863 128.153 101.406 128.153C101.954 128.153 102.437 128.263 102.855 128.482C103.275 128.697 103.603 128.993 103.839 129.368C104.075 129.74 104.193 130.161 104.193 130.629C104.193 130.953 104.132 131.27 104.009 131.58C103.89 131.889 103.681 132.234 103.383 132.615C103.085 132.993 102.67 133.452 102.139 133.991L100.404 135.807V135.871H104.333V137H98.589ZM109.107 137.145C108.433 137.142 107.858 136.964 107.381 136.612C106.904 136.26 106.539 135.747 106.286 135.074C106.033 134.401 105.906 133.589 105.906 132.641C105.906 131.695 106.033 130.886 106.286 130.216C106.541 129.545 106.908 129.034 107.385 128.682C107.865 128.33 108.439 128.153 109.107 128.153C109.774 128.153 110.347 128.331 110.824 128.686C111.301 129.038 111.666 129.55 111.919 130.22C112.175 130.888 112.303 131.695 112.303 132.641C112.303 133.592 112.176 134.405 111.923 135.078C111.671 135.749 111.306 136.261 110.828 136.616C110.351 136.969 109.777 137.145 109.107 137.145ZM109.107 136.007C109.698 136.007 110.159 135.719 110.492 135.142C110.827 134.565 110.995 133.732 110.995 132.641C110.995 131.916 110.918 131.304 110.764 130.804C110.614 130.301 110.397 129.92 110.112 129.662C109.831 129.401 109.496 129.27 109.107 129.27C108.519 129.27 108.057 129.56 107.722 130.139C107.387 130.719 107.218 131.553 107.215 132.641C107.215 133.368 107.29 133.983 107.441 134.486C107.594 134.986 107.811 135.365 108.093 135.624C108.374 135.879 108.712 136.007 109.107 136.007ZM116.919 129.406V128.273H123.673V129.406H120.95V137H119.638V129.406H116.919ZM125.58 130.455L127.025 133.003L128.482 130.455H129.875L127.834 133.727L129.893 137H128.499L127.025 134.554L125.554 137H124.157L126.194 133.727L124.182 130.455H125.58ZM132.578 133.114V137H131.304V130.455H132.527V131.52H132.608C132.758 131.173 132.994 130.895 133.315 130.685C133.639 130.474 134.047 130.369 134.538 130.369C134.984 130.369 135.375 130.463 135.71 130.651C136.045 130.835 136.305 131.111 136.49 131.477C136.674 131.844 136.767 132.297 136.767 132.837V137H135.493V132.99C135.493 132.516 135.369 132.145 135.122 131.878C134.875 131.608 134.535 131.473 134.103 131.473C133.808 131.473 133.545 131.537 133.315 131.665C133.088 131.793 132.907 131.98 132.774 132.227C132.643 132.472 132.578 132.767 132.578 133.114Z" fill="black" fill-opacity="0.56"/>
<path d="M102.522 118H98.8255V107.091H102.597C103.68 107.091 104.61 107.309 105.388 107.746C106.169 108.179 106.769 108.803 107.188 109.616C107.607 110.429 107.817 111.402 107.817 112.535C107.817 113.671 107.606 114.648 107.183 115.464C106.764 116.281 106.159 116.908 105.367 117.345C104.578 117.782 103.63 118 102.522 118ZM100.802 116.29H102.426C103.186 116.29 103.82 116.152 104.328 115.875C104.836 115.594 105.218 115.177 105.473 114.623C105.729 114.065 105.857 113.369 105.857 112.535C105.857 111.7 105.729 111.008 105.473 110.457C105.218 109.903 104.839 109.49 104.339 109.216C103.841 108.939 103.224 108.801 102.485 108.801H100.802V116.29ZM109.845 107.091H112.263L115.502 114.996H115.629L118.868 107.091H121.286V118H119.39V110.505H119.289L116.274 117.968H114.857L111.842 110.489H111.741V118H109.845V107.091ZM123.109 108.748V107.091H131.813V108.748H128.441V118H126.481V108.748H123.109ZM137.032 108.748V107.091H145.736V108.748H142.364V118H140.404V108.748H137.032ZM149.861 118.16C149.062 118.16 148.369 117.984 147.784 117.632C147.198 117.281 146.743 116.789 146.42 116.157C146.1 115.525 145.94 114.786 145.94 113.941C145.94 113.096 146.1 112.355 146.42 111.72C146.743 111.084 147.198 110.591 147.784 110.239C148.369 109.887 149.062 109.712 149.861 109.712C150.66 109.712 151.352 109.887 151.938 110.239C152.524 110.591 152.977 111.084 153.297 111.72C153.62 112.355 153.781 113.096 153.781 113.941C153.781 114.786 153.62 115.525 153.297 116.157C152.977 116.789 152.524 117.281 151.938 117.632C151.352 117.984 150.66 118.16 149.861 118.16ZM149.872 116.615C150.305 116.615 150.667 116.496 150.958 116.258C151.249 116.017 151.466 115.694 151.608 115.289C151.754 114.884 151.826 114.433 151.826 113.936C151.826 113.435 151.754 112.982 151.608 112.577C151.466 112.169 151.249 111.844 150.958 111.603C150.667 111.361 150.305 111.24 149.872 111.24C149.428 111.24 149.058 111.361 148.764 111.603C148.472 111.844 148.254 112.169 148.108 112.577C147.966 112.982 147.895 113.435 147.895 113.936C147.895 114.433 147.966 114.884 148.108 115.289C148.254 115.694 148.472 116.017 148.764 116.258C149.058 116.496 149.428 116.615 149.872 116.615ZM158.604 118.144C157.961 118.144 157.386 117.979 156.878 117.648C156.371 117.318 155.969 116.839 155.675 116.21C155.38 115.582 155.232 114.818 155.232 113.92C155.232 113.011 155.382 112.244 155.68 111.619C155.982 110.99 156.388 110.516 156.9 110.196C157.411 109.873 157.981 109.712 158.61 109.712C159.089 109.712 159.483 109.793 159.792 109.957C160.101 110.116 160.346 110.31 160.527 110.537C160.708 110.761 160.849 110.972 160.948 111.171H161.028V107.091H162.961V118H161.065V116.711H160.948C160.849 116.91 160.705 117.121 160.517 117.345C160.328 117.565 160.08 117.753 159.771 117.909C159.462 118.066 159.073 118.144 158.604 118.144ZM159.142 116.562C159.551 116.562 159.899 116.452 160.186 116.232C160.474 116.008 160.692 115.697 160.841 115.299C160.991 114.902 161.065 114.438 161.065 113.909C161.065 113.38 160.991 112.92 160.841 112.529C160.696 112.139 160.479 111.835 160.192 111.619C159.908 111.402 159.558 111.294 159.142 111.294C158.713 111.294 158.354 111.406 158.066 111.629C157.779 111.853 157.562 112.162 157.416 112.556C157.271 112.95 157.198 113.401 157.198 113.909C157.198 114.42 157.271 114.877 157.416 115.278C157.566 115.676 157.784 115.99 158.072 116.221C158.363 116.448 158.72 116.562 159.142 116.562ZM167.521 118.165C167.002 118.165 166.535 118.073 166.12 117.888C165.708 117.7 165.381 117.423 165.14 117.057C164.902 116.691 164.783 116.24 164.783 115.704C164.783 115.243 164.868 114.861 165.038 114.559C165.209 114.257 165.441 114.016 165.736 113.835C166.031 113.653 166.363 113.517 166.732 113.424C167.105 113.328 167.49 113.259 167.888 113.217C168.368 113.167 168.756 113.123 169.055 113.083C169.353 113.041 169.57 112.977 169.705 112.892C169.843 112.803 169.912 112.666 169.912 112.482V112.45C169.912 112.048 169.793 111.738 169.555 111.517C169.318 111.297 168.975 111.187 168.527 111.187C168.055 111.187 167.68 111.29 167.403 111.496C167.13 111.702 166.945 111.945 166.849 112.226L165.049 111.97C165.191 111.473 165.425 111.058 165.752 110.724C166.079 110.386 166.478 110.134 166.951 109.967C167.423 109.797 167.945 109.712 168.517 109.712C168.911 109.712 169.303 109.758 169.694 109.85C170.085 109.942 170.441 110.095 170.765 110.308C171.088 110.518 171.347 110.804 171.542 111.166C171.741 111.528 171.841 111.981 171.841 112.524V118H169.987V116.876H169.923C169.806 117.103 169.641 117.316 169.428 117.515C169.218 117.711 168.954 117.869 168.634 117.989C168.318 118.107 167.947 118.165 167.521 118.165ZM168.021 116.748C168.408 116.748 168.744 116.672 169.028 116.519C169.312 116.363 169.531 116.157 169.683 115.901C169.84 115.646 169.918 115.367 169.918 115.065V114.101C169.857 114.151 169.754 114.197 169.609 114.239C169.467 114.282 169.307 114.319 169.129 114.351C168.952 114.383 168.776 114.412 168.602 114.436C168.428 114.461 168.277 114.483 168.149 114.5C167.862 114.539 167.604 114.603 167.377 114.692C167.15 114.781 166.97 114.905 166.839 115.065C166.707 115.221 166.642 115.424 166.642 115.672C166.642 116.027 166.771 116.295 167.031 116.477C167.29 116.658 167.62 116.748 168.021 116.748ZM174.835 121.068C174.572 121.068 174.329 121.047 174.105 121.004C173.885 120.965 173.709 120.919 173.578 120.866L174.025 119.364C174.306 119.445 174.556 119.484 174.776 119.481C174.997 119.477 175.19 119.408 175.357 119.273C175.528 119.142 175.671 118.922 175.789 118.613L175.954 118.17L172.987 109.818H175.032L176.918 115.997H177.003L178.894 109.818H180.945L177.669 118.991C177.516 119.424 177.314 119.795 177.062 120.104C176.81 120.417 176.501 120.654 176.135 120.818C175.773 120.985 175.339 121.068 174.835 121.068Z" fill="black"/>
<line x1="33.3103" y1="168.5" x2="539.763" y2="168.5" stroke="#F5F5F5"/>
<path d="M490.796 108.304L490.443 109.607H483.846L484.204 108.304H490.796ZM487.48 116L484 111.814L483.995 110.71H485.715C486.126 110.71 486.469 110.642 486.744 110.506C487.023 110.367 487.233 110.173 487.376 109.925C487.522 109.673 487.595 109.378 487.595 109.04C487.595 108.533 487.445 108.125 487.147 107.817C486.849 107.509 486.372 107.354 485.715 107.354H483.846L484.234 105.818H485.715C486.551 105.818 487.242 105.947 487.788 106.206C488.339 106.461 488.75 106.822 489.021 107.29C489.297 107.757 489.434 108.304 489.434 108.93C489.434 109.484 489.333 109.978 489.131 110.412C488.929 110.846 488.61 111.202 488.176 111.481C487.742 111.759 487.174 111.945 486.471 112.038L486.411 112.058L489.553 115.911V116H487.48ZM490.806 105.818L490.443 107.141L485.094 107.121L485.457 105.818H490.806ZM496.44 105.818V116H494.595V107.613H494.536L492.154 109.134V107.444L494.685 105.818H496.44ZM498.981 114.111V112.644L503.301 105.818H504.524V107.906H503.779L500.87 112.515V112.594H506.901V114.111H498.981ZM503.838 116V113.663L503.858 113.007V105.818H505.598V116H503.838ZM510.475 114.608L510.41 115.155C510.364 115.572 510.281 115.997 510.162 116.428C510.046 116.862 509.923 117.261 509.794 117.626C509.665 117.99 509.56 118.277 509.481 118.486H508.268C508.314 118.284 508.377 118.009 508.457 117.661C508.539 117.313 508.619 116.921 508.695 116.487C508.771 116.053 508.823 115.612 508.849 115.165L508.884 114.608H510.475ZM516.028 116.139C515.365 116.139 514.772 116.015 514.248 115.766C513.724 115.514 513.308 115.17 513 114.732C512.695 114.295 512.533 113.794 512.513 113.231H514.303C514.336 113.648 514.516 113.99 514.845 114.255C515.173 114.517 515.567 114.648 516.028 114.648C516.389 114.648 516.711 114.565 516.992 114.399C517.274 114.233 517.496 114.003 517.658 113.708C517.821 113.413 517.9 113.077 517.897 112.699C517.9 112.314 517.819 111.973 517.654 111.675C517.488 111.376 517.261 111.143 516.972 110.974C516.684 110.801 516.353 110.715 515.978 110.715C515.673 110.712 515.373 110.768 515.078 110.884C514.783 111 514.55 111.153 514.377 111.342L512.712 111.068L513.244 105.818H519.15V107.359H514.77L514.477 110.059H514.536C514.725 109.837 514.992 109.653 515.337 109.507C515.681 109.358 516.059 109.283 516.47 109.283C517.087 109.283 517.637 109.429 518.121 109.721C518.605 110.009 518.986 110.407 519.264 110.914C519.543 111.421 519.682 112.001 519.682 112.654C519.682 113.327 519.526 113.927 519.215 114.454C518.906 114.978 518.477 115.39 517.927 115.692C517.38 115.99 516.747 116.139 516.028 116.139ZM525.251 116.194C524.432 116.194 523.73 115.987 523.143 115.572C522.56 115.155 522.111 114.553 521.796 113.768C521.484 112.979 521.328 112.029 521.328 110.919C521.332 109.809 521.489 108.864 521.801 108.085C522.115 107.303 522.565 106.706 523.148 106.295C523.735 105.884 524.436 105.679 525.251 105.679C526.066 105.679 526.767 105.884 527.354 106.295C527.941 106.706 528.39 107.303 528.701 108.085C529.016 108.867 529.173 109.812 529.173 110.919C529.173 112.033 529.016 112.984 528.701 113.773C528.39 114.558 527.941 115.158 527.354 115.572C526.771 115.987 526.07 116.194 525.251 116.194ZM525.251 114.638C525.887 114.638 526.389 114.325 526.757 113.698C527.128 113.068 527.314 112.142 527.314 110.919C527.314 110.11 527.23 109.431 527.061 108.881C526.892 108.33 526.653 107.916 526.345 107.638C526.036 107.356 525.672 107.215 525.251 107.215C524.618 107.215 524.117 107.53 523.749 108.16C523.382 108.786 523.196 109.706 523.193 110.919C523.189 111.731 523.271 112.414 523.436 112.967C523.605 113.521 523.844 113.938 524.152 114.22C524.46 114.499 524.827 114.638 525.251 114.638ZM534.729 116.194C533.91 116.194 533.207 115.987 532.621 115.572C532.037 115.155 531.588 114.553 531.274 113.768C530.962 112.979 530.806 112.029 530.806 110.919C530.81 109.809 530.967 108.864 531.278 108.085C531.593 107.303 532.042 106.706 532.626 106.295C533.212 105.884 533.913 105.679 534.729 105.679C535.544 105.679 536.245 105.884 536.832 106.295C537.418 106.706 537.868 107.303 538.179 108.085C538.494 108.867 538.651 109.812 538.651 110.919C538.651 112.033 538.494 112.984 538.179 113.773C537.868 114.558 537.418 115.158 536.832 115.572C536.248 115.987 535.547 116.194 534.729 116.194ZM534.729 114.638C535.365 114.638 535.867 114.325 536.235 113.698C536.606 113.068 536.792 112.142 536.792 110.919C536.792 110.11 536.707 109.431 536.538 108.881C536.369 108.33 536.131 107.916 535.823 107.638C535.514 107.356 535.15 107.215 534.729 107.215C534.096 107.215 533.595 107.53 533.227 108.16C532.859 108.786 532.674 109.706 532.671 110.919C532.667 111.731 532.748 112.414 532.914 112.967C533.083 113.521 533.322 113.938 533.63 114.22C533.938 114.499 534.305 114.638 534.729 114.638Z" fill="black"/>
<path d="M504.261 130.403L503.958 131.52H498.304L498.61 130.403H504.261ZM501.419 137L498.436 133.412L498.431 132.466H499.906C500.258 132.466 500.552 132.408 500.788 132.291C501.027 132.172 501.207 132.006 501.329 131.793C501.454 131.577 501.517 131.324 501.517 131.034C501.517 130.599 501.389 130.25 501.133 129.986C500.878 129.722 500.468 129.589 499.906 129.589H498.304L498.636 128.273H499.906C500.622 128.273 501.214 128.384 501.683 128.605C502.155 128.824 502.507 129.134 502.74 129.534C502.976 129.935 503.093 130.403 503.093 130.94C503.093 131.415 503.007 131.838 502.833 132.21C502.66 132.582 502.387 132.888 502.015 133.126C501.643 133.365 501.156 133.524 500.554 133.604L500.503 133.621L503.196 136.923V137H501.419ZM504.27 128.273L503.958 129.406L499.373 129.389L499.684 128.273H504.27ZM509.098 128.273V137H507.517V129.811H507.466L505.425 131.115V129.666L507.594 128.273H509.098ZM512.782 135.807L512.727 136.276C512.687 136.634 512.616 136.997 512.513 137.366C512.414 137.739 512.309 138.081 512.198 138.393C512.087 138.706 511.998 138.952 511.93 139.131H510.89C510.93 138.957 510.984 138.722 511.052 138.423C511.123 138.125 511.191 137.79 511.256 137.418C511.322 137.045 511.366 136.668 511.388 136.284L511.418 135.807H512.782ZM517.499 137.166C516.797 137.166 516.195 136.989 515.692 136.634C515.192 136.276 514.807 135.76 514.537 135.087C514.27 134.411 514.137 133.597 514.137 132.645C514.14 131.693 514.274 130.884 514.541 130.216C514.811 129.545 515.196 129.034 515.696 128.682C516.199 128.33 516.8 128.153 517.499 128.153C518.198 128.153 518.799 128.33 519.301 128.682C519.804 129.034 520.189 129.545 520.456 130.216C520.726 130.886 520.861 131.696 520.861 132.645C520.861 133.599 520.726 134.415 520.456 135.091C520.189 135.764 519.804 136.278 519.301 136.634C518.801 136.989 518.201 137.166 517.499 137.166ZM517.499 135.832C518.044 135.832 518.475 135.564 518.79 135.027C519.108 134.487 519.267 133.693 519.267 132.645C519.267 131.952 519.195 131.369 519.05 130.898C518.905 130.426 518.701 130.071 518.436 129.832C518.172 129.591 517.86 129.47 517.499 129.47C516.956 129.47 516.527 129.74 516.212 130.28C515.897 130.817 515.738 131.605 515.735 132.645C515.732 133.341 515.801 133.926 515.943 134.401C516.088 134.875 516.293 135.233 516.557 135.474C516.821 135.713 517.135 135.832 517.499 135.832ZM525.623 137.166C524.921 137.166 524.319 136.989 523.816 136.634C523.316 136.276 522.931 135.76 522.661 135.087C522.394 134.411 522.261 133.597 522.261 132.645C522.263 131.693 522.398 130.884 522.665 130.216C522.935 129.545 523.32 129.034 523.82 128.682C524.323 128.33 524.924 128.153 525.623 128.153C526.322 128.153 526.922 128.33 527.425 128.682C527.928 129.034 528.313 129.545 528.58 130.216C528.85 130.886 528.985 131.696 528.985 132.645C528.985 133.599 528.85 134.415 528.58 135.091C528.313 135.764 527.928 136.278 527.425 136.634C526.925 136.989 526.324 137.166 525.623 137.166ZM525.623 135.832C526.168 135.832 526.599 135.564 526.914 135.027C527.232 134.487 527.391 133.693 527.391 132.645C527.391 131.952 527.319 131.369 527.174 130.898C527.029 130.426 526.824 130.071 526.56 129.832C526.296 129.591 525.984 129.47 525.623 129.47C525.08 129.47 524.651 129.74 524.336 130.28C524.021 130.817 523.861 131.605 523.859 132.645C523.856 133.341 523.925 133.926 524.067 134.401C524.212 134.875 524.417 135.233 524.681 135.474C524.945 135.713 525.259 135.832 525.623 135.832ZM533.747 137.166C533.045 137.166 532.443 136.989 531.94 136.634C531.44 136.276 531.055 135.76 530.785 135.087C530.518 134.411 530.384 133.597 530.384 132.645C530.387 131.693 530.522 130.884 530.789 130.216C531.059 129.545 531.444 129.034 531.944 128.682C532.447 128.33 533.048 128.153 533.747 128.153C534.446 128.153 535.046 128.33 535.549 128.682C536.052 129.034 536.437 129.545 536.704 130.216C536.974 130.886 537.109 131.696 537.109 132.645C537.109 133.599 536.974 134.415 536.704 135.091C536.437 135.764 536.052 136.278 535.549 136.634C535.049 136.989 534.448 137.166 533.747 137.166ZM533.747 135.832C534.292 135.832 534.723 135.564 535.038 135.027C535.356 134.487 535.515 133.693 535.515 132.645C535.515 131.952 535.443 131.369 535.298 130.898C535.153 130.426 534.948 130.071 534.684 129.832C534.42 129.591 534.107 129.47 533.747 129.47C533.204 129.47 532.775 129.74 532.46 130.28C532.144 130.817 531.985 131.605 531.982 132.645C531.98 133.341 532.049 133.926 532.191 134.401C532.336 134.875 532.541 135.233 532.805 135.474C533.069 135.713 533.383 135.832 533.747 135.832Z" fill="#158A72"/>
<ellipse cx="57.475" cy="214" rx="24.1647" ry="24" fill="#0E6B58"/>
<path d="M47.5611 209.384C47.4791 209.318 47.4293 209.237 47.4118 209.138C47.3942 209.04 47.4206 208.937 47.4908 208.83C48.6852 207.253 50.158 206.016 51.9091 205.121C53.6602 204.225 55.5284 203.777 57.5137 203.777C59.5201 203.777 61.413 204.207 63.1923 205.067C64.9716 205.927 66.4534 207.162 67.6375 208.773C67.7414 208.9 67.7733 209.018 67.733 209.129C67.6928 209.239 67.6229 209.327 67.5234 209.392C67.4238 209.458 67.3166 209.487 67.2016 209.479C67.0866 209.471 66.986 209.404 66.8998 209.279C65.824 207.776 64.456 206.629 62.796 205.837C61.136 205.045 59.3752 204.65 57.5137 204.65C55.6679 204.65 53.929 205.053 52.2969 205.859C50.6649 206.665 49.3088 207.805 48.2285 209.279C48.129 209.42 48.0178 209.493 47.8948 209.497C47.7719 209.501 47.6606 209.464 47.5611 209.384ZM60.761 223.403C58.8406 222.912 57.2597 221.944 56.0185 220.501C54.7772 219.057 54.1566 217.292 54.1566 215.206C54.1566 214.29 54.4918 213.525 55.1622 212.912C55.8326 212.298 56.6316 211.992 57.5591 211.992C58.4866 211.992 59.2778 212.298 59.9325 212.912C60.5873 213.525 60.9146 214.29 60.9146 215.206C60.9146 215.867 61.1649 216.422 61.6654 216.872C62.1659 217.323 62.7566 217.548 63.4373 217.548C64.118 217.548 64.7013 217.321 65.1873 216.867C65.6732 216.412 65.9162 215.859 65.9162 215.206C65.9162 212.977 65.0906 211.103 63.4395 209.585C61.7884 208.067 59.8167 207.308 57.5246 207.308C55.2324 207.308 53.2667 208.069 51.6273 209.591C49.9879 211.114 49.1682 212.983 49.1682 215.199C49.1682 215.66 49.222 216.236 49.3296 216.928C49.4372 217.619 49.6454 218.418 49.9543 219.325C49.9967 219.452 49.9956 219.563 49.951 219.659C49.9063 219.755 49.8225 219.831 49.6996 219.888C49.5766 219.944 49.4621 219.947 49.356 219.894C49.2499 219.841 49.1756 219.755 49.1331 219.635C48.8331 218.854 48.6175 218.107 48.4865 217.394C48.3555 216.681 48.29 215.952 48.29 215.206C48.29 212.723 49.1974 210.642 51.0123 208.962C52.8271 207.282 54.9946 206.442 57.5147 206.442C60.0536 206.442 62.2349 207.282 64.0587 208.962C65.8825 210.642 66.7944 212.723 66.7944 215.206C66.7944 216.12 66.4694 216.883 65.8195 217.495C65.1695 218.108 64.3777 218.414 63.444 218.414C62.5174 218.414 61.7178 218.108 61.0453 217.495C60.3727 216.883 60.0364 216.12 60.0364 215.206C60.0364 214.553 59.7925 214 59.3047 213.545C58.8169 213.091 58.2345 212.864 57.5576 212.864C56.8686 212.864 56.276 213.089 55.7795 213.54C55.2831 213.99 55.0348 214.545 55.0348 215.206C55.0348 217.083 55.5966 218.65 56.72 219.907C57.8434 221.165 59.2709 222.039 61.0025 222.531C61.1378 222.574 61.232 222.645 61.2851 222.746C61.3382 222.846 61.3457 222.954 61.3077 223.069C61.2696 223.169 61.2081 223.26 61.1232 223.34C61.0383 223.42 60.9176 223.441 60.761 223.403ZM54.6836 223.05C53.6048 221.907 52.7621 220.723 52.1553 219.496C51.5486 218.27 51.2453 216.84 51.2453 215.205C51.2453 213.515 51.8626 212.094 53.0972 210.942C54.3318 209.79 55.8189 209.214 57.5586 209.214C59.2983 209.214 60.7873 209.79 62.0256 210.942C63.2639 212.094 63.8831 213.515 63.8831 215.206C63.8831 215.337 63.8428 215.442 63.7623 215.522C63.6818 215.602 63.5757 215.642 63.444 215.642C63.3356 215.642 63.2354 215.602 63.1432 215.522C63.0509 215.442 63.0048 215.337 63.0048 215.206C63.0048 213.759 62.466 212.545 61.3883 211.561C60.3106 210.578 59.0339 210.086 57.5581 210.086C56.0823 210.086 54.8076 210.578 53.734 211.561C52.6603 212.545 52.1235 213.759 52.1235 215.204C52.1235 216.765 52.3972 218.083 52.9447 219.158C53.4921 220.233 54.2796 221.323 55.3071 222.426C55.4213 222.542 55.4674 222.658 55.4454 222.773C55.4235 222.888 55.3774 222.98 55.3071 223.05C55.2222 223.134 55.1219 223.18 55.0063 223.187C54.8907 223.194 54.7831 223.148 54.6836 223.05ZM63.2156 221.078C61.566 221.078 60.129 220.522 58.9046 219.409C57.6802 218.295 57.068 216.894 57.068 215.206C57.068 215.09 57.1078 214.988 57.1875 214.901C57.2671 214.813 57.3722 214.77 57.5026 214.77C57.6329 214.77 57.7395 214.813 57.8221 214.901C57.9048 214.988 57.9462 215.09 57.9462 215.206C57.9462 216.668 58.4709 217.867 59.5204 218.803C60.5699 219.738 61.8017 220.206 63.2156 220.206C63.403 220.206 63.6013 220.197 63.8106 220.178C64.0199 220.159 64.2314 220.131 64.4452 220.093C64.5579 220.069 64.6541 220.086 64.7339 220.142C64.8136 220.198 64.8725 220.29 64.9106 220.42C64.9487 220.535 64.9274 220.636 64.847 220.722C64.7664 220.808 64.6647 220.87 64.5417 220.908C64.331 220.959 64.1045 221 63.8622 221.031C63.62 221.063 63.4044 221.078 63.2156 221.078Z" fill="white"/>
<path d="M50.8036 203.531C50.9192 203.563 51.0165 203.554 51.0956 203.503C52.1099 202.984 53.1572 202.583 54.2374 202.299C55.3177 202.014 56.4207 201.872 57.5465 201.872C58.6917 201.872 59.8126 202.006 60.9093 202.272C62.006 202.539 63.0513 202.949 64.0452 203.503C64.1623 203.569 64.2764 203.578 64.3877 203.532C64.4989 203.485 64.5758 203.41 64.6182 203.307C64.6606 203.204 64.6712 203.097 64.65 202.987C64.6288 202.876 64.5399 202.781 64.3833 202.701C63.3158 202.153 62.2109 201.732 61.0685 201.439C59.9262 201.146 58.7557 201 57.5572 201C56.3584 201 55.1786 201.148 54.0179 201.443C52.8572 201.738 51.7513 202.176 50.7004 202.758C50.592 202.823 50.5298 202.906 50.5137 203.007C50.4976 203.108 50.513 203.213 50.5598 203.32C50.6067 203.428 50.6879 203.498 50.8036 203.531Z" fill="white"/>
<path d="M64.3622 223.688C64.2466 223.655 64.1492 223.665 64.0702 223.715C63.0558 224.234 62.0085 224.636 60.9283 224.92C59.8481 225.204 58.7451 225.347 57.6193 225.347C56.4741 225.347 55.3531 225.213 54.2565 224.946C53.1598 224.68 52.1145 224.269 51.1206 223.715C51.0035 223.65 50.8893 223.641 50.7781 223.687C50.6669 223.734 50.59 223.808 50.5476 223.912C50.5051 224.015 50.4945 224.122 50.5157 224.232C50.537 224.343 50.6259 224.438 50.7825 224.518C51.85 225.066 52.9549 225.486 54.0972 225.779C55.2396 226.072 56.41 226.219 57.6086 226.219C58.8074 226.219 59.9871 226.071 61.1479 225.776C62.3086 225.481 63.4145 225.043 64.4654 224.461C64.5737 224.396 64.6359 224.313 64.652 224.211C64.6681 224.11 64.6528 224.006 64.6059 223.899C64.5591 223.791 64.4778 223.721 64.3622 223.688Z" fill="white"/>
<path d="M101.627 233.119C101.042 233.119 100.519 233.018 100.059 232.817C99.6018 232.615 99.2396 232.335 98.9725 231.977C98.7083 231.616 98.5663 231.199 98.5464 230.724H99.8845C99.9015 230.983 99.9881 231.207 100.144 231.398C100.303 231.585 100.511 231.73 100.767 231.832C101.022 231.935 101.306 231.986 101.619 231.986C101.963 231.986 102.267 231.926 102.531 231.807C102.798 231.687 103.007 231.521 103.157 231.308C103.308 231.092 103.383 230.844 103.383 230.562C103.383 230.27 103.308 230.013 103.157 229.791C103.009 229.567 102.792 229.391 102.505 229.263C102.221 229.135 101.877 229.071 101.474 229.071H100.737V227.997H101.474C101.798 227.997 102.082 227.939 102.326 227.822C102.573 227.706 102.767 227.544 102.906 227.337C103.045 227.126 103.115 226.881 103.115 226.599C103.115 226.33 103.053 226.095 102.931 225.896C102.812 225.695 102.642 225.537 102.42 225.423C102.201 225.31 101.943 225.253 101.644 225.253C101.36 225.253 101.095 225.305 100.848 225.411C100.603 225.513 100.404 225.661 100.251 225.854C100.098 226.044 100.015 226.273 100.004 226.54H98.7296C98.7438 226.068 98.883 225.653 99.1472 225.295C99.4143 224.937 99.7666 224.658 100.204 224.456C100.642 224.254 101.127 224.153 101.661 224.153C102.221 224.153 102.704 224.263 103.11 224.482C103.519 224.697 103.835 224.986 104.056 225.347C104.281 225.707 104.392 226.102 104.389 226.531C104.392 227.02 104.255 227.435 103.98 227.776C103.707 228.116 103.343 228.345 102.889 228.462V228.53C103.468 228.618 103.917 228.848 104.235 229.22C104.556 229.592 104.715 230.054 104.713 230.605C104.715 231.085 104.582 231.516 104.312 231.896C104.045 232.277 103.68 232.577 103.217 232.795C102.754 233.011 102.224 233.119 101.627 233.119ZM106.26 231.295V230.23L110.031 224.273H110.871V225.841H110.338L107.641 230.111V230.179H112.81V231.295H106.26ZM110.398 233V230.972L110.406 230.486V224.273H111.655V233H110.398ZM117.4 225.406V224.273H124.154V225.406H121.431V233H120.118V225.406H117.4ZM126.06 226.455L127.505 229.003L128.962 226.455H130.356L128.315 229.727L130.373 233H128.98L127.505 230.554L126.035 233H124.637L126.674 229.727L124.663 226.455H126.06ZM133.058 229.114V233H131.784V226.455H133.007V227.52H133.088C133.239 227.173 133.475 226.895 133.796 226.685C134.119 226.474 134.527 226.369 135.019 226.369C135.465 226.369 135.855 226.463 136.19 226.651C136.526 226.835 136.786 227.111 136.97 227.477C137.155 227.844 137.247 228.297 137.247 228.837V233H135.973V228.99C135.973 228.516 135.85 228.145 135.602 227.878C135.355 227.608 135.016 227.473 134.584 227.473C134.288 227.473 134.026 227.537 133.796 227.665C133.568 227.793 133.388 227.98 133.254 228.227C133.124 228.472 133.058 228.767 133.058 229.114Z" fill="black" fill-opacity="0.56"/>
<path d="M100.226 214H98.1171L101.958 203.091H104.397L108.243 214H106.134L103.22 205.328H103.135L100.226 214ZM100.296 209.723H106.049V211.31H100.296V209.723ZM109.83 214V203.091H116.925V204.748H111.806V207.709H116.558V209.366H111.806V212.343H116.968V214H109.83ZM119.091 214V203.091H123.182C124.02 203.091 124.723 203.247 125.292 203.56C125.863 203.872 126.295 204.302 126.586 204.849C126.881 205.392 127.028 206.01 127.028 206.702C127.028 207.402 126.881 208.023 126.586 208.567C126.291 209.11 125.856 209.538 125.281 209.85C124.706 210.159 123.997 210.314 123.156 210.314H120.444V208.689H122.889C123.379 208.689 123.781 208.604 124.093 208.434C124.406 208.263 124.636 208.029 124.786 207.73C124.938 207.432 125.015 207.089 125.015 206.702C125.015 206.315 124.938 205.974 124.786 205.68C124.636 205.385 124.404 205.156 124.088 204.993C123.775 204.826 123.372 204.742 122.879 204.742H121.068V214H119.091ZM134.823 206.09C134.774 205.625 134.564 205.262 134.195 205.003C133.829 204.744 133.353 204.614 132.767 204.614C132.355 204.614 132.002 204.676 131.707 204.801C131.412 204.925 131.187 205.094 131.031 205.307C130.874 205.52 130.795 205.763 130.791 206.037C130.791 206.264 130.842 206.461 130.945 206.628C131.052 206.795 131.196 206.937 131.377 207.054C131.558 207.168 131.759 207.263 131.979 207.342C132.199 207.42 132.421 207.485 132.645 207.539L133.667 207.794C134.079 207.89 134.475 208.02 134.855 208.183C135.239 208.347 135.581 208.553 135.883 208.801C136.189 209.05 136.43 209.35 136.608 209.701C136.785 210.053 136.874 210.465 136.874 210.937C136.874 211.576 136.711 212.139 136.384 212.626C136.057 213.109 135.585 213.487 134.967 213.76C134.353 214.03 133.609 214.165 132.735 214.165C131.886 214.165 131.15 214.034 130.525 213.771C129.903 213.508 129.417 213.125 129.065 212.62C128.717 212.116 128.529 211.502 128.5 210.777H130.445C130.473 211.157 130.59 211.473 130.796 211.725C131.002 211.978 131.27 212.166 131.601 212.29C131.934 212.414 132.307 212.477 132.719 212.477C133.149 212.477 133.525 212.413 133.848 212.285C134.175 212.153 134.431 211.972 134.616 211.741C134.8 211.507 134.894 211.234 134.898 210.921C134.894 210.637 134.811 210.403 134.647 210.218C134.484 210.03 134.255 209.874 133.96 209.749C133.669 209.621 133.328 209.508 132.938 209.408L131.696 209.089C130.798 208.858 130.088 208.508 129.566 208.039C129.047 207.567 128.788 206.94 128.788 206.159C128.788 205.516 128.962 204.953 129.31 204.471C129.662 203.988 130.139 203.613 130.743 203.347C131.347 203.077 132.03 202.942 132.794 202.942C133.568 202.942 134.246 203.077 134.829 203.347C135.415 203.613 135.874 203.984 136.208 204.46C136.542 204.932 136.714 205.475 136.725 206.09H134.823ZM142.177 204.748V203.091H150.881V204.748H147.509V214H145.549V204.748H142.177ZM155.006 214.16C154.207 214.16 153.515 213.984 152.929 213.632C152.343 213.281 151.888 212.789 151.565 212.157C151.245 211.525 151.086 210.786 151.086 209.941C151.086 209.096 151.245 208.355 151.565 207.72C151.888 207.084 152.343 206.591 152.929 206.239C153.515 205.887 154.207 205.712 155.006 205.712C155.805 205.712 156.498 205.887 157.083 206.239C157.669 206.591 158.122 207.084 158.442 207.72C158.765 208.355 158.927 209.096 158.927 209.941C158.927 210.786 158.765 211.525 158.442 212.157C158.122 212.789 157.669 213.281 157.083 213.632C156.498 213.984 155.805 214.16 155.006 214.16ZM155.017 212.615C155.45 212.615 155.812 212.496 156.103 212.258C156.395 212.017 156.611 211.694 156.753 211.289C156.899 210.884 156.972 210.433 156.972 209.936C156.972 209.435 156.899 208.982 156.753 208.577C156.611 208.169 156.395 207.844 156.103 207.603C155.812 207.361 155.45 207.24 155.017 207.24C154.573 207.24 154.203 207.361 153.909 207.603C153.618 207.844 153.399 208.169 153.254 208.577C153.112 208.982 153.04 209.435 153.04 209.936C153.04 210.433 153.112 210.884 153.254 211.289C153.399 211.694 153.618 212.017 153.909 212.258C154.203 212.496 154.573 212.615 155.017 212.615ZM163.749 214.144C163.107 214.144 162.531 213.979 162.023 213.648C161.516 213.318 161.114 212.839 160.82 212.21C160.525 211.582 160.378 210.818 160.378 209.92C160.378 209.011 160.527 208.244 160.825 207.619C161.127 206.99 161.533 206.516 162.045 206.196C162.556 205.873 163.126 205.712 163.755 205.712C164.234 205.712 164.628 205.793 164.937 205.957C165.246 206.116 165.491 206.31 165.672 206.537C165.853 206.761 165.994 206.972 166.093 207.171H166.173V203.091H168.107V214H166.21V212.711H166.093C165.994 212.91 165.85 213.121 165.662 213.345C165.473 213.565 165.225 213.753 164.916 213.909C164.607 214.066 164.218 214.144 163.749 214.144ZM164.287 212.562C164.696 212.562 165.044 212.452 165.331 212.232C165.619 212.008 165.837 211.697 165.987 211.299C166.136 210.902 166.21 210.438 166.21 209.909C166.21 209.38 166.136 208.92 165.987 208.529C165.841 208.139 165.624 207.835 165.337 207.619C165.053 207.402 164.703 207.294 164.287 207.294C163.858 207.294 163.499 207.406 163.211 207.629C162.924 207.853 162.707 208.162 162.561 208.556C162.416 208.95 162.343 209.401 162.343 209.909C162.343 210.42 162.416 210.877 162.561 211.278C162.711 211.676 162.929 211.99 163.217 212.221C163.508 212.448 163.865 212.562 164.287 212.562ZM172.666 214.165C172.147 214.165 171.68 214.073 171.265 213.888C170.853 213.7 170.526 213.423 170.285 213.057C170.047 212.691 169.928 212.24 169.928 211.704C169.928 211.243 170.013 210.861 170.184 210.559C170.354 210.257 170.587 210.016 170.881 209.835C171.176 209.653 171.508 209.517 171.877 209.424C172.25 209.328 172.636 209.259 173.033 209.217C173.513 209.167 173.902 209.123 174.2 209.083C174.498 209.041 174.715 208.977 174.85 208.892C174.988 208.803 175.057 208.666 175.057 208.482V208.45C175.057 208.048 174.939 207.738 174.701 207.517C174.463 207.297 174.12 207.187 173.673 207.187C173.2 207.187 172.826 207.29 172.549 207.496C172.275 207.702 172.09 207.945 171.995 208.226L170.194 207.97C170.336 207.473 170.571 207.058 170.897 206.724C171.224 206.386 171.624 206.134 172.096 205.967C172.568 205.797 173.09 205.712 173.662 205.712C174.056 205.712 174.448 205.758 174.839 205.85C175.23 205.942 175.587 206.095 175.91 206.308C176.233 206.518 176.492 206.804 176.687 207.166C176.886 207.528 176.986 207.981 176.986 208.524V214H175.132V212.876H175.068C174.951 213.103 174.786 213.316 174.573 213.515C174.363 213.711 174.099 213.869 173.779 213.989C173.463 214.107 173.092 214.165 172.666 214.165ZM173.166 212.748C173.554 212.748 173.889 212.672 174.173 212.519C174.457 212.363 174.676 212.157 174.828 211.901C174.985 211.646 175.063 211.367 175.063 211.065V210.101C175.002 210.151 174.899 210.197 174.754 210.239C174.612 210.282 174.452 210.319 174.274 210.351C174.097 210.383 173.921 210.412 173.747 210.436C173.573 210.461 173.422 210.483 173.294 210.5C173.007 210.539 172.749 210.603 172.522 210.692C172.295 210.781 172.115 210.905 171.984 211.065C171.853 211.221 171.787 211.424 171.787 211.672C171.787 212.027 171.916 212.295 172.176 212.477C172.435 212.658 172.765 212.748 173.166 212.748ZM179.98 217.068C179.717 217.068 179.474 217.047 179.25 217.004C179.03 216.965 178.854 216.919 178.723 216.866L179.171 215.364C179.451 215.445 179.701 215.484 179.922 215.481C180.142 215.477 180.335 215.408 180.502 215.273C180.673 215.142 180.816 214.922 180.934 214.613L181.099 214.17L178.132 205.818H180.177L182.063 211.997H182.148L184.039 205.818H186.09L182.814 214.991C182.661 215.424 182.459 215.795 182.207 216.104C181.955 216.417 181.646 216.654 181.28 216.818C180.918 216.985 180.484 217.068 179.98 217.068Z" fill="black"/>
<line x1="33.3103" y1="264.5" x2="539.763" y2="264.5" stroke="#F5F5F5"/>
<path d="M484.755 204.304L484.402 205.607H477.805L478.163 204.304H484.755ZM481.439 212L477.959 207.814L477.954 206.71H479.674C480.085 206.71 480.428 206.642 480.703 206.506C480.982 206.367 481.192 206.173 481.335 205.925C481.48 205.673 481.553 205.378 481.553 205.04C481.553 204.533 481.404 204.125 481.106 203.817C480.808 203.509 480.33 203.354 479.674 203.354H477.805L478.193 201.818H479.674C480.509 201.818 481.2 201.947 481.747 202.206C482.297 202.461 482.708 202.822 482.98 203.29C483.255 203.757 483.393 204.304 483.393 204.93C483.393 205.484 483.292 205.978 483.09 206.412C482.887 206.846 482.569 207.202 482.135 207.481C481.701 207.759 481.132 207.945 480.43 208.038L480.37 208.058L483.512 211.911V212H481.439ZM484.765 201.818L484.402 203.141L479.053 203.121L479.416 201.818H484.765ZM489.911 212.139C489.195 212.139 488.559 212.017 488.002 211.771C487.449 211.526 487.011 211.185 486.69 210.747C486.368 210.31 486.198 209.804 486.178 209.231H488.047C488.064 209.506 488.155 209.746 488.32 209.952C488.486 210.154 488.707 210.311 488.982 210.424C489.257 210.537 489.565 210.593 489.906 210.593C490.271 210.593 490.594 210.53 490.876 210.404C491.158 210.275 491.378 210.096 491.537 209.867C491.696 209.638 491.774 209.375 491.771 209.077C491.774 208.768 491.694 208.497 491.532 208.261C491.37 208.026 491.134 207.842 490.826 207.71C490.521 207.577 490.153 207.511 489.722 207.511H488.823V206.089H489.722C490.077 206.089 490.387 206.027 490.652 205.905C490.921 205.782 491.131 205.61 491.284 205.388C491.436 205.162 491.511 204.902 491.507 204.607C491.511 204.319 491.446 204.069 491.313 203.857C491.184 203.641 491 203.474 490.761 203.354C490.526 203.235 490.249 203.175 489.931 203.175C489.62 203.175 489.331 203.232 489.066 203.344C488.801 203.457 488.587 203.618 488.425 203.827C488.262 204.032 488.176 204.277 488.166 204.562H486.391C486.405 203.992 486.569 203.492 486.884 203.061C487.202 202.627 487.626 202.289 488.156 202.047C488.687 201.802 489.282 201.679 489.941 201.679C490.621 201.679 491.211 201.807 491.711 202.062C492.215 202.314 492.604 202.653 492.879 203.081C493.154 203.509 493.292 203.981 493.292 204.498C493.295 205.071 493.126 205.552 492.785 205.94C492.447 206.327 492.003 206.581 491.453 206.7V206.78C492.168 206.879 492.717 207.144 493.098 207.575C493.483 208.003 493.673 208.535 493.67 209.171C493.67 209.741 493.507 210.252 493.183 210.702C492.861 211.15 492.417 211.501 491.85 211.756C491.287 212.012 490.641 212.139 489.911 212.139ZM495.332 210.111V208.644L499.653 201.818H500.876V203.906H500.13L497.222 208.515V208.594H503.252V210.111H495.332ZM500.19 212V209.663L500.21 209.007V201.818H501.95V212H500.19ZM506.826 210.608L506.762 211.155C506.715 211.572 506.632 211.997 506.513 212.428C506.397 212.862 506.274 213.261 506.145 213.626C506.016 213.99 505.912 214.277 505.832 214.486H504.619C504.665 214.284 504.728 214.009 504.808 213.661C504.891 213.313 504.97 212.921 505.046 212.487C505.123 212.053 505.174 211.612 505.201 211.165L505.235 210.608H506.826ZM508.778 210.111V208.644L513.099 201.818H514.322V203.906H513.576L510.668 208.515V208.594H516.698V210.111H508.778ZM513.636 212V209.663L513.656 209.007V201.818H515.396V212H513.636ZM522.19 212.194C521.371 212.194 520.669 211.987 520.082 211.572C519.499 211.155 519.05 210.553 518.735 209.768C518.423 208.979 518.268 208.029 518.268 206.919C518.271 205.809 518.428 204.864 518.74 204.085C519.055 203.303 519.504 202.706 520.087 202.295C520.674 201.884 521.375 201.679 522.19 201.679C523.005 201.679 523.706 201.884 524.293 202.295C524.88 202.706 525.329 203.303 525.64 204.085C525.955 204.867 526.113 205.812 526.113 206.919C526.113 208.033 525.955 208.984 525.64 209.773C525.329 210.558 524.88 211.158 524.293 211.572C523.71 211.987 523.009 212.194 522.19 212.194ZM522.19 210.638C522.826 210.638 523.329 210.325 523.696 209.698C524.068 209.068 524.253 208.142 524.253 206.919C524.253 206.11 524.169 205.431 524 204.881C523.831 204.33 523.592 203.916 523.284 203.638C522.976 203.356 522.611 203.215 522.19 203.215C521.557 203.215 521.057 203.53 520.689 204.16C520.321 204.786 520.135 205.706 520.132 206.919C520.129 207.731 520.21 208.414 520.375 208.967C520.545 209.521 520.783 209.938 521.091 210.22C521.4 210.499 521.766 210.638 522.19 210.638ZM531.668 212.194C530.849 212.194 530.147 211.987 529.56 211.572C528.977 211.155 528.528 210.553 528.213 209.768C527.901 208.979 527.745 208.029 527.745 206.919C527.749 205.809 527.906 204.864 528.218 204.085C528.533 203.303 528.982 202.706 529.565 202.295C530.152 201.884 530.853 201.679 531.668 201.679C532.483 201.679 533.184 201.884 533.771 202.295C534.358 202.706 534.807 203.303 535.118 204.085C535.433 204.867 535.591 205.812 535.591 206.919C535.591 208.033 535.433 208.984 535.118 209.773C534.807 210.558 534.358 211.158 533.771 211.572C533.188 211.987 532.487 212.194 531.668 212.194ZM531.668 210.638C532.304 210.638 532.806 210.325 533.174 209.698C533.546 209.068 533.731 208.142 533.731 206.919C533.731 206.11 533.647 205.431 533.478 204.881C533.309 204.33 533.07 203.916 532.762 203.638C532.454 203.356 532.089 203.215 531.668 203.215C531.035 203.215 530.534 203.53 530.167 204.16C529.799 204.786 529.613 205.706 529.61 206.919C529.606 207.731 529.688 208.414 529.853 208.967C530.022 209.521 530.261 209.938 530.569 210.22C530.878 210.499 531.244 210.638 531.668 210.638Z" fill="black"/>
<path d="M501.66 226.403L501.357 227.52H495.702L496.009 226.403H501.66ZM498.817 233L495.834 229.412L495.83 228.466H497.304C497.657 228.466 497.951 228.408 498.187 228.291C498.425 228.172 498.606 228.006 498.728 227.793C498.853 227.577 498.915 227.324 498.915 227.034C498.915 226.599 498.787 226.25 498.532 225.986C498.276 225.722 497.867 225.589 497.304 225.589H495.702L496.035 224.273H497.304C498.02 224.273 498.613 224.384 499.081 224.605C499.553 224.824 499.905 225.134 500.138 225.534C500.374 225.935 500.492 226.403 500.492 226.94C500.492 227.415 500.405 227.838 500.232 228.21C500.059 228.582 499.786 228.888 499.414 229.126C499.042 229.365 498.554 229.524 497.952 229.604L497.901 229.621L500.594 232.923V233H498.817ZM501.668 224.273L501.357 225.406L496.772 225.389L497.083 224.273H501.668ZM506.079 233.119C505.466 233.119 504.92 233.014 504.443 232.804C503.968 232.594 503.593 232.301 503.318 231.926C503.042 231.551 502.896 231.118 502.879 230.626H504.481C504.495 230.862 504.574 231.068 504.716 231.244C504.858 231.418 505.047 231.553 505.282 231.649C505.518 231.746 505.782 231.794 506.075 231.794C506.388 231.794 506.664 231.74 506.906 231.632C507.147 231.521 507.336 231.368 507.473 231.172C507.609 230.976 507.676 230.75 507.673 230.494C507.676 230.23 507.608 229.997 507.468 229.795C507.329 229.594 507.128 229.436 506.863 229.322C506.602 229.209 506.287 229.152 505.917 229.152H505.146V227.933H505.917C506.221 227.933 506.487 227.881 506.714 227.776C506.944 227.67 507.125 227.523 507.255 227.332C507.386 227.139 507.45 226.916 507.447 226.663C507.45 226.416 507.395 226.202 507.281 226.02C507.17 225.835 507.013 225.692 506.808 225.589C506.606 225.487 506.369 225.436 506.096 225.436C505.829 225.436 505.582 225.484 505.355 225.581C505.128 225.678 504.944 225.815 504.805 225.994C504.666 226.17 504.592 226.381 504.584 226.625H503.062C503.074 226.136 503.214 225.707 503.484 225.338C503.757 224.966 504.12 224.676 504.575 224.469C505.03 224.259 505.539 224.153 506.105 224.153C506.687 224.153 507.193 224.263 507.622 224.482C508.054 224.697 508.388 224.989 508.623 225.355C508.859 225.722 508.977 226.126 508.977 226.57C508.98 227.061 508.835 227.473 508.542 227.805C508.253 228.138 507.872 228.355 507.4 228.457V228.526C508.014 228.611 508.484 228.838 508.811 229.207C509.14 229.574 509.304 230.03 509.301 230.575C509.301 231.064 509.162 231.501 508.883 231.888C508.608 232.271 508.227 232.572 507.741 232.791C507.258 233.01 506.704 233.119 506.079 233.119ZM512.454 231.807L512.398 232.276C512.359 232.634 512.288 232.997 512.185 233.366C512.086 233.739 511.981 234.081 511.87 234.393C511.759 234.706 511.67 234.952 511.602 235.131H510.562C510.602 234.957 510.656 234.722 510.724 234.423C510.795 234.125 510.863 233.79 510.928 233.418C510.994 233.045 511.038 232.668 511.06 232.284L511.09 231.807H512.454ZM514.127 231.381V230.124L517.83 224.273H518.879V226.062H518.239L515.746 230.013V230.081H520.916V231.381H514.127ZM518.291 233V230.997L518.308 230.435V224.273H519.799V233H518.291ZM525.623 233.166C524.921 233.166 524.319 232.989 523.816 232.634C523.316 232.276 522.931 231.76 522.661 231.087C522.394 230.411 522.261 229.597 522.261 228.645C522.263 227.693 522.398 226.884 522.665 226.216C522.935 225.545 523.32 225.034 523.82 224.682C524.323 224.33 524.924 224.153 525.623 224.153C526.322 224.153 526.923 224.33 527.425 224.682C527.928 225.034 528.313 225.545 528.58 226.216C528.85 226.886 528.985 227.696 528.985 228.645C528.985 229.599 528.85 230.415 528.58 231.091C528.313 231.764 527.928 232.278 527.425 232.634C526.925 232.989 526.325 233.166 525.623 233.166ZM525.623 231.832C526.168 231.832 526.599 231.564 526.914 231.027C527.232 230.487 527.391 229.693 527.391 228.645C527.391 227.952 527.319 227.369 527.174 226.898C527.029 226.426 526.825 226.071 526.56 225.832C526.296 225.591 525.984 225.47 525.623 225.47C525.08 225.47 524.651 225.74 524.336 226.28C524.021 226.817 523.861 227.605 523.859 228.645C523.856 229.341 523.925 229.926 524.067 230.401C524.212 230.875 524.417 231.233 524.681 231.474C524.945 231.713 525.259 231.832 525.623 231.832ZM533.747 233.166C533.045 233.166 532.443 232.989 531.94 232.634C531.44 232.276 531.055 231.76 530.785 231.087C530.518 230.411 530.385 229.597 530.385 228.645C530.387 227.693 530.522 226.884 530.789 226.216C531.059 225.545 531.444 225.034 531.944 224.682C532.447 224.33 533.048 224.153 533.747 224.153C534.446 224.153 535.046 224.33 535.549 224.682C536.052 225.034 536.437 225.545 536.704 226.216C536.974 226.886 537.109 227.696 537.109 228.645C537.109 229.599 536.974 230.415 536.704 231.091C536.437 231.764 536.052 232.278 535.549 232.634C535.049 232.989 534.448 233.166 533.747 233.166ZM533.747 231.832C534.292 231.832 534.723 231.564 535.038 231.027C535.356 230.487 535.515 229.693 535.515 228.645C535.515 227.952 535.443 227.369 535.298 226.898C535.153 226.426 534.948 226.071 534.684 225.832C534.42 225.591 534.108 225.47 533.747 225.47C533.204 225.47 532.775 225.74 532.46 226.28C532.144 226.817 531.985 227.605 531.983 228.645C531.98 229.341 532.049 229.926 532.191 230.401C532.336 230.875 532.541 231.233 532.805 231.474C533.069 231.713 533.383 231.832 533.747 231.832Z" fill="#158A72"/>
<ellipse cx="57.475" cy="310" rx="24.1647" ry="24" fill="#FF6600"/>
<path d="M60.8933 303.93H65.8484C66.9529 303.93 67.8484 304.825 67.8484 305.93V312.291C67.8484 313.396 66.9529 314.291 65.8484 314.291H60.8933V303.93Z" stroke="white" stroke-width="2"/>
<path d="M61.3833 307.535H67.3031" stroke="white" stroke-width="2"/>
<rect x="48.4065" y="300" width="12.7995" height="20" rx="2" stroke="white" stroke-width="2"/>
<path d="M53.3276 308.488H52.5876H51.8477" stroke="white" stroke-width="2" stroke-linecap="round" stroke-linejoin="round"/>
<path d="M57.7666 308.488H57.0266H56.2866" stroke="white" stroke-width="2" stroke-linecap="round" stroke-linejoin="round"/>
<path d="M53.3276 311.941H52.5876H51.8477" stroke="white" stroke-width="2" stroke-linecap="round" stroke-linejoin="round"/>
<path d="M57.7666 311.941H57.0266H56.2866" stroke="white" stroke-width="2" stroke-linecap="round" stroke-linejoin="round"/>
<path d="M53.3276 315.391H52.5876H51.8477" stroke="white" stroke-width="2" stroke-linecap="round" stroke-linejoin="round"/>
<path d="M57.7666 315.391H57.0266H56.2866" stroke="white" stroke-width="2" stroke-linecap="round" stroke-linejoin="round"/>
<path d="M58.113 304.225H51.8721C51.8586 304.225 51.8477 304.214 51.8477 304.2C51.8477 304.187 51.8586 304.176 51.8721 304.176H58.113C58.1265 304.176 58.1374 304.187 58.1374 304.2C58.1374 304.214 58.1265 304.225 58.113 304.225Z" stroke="white" stroke-width="2"/>
<path d="M98.589 329V328.045L101.542 324.986C101.857 324.653 102.117 324.362 102.322 324.112C102.529 323.859 102.684 323.619 102.786 323.392C102.889 323.165 102.94 322.923 102.94 322.668C102.94 322.378 102.872 322.128 102.735 321.918C102.599 321.705 102.413 321.541 102.177 321.428C101.941 321.311 101.676 321.253 101.38 321.253C101.068 321.253 100.795 321.317 100.562 321.445C100.329 321.572 100.15 321.753 100.025 321.986C99.9001 322.219 99.8376 322.491 99.8376 322.804H98.5805C98.5805 322.273 98.7026 321.808 98.947 321.411C99.1913 321.013 99.5265 320.705 99.9526 320.486C100.379 320.264 100.863 320.153 101.406 320.153C101.954 320.153 102.437 320.263 102.855 320.482C103.275 320.697 103.603 320.993 103.839 321.368C104.075 321.74 104.193 322.161 104.193 322.629C104.193 322.953 104.132 323.27 104.009 323.58C103.89 323.889 103.681 324.234 103.383 324.615C103.085 324.993 102.67 325.452 102.139 325.991L100.404 327.807V327.871H104.333V329H98.589ZM109.107 329.145C108.433 329.142 107.858 328.964 107.381 328.612C106.904 328.26 106.539 327.747 106.286 327.074C106.033 326.401 105.906 325.589 105.906 324.641C105.906 323.695 106.033 322.886 106.286 322.216C106.541 321.545 106.908 321.034 107.385 320.682C107.865 320.33 108.439 320.153 109.107 320.153C109.774 320.153 110.347 320.331 110.824 320.686C111.301 321.038 111.666 321.55 111.919 322.22C112.175 322.888 112.303 323.695 112.303 324.641C112.303 325.592 112.176 326.405 111.923 327.078C111.671 327.749 111.306 328.261 110.828 328.616C110.351 328.969 109.777 329.145 109.107 329.145ZM109.107 328.007C109.698 328.007 110.159 327.719 110.492 327.142C110.827 326.565 110.995 325.732 110.995 324.641C110.995 323.916 110.918 323.304 110.764 322.804C110.614 322.301 110.397 321.92 110.112 321.662C109.831 321.401 109.496 321.27 109.107 321.27C108.519 321.27 108.057 321.56 107.722 322.139C107.387 322.719 107.218 323.553 107.215 324.641C107.215 325.368 107.29 325.983 107.441 326.486C107.594 326.986 107.811 327.365 108.093 327.624C108.374 327.879 108.712 328.007 109.107 328.007ZM116.919 321.406V320.273H123.673V321.406H120.95V329H119.638V321.406H116.919ZM125.58 322.455L127.025 325.003L128.482 322.455H129.875L127.834 325.727L129.893 329H128.499L127.025 326.554L125.554 329H124.157L126.194 325.727L124.182 322.455H125.58ZM132.578 325.114V329H131.304V322.455H132.527V323.52H132.608C132.758 323.173 132.994 322.895 133.315 322.685C133.639 322.474 134.047 322.369 134.538 322.369C134.984 322.369 135.375 322.463 135.71 322.651C136.045 322.835 136.305 323.111 136.49 323.477C136.674 323.844 136.767 324.297 136.767 324.837V329H135.493V324.99C135.493 324.516 135.369 324.145 135.122 323.878C134.875 323.608 134.535 323.473 134.103 323.473C133.808 323.473 133.545 323.537 133.315 323.665C133.088 323.793 132.907 323.98 132.774 324.227C132.643 324.472 132.578 324.767 132.578 325.114Z" fill="black" fill-opacity="0.56"/>
<path d="M98.7403 310V301.818H100.583V303.208H100.679C100.85 302.74 101.132 302.374 101.526 302.111C101.92 301.845 102.391 301.712 102.938 301.712C103.492 301.712 103.959 301.847 104.339 302.116C104.722 302.383 104.992 302.747 105.148 303.208H105.234C105.415 302.754 105.72 302.392 106.15 302.122C106.583 301.848 107.096 301.712 107.689 301.712C108.442 301.712 109.056 301.95 109.532 302.425C110.008 302.901 110.246 303.596 110.246 304.508V310H108.312V304.806C108.312 304.299 108.177 303.928 107.908 303.693C107.638 303.455 107.307 303.336 106.917 303.336C106.452 303.336 106.088 303.482 105.825 303.773C105.566 304.061 105.436 304.435 105.436 304.897V310H103.545V304.727C103.545 304.304 103.417 303.967 103.161 303.714C102.909 303.462 102.579 303.336 102.171 303.336C101.894 303.336 101.642 303.407 101.414 303.549C101.187 303.688 101.006 303.885 100.871 304.141C100.736 304.393 100.669 304.687 100.669 305.025V310H98.7403ZM113.838 310H111.729L115.57 299.091H118.009L121.855 310H119.746L116.832 301.328H116.747L113.838 310ZM113.908 305.723H119.66V307.31H113.908V305.723ZM121.644 300.748V299.091H130.348V300.748H126.976V310H125.016V300.748H121.644ZM132.176 299.091H134.594L137.833 306.996H137.961L141.199 299.091H143.618V310H141.721V302.505H141.62L138.605 309.968H137.188L134.173 302.489H134.072V310H132.176V299.091Z" fill="black"/>
<line x1="33.3103" y1="360.5" x2="539.763" y2="360.5" stroke="#F5F5F5"/>
<path d="M490.796 300.304L490.443 301.607H483.846L484.204 300.304H490.796ZM487.48 308L484 303.814L483.995 302.71H485.715C486.126 302.71 486.469 302.642 486.744 302.506C487.023 302.367 487.233 302.173 487.376 301.925C487.522 301.673 487.595 301.378 487.595 301.04C487.595 300.533 487.445 300.125 487.147 299.817C486.849 299.509 486.372 299.354 485.715 299.354H483.846L484.234 297.818H485.715C486.551 297.818 487.242 297.947 487.788 298.206C488.339 298.461 488.75 298.822 489.021 299.29C489.297 299.757 489.434 300.304 489.434 300.93C489.434 301.484 489.333 301.978 489.131 302.412C488.929 302.846 488.61 303.202 488.176 303.481C487.742 303.759 487.174 303.945 486.471 304.038L486.411 304.058L489.553 307.911V308H487.48ZM490.806 297.818L490.443 299.141L485.094 299.121L485.457 297.818H490.806ZM496.44 297.818V308H494.595V299.613H494.536L492.154 301.134V299.444L494.685 297.818H496.44ZM498.981 306.111V304.644L503.301 297.818H504.524V299.906H503.779L500.87 304.515V304.594H506.901V306.111H498.981ZM503.838 308V305.663L503.858 305.007V297.818H505.598V308H503.838ZM510.475 306.608L510.41 307.155C510.364 307.572 510.281 307.997 510.162 308.428C510.046 308.862 509.923 309.261 509.794 309.626C509.665 309.99 509.56 310.277 509.481 310.486H508.268C508.314 310.284 508.377 310.009 508.457 309.661C508.539 309.313 508.619 308.921 508.695 308.487C508.771 308.053 508.823 307.612 508.849 307.165L508.884 306.608H510.475ZM516.028 308.139C515.365 308.139 514.772 308.015 514.248 307.766C513.724 307.514 513.308 307.17 513 306.732C512.695 306.295 512.533 305.794 512.513 305.231H514.303C514.336 305.648 514.516 305.99 514.845 306.255C515.173 306.517 515.567 306.648 516.028 306.648C516.389 306.648 516.711 306.565 516.992 306.399C517.274 306.233 517.496 306.003 517.658 305.708C517.821 305.413 517.9 305.077 517.897 304.699C517.9 304.314 517.819 303.973 517.654 303.675C517.488 303.376 517.261 303.143 516.972 302.974C516.684 302.801 516.353 302.715 515.978 302.715C515.673 302.712 515.373 302.768 515.078 302.884C514.783 303 514.55 303.153 514.377 303.342L512.712 303.068L513.244 297.818H519.15V299.359H514.77L514.477 302.059H514.536C514.725 301.837 514.992 301.653 515.337 301.507C515.681 301.358 516.059 301.283 516.47 301.283C517.087 301.283 517.637 301.429 518.121 301.721C518.605 302.009 518.986 302.407 519.264 302.914C519.543 303.421 519.682 304.001 519.682 304.654C519.682 305.327 519.526 305.927 519.215 306.454C518.906 306.978 518.477 307.39 517.927 307.692C517.38 307.99 516.747 308.139 516.028 308.139ZM525.251 308.194C524.432 308.194 523.73 307.987 523.143 307.572C522.56 307.155 522.111 306.553 521.796 305.768C521.484 304.979 521.328 304.029 521.328 302.919C521.332 301.809 521.489 300.864 521.801 300.085C522.115 299.303 522.565 298.706 523.148 298.295C523.735 297.884 524.436 297.679 525.251 297.679C526.066 297.679 526.767 297.884 527.354 298.295C527.941 298.706 528.39 299.303 528.701 300.085C529.016 300.867 529.173 301.812 529.173 302.919C529.173 304.033 529.016 304.984 528.701 305.773C528.39 306.558 527.941 307.158 527.354 307.572C526.771 307.987 526.07 308.194 525.251 308.194ZM525.251 306.638C525.887 306.638 526.389 306.325 526.757 305.698C527.128 305.068 527.314 304.142 527.314 302.919C527.314 302.11 527.23 301.431 527.061 300.881C526.892 300.33 526.653 299.916 526.345 299.638C526.036 299.356 525.672 299.215 525.251 299.215C524.618 299.215 524.117 299.53 523.749 300.16C523.382 300.786 523.196 301.706 523.193 302.919C523.189 303.731 523.271 304.414 523.436 304.967C523.605 305.521 523.844 305.938 524.152 306.22C524.46 306.499 524.827 306.638 525.251 306.638ZM534.729 308.194C533.91 308.194 533.207 307.987 532.621 307.572C532.037 307.155 531.588 306.553 531.274 305.768C530.962 304.979 530.806 304.029 530.806 302.919C530.81 301.809 530.967 300.864 531.278 300.085C531.593 299.303 532.042 298.706 532.626 298.295C533.212 297.884 533.913 297.679 534.729 297.679C535.544 297.679 536.245 297.884 536.832 298.295C537.418 298.706 537.868 299.303 538.179 300.085C538.494 300.867 538.651 301.812 538.651 302.919C538.651 304.033 538.494 304.984 538.179 305.773C537.868 306.558 537.418 307.158 536.832 307.572C536.248 307.987 535.547 308.194 534.729 308.194ZM534.729 306.638C535.365 306.638 535.867 306.325 536.235 305.698C536.606 305.068 536.792 304.142 536.792 302.919C536.792 302.11 536.707 301.431 536.538 300.881C536.369 300.33 536.131 299.916 535.823 299.638C535.514 299.356 535.15 299.215 534.729 299.215C534.096 299.215 533.595 299.53 533.227 300.16C532.859 300.786 532.674 301.706 532.671 302.919C532.667 303.731 532.748 304.414 532.914 304.967C533.083 305.521 533.322 305.938 533.63 306.22C533.938 306.499 534.305 306.638 534.729 306.638Z" fill="black"/>
<path d="M504.261 322.403L503.958 323.52H498.304L498.61 322.403H504.261ZM501.419 329L498.436 325.412L498.431 324.466H499.906C500.258 324.466 500.552 324.408 500.788 324.291C501.027 324.172 501.207 324.006 501.329 323.793C501.454 323.577 501.517 323.324 501.517 323.034C501.517 322.599 501.389 322.25 501.133 321.986C500.878 321.722 500.468 321.589 499.906 321.589H498.304L498.636 320.273H499.906C500.622 320.273 501.214 320.384 501.683 320.605C502.155 320.824 502.507 321.134 502.74 321.534C502.976 321.935 503.093 322.403 503.093 322.94C503.093 323.415 503.007 323.838 502.833 324.21C502.66 324.582 502.387 324.888 502.015 325.126C501.643 325.365 501.156 325.524 500.554 325.604L500.503 325.621L503.196 328.923V329H501.419ZM504.27 320.273L503.958 321.406L499.373 321.389L499.684 320.273H504.27ZM509.098 320.273V329H507.517V321.811H507.466L505.425 323.115V321.666L507.594 320.273H509.098ZM512.782 327.807L512.727 328.276C512.687 328.634 512.616 328.997 512.513 329.366C512.414 329.739 512.309 330.081 512.198 330.393C512.087 330.706 511.998 330.952 511.93 331.131H510.89C510.93 330.957 510.984 330.722 511.052 330.423C511.123 330.125 511.191 329.79 511.256 329.418C511.322 329.045 511.366 328.668 511.388 328.284L511.418 327.807H512.782ZM517.499 329.166C516.797 329.166 516.195 328.989 515.692 328.634C515.192 328.276 514.807 327.76 514.537 327.087C514.27 326.411 514.137 325.597 514.137 324.645C514.14 323.693 514.274 322.884 514.541 322.216C514.811 321.545 515.196 321.034 515.696 320.682C516.199 320.33 516.8 320.153 517.499 320.153C518.198 320.153 518.799 320.33 519.301 320.682C519.804 321.034 520.189 321.545 520.456 322.216C520.726 322.886 520.861 323.696 520.861 324.645C520.861 325.599 520.726 326.415 520.456 327.091C520.189 327.764 519.804 328.278 519.301 328.634C518.801 328.989 518.201 329.166 517.499 329.166ZM517.499 327.832C518.044 327.832 518.475 327.564 518.79 327.027C519.108 326.487 519.267 325.693 519.267 324.645C519.267 323.952 519.195 323.369 519.05 322.898C518.905 322.426 518.701 322.071 518.436 321.832C518.172 321.591 517.86 321.47 517.499 321.47C516.956 321.47 516.527 321.74 516.212 322.28C515.897 322.817 515.738 323.605 515.735 324.645C515.732 325.341 515.801 325.926 515.943 326.401C516.088 326.875 516.293 327.233 516.557 327.474C516.821 327.713 517.135 327.832 517.499 327.832ZM525.623 329.166C524.921 329.166 524.319 328.989 523.816 328.634C523.316 328.276 522.931 327.76 522.661 327.087C522.394 326.411 522.261 325.597 522.261 324.645C522.263 323.693 522.398 322.884 522.665 322.216C522.935 321.545 523.32 321.034 523.82 320.682C524.323 320.33 524.924 320.153 525.623 320.153C526.322 320.153 526.922 320.33 527.425 320.682C527.928 321.034 528.313 321.545 528.58 322.216C528.85 322.886 528.985 323.696 528.985 324.645C528.985 325.599 528.85 326.415 528.58 327.091C528.313 327.764 527.928 328.278 527.425 328.634C526.925 328.989 526.324 329.166 525.623 329.166ZM525.623 327.832C526.168 327.832 526.599 327.564 526.914 327.027C527.232 326.487 527.391 325.693 527.391 324.645C527.391 323.952 527.319 323.369 527.174 322.898C527.029 322.426 526.824 322.071 526.56 321.832C526.296 321.591 525.984 321.47 525.623 321.47C525.08 321.47 524.651 321.74 524.336 322.28C524.021 322.817 523.861 323.605 523.859 324.645C523.856 325.341 523.925 325.926 524.067 326.401C524.212 326.875 524.417 327.233 524.681 327.474C524.945 327.713 525.259 327.832 525.623 327.832ZM533.747 329.166C533.045 329.166 532.443 328.989 531.94 328.634C531.44 328.276 531.055 327.76 530.785 327.087C530.518 326.411 530.384 325.597 530.384 324.645C530.387 323.693 530.522 322.884 530.789 322.216C531.059 321.545 531.444 321.034 531.944 320.682C532.447 320.33 533.048 320.153 533.747 320.153C534.446 320.153 535.046 320.33 535.549 320.682C536.052 321.034 536.437 321.545 536.704 322.216C536.974 322.886 537.109 323.696 537.109 324.645C537.109 325.599 536.974 326.415 536.704 327.091C536.437 327.764 536.052 328.278 535.549 328.634C535.049 328.989 534.448 329.166 533.747 329.166ZM533.747 327.832C534.292 327.832 534.723 327.564 535.038 327.027C535.356 326.487 535.515 325.693 535.515 324.645C535.515 323.952 535.443 323.369 535.298 322.898C535.153 322.426 534.948 322.071 534.684 321.832C534.42 321.591 534.107 321.47 533.747 321.47C533.204 321.47 532.775 321.74 532.46 322.28C532.144 322.817 531.985 323.605 531.982 324.645C531.98 325.341 532.049 325.926 532.191 326.401C532.336 326.875 532.541 327.233 532.805 327.474C533.069 327.713 533.383 327.832 533.747 327.832Z" fill="#158A72"/>
<ellipse cx="57.475" cy="406" rx="24.1647" ry="24" fill="#DE3838"/>
<path d="M57.3913 416.75L53.9281 413.663C52.6192 412.489 51.4966 411.442 50.5604 410.521C49.6241 409.6 48.8515 408.733 48.2425 407.921C47.6335 407.108 47.1881 406.323 46.9063 405.565C46.6245 404.806 46.4836 404.012 46.4836 403.181C46.4836 401.484 47.0563 400.071 48.2016 398.943C49.3469 397.814 50.774 397.25 52.4829 397.25C53.4282 397.25 54.3281 397.449 55.1825 397.846C56.037 398.243 56.7732 398.803 57.3913 399.525C58.0094 398.803 58.7457 398.243 59.6001 397.846C60.4546 397.449 61.3545 397.25 62.2998 397.25C63.7723 397.25 65.0085 397.661 66.0084 398.482C67.0083 399.304 67.69 400.338 68.0536 401.583H65.7357C65.4085 400.861 64.9267 400.319 64.2904 399.958C63.6542 399.597 62.9906 399.417 62.2998 399.417C61.3726 399.417 60.5727 399.665 59.9001 400.161C59.2275 400.658 58.6003 401.313 58.0185 402.125H56.7641C56.2006 401.313 55.5598 400.658 54.8417 400.161C54.1236 399.665 53.3373 399.417 52.4829 399.417C51.4466 399.417 50.5513 399.773 49.7969 400.486C49.0424 401.2 48.6652 402.098 48.6652 403.181C48.6652 403.777 48.7924 404.382 49.0469 404.996C49.3015 405.61 49.7559 406.318 50.4104 407.122C51.0649 407.925 51.9557 408.864 53.0828 409.939C54.2099 411.013 55.6461 412.308 57.3913 413.825C57.864 413.41 58.4185 412.931 59.0548 412.39C59.691 411.848 60.2001 411.397 60.5818 411.035L60.8273 411.279L61.359 411.807L61.8908 412.335L62.1362 412.579C61.7362 412.94 61.2272 413.387 60.6091 413.92C59.991 414.452 59.4456 414.926 58.9729 415.342L57.3913 416.75ZM65.0267 412.417V409.167H61.7544V407H65.0267V403.75H67.2083V407H70.4806V409.167H67.2083V412.417H65.0267Z" fill="white"/>
<path d="M101.627 425.119C101.042 425.119 100.519 425.018 100.059 424.817C99.6018 424.615 99.2396 424.335 98.9725 423.977C98.7083 423.616 98.5663 423.199 98.5464 422.724H99.8845C99.9015 422.983 99.9881 423.207 100.144 423.398C100.303 423.585 100.511 423.73 100.767 423.832C101.022 423.935 101.306 423.986 101.619 423.986C101.963 423.986 102.267 423.926 102.531 423.807C102.798 423.687 103.007 423.521 103.157 423.308C103.308 423.092 103.383 422.844 103.383 422.562C103.383 422.27 103.308 422.013 103.157 421.791C103.009 421.567 102.792 421.391 102.505 421.263C102.221 421.135 101.877 421.071 101.474 421.071H100.737V419.997H101.474C101.798 419.997 102.082 419.939 102.326 419.822C102.573 419.706 102.767 419.544 102.906 419.337C103.045 419.126 103.115 418.881 103.115 418.599C103.115 418.33 103.053 418.095 102.931 417.896C102.812 417.695 102.642 417.537 102.42 417.423C102.201 417.31 101.943 417.253 101.644 417.253C101.36 417.253 101.095 417.305 100.848 417.411C100.603 417.513 100.404 417.661 100.251 417.854C100.098 418.044 100.015 418.273 100.004 418.54H98.7296C98.7438 418.068 98.883 417.653 99.1472 417.295C99.4143 416.937 99.7666 416.658 100.204 416.456C100.642 416.254 101.127 416.153 101.661 416.153C102.221 416.153 102.704 416.263 103.11 416.482C103.519 416.697 103.835 416.986 104.056 417.347C104.281 417.707 104.392 418.102 104.389 418.531C104.392 419.02 104.255 419.435 103.98 419.776C103.707 420.116 103.343 420.345 102.889 420.462V420.53C103.468 420.618 103.917 420.848 104.235 421.22C104.556 421.592 104.715 422.054 104.713 422.605C104.715 423.085 104.582 423.516 104.312 423.896C104.045 424.277 103.68 424.577 103.217 424.795C102.754 425.011 102.224 425.119 101.627 425.119ZM106.26 423.295V422.23L110.031 416.273H110.871V417.841H110.338L107.641 422.111V422.179H112.81V423.295H106.26ZM110.398 425V422.972L110.406 422.486V416.273H111.655V425H110.398ZM117.4 417.406V416.273H124.154V417.406H121.431V425H120.118V417.406H117.4ZM126.06 418.455L127.505 421.003L128.962 418.455H130.356L128.315 421.727L130.373 425H128.98L127.505 422.554L126.035 425H124.637L126.674 421.727L124.663 418.455H126.06ZM133.058 421.114V425H131.784V418.455H133.007V419.52H133.088C133.239 419.173 133.475 418.895 133.796 418.685C134.119 418.474 134.527 418.369 135.019 418.369C135.465 418.369 135.855 418.463 136.19 418.651C136.526 418.835 136.786 419.111 136.97 419.477C137.155 419.844 137.247 420.297 137.247 420.837V425H135.973V420.99C135.973 420.516 135.85 420.145 135.602 419.878C135.355 419.608 135.016 419.473 134.584 419.473C134.288 419.473 134.026 419.537 133.796 419.665C133.568 419.793 133.388 419.98 133.254 420.227C133.124 420.472 133.058 420.767 133.058 421.114Z" fill="black" fill-opacity="0.56"/>
<path d="M100.802 395.091V406H98.8255V395.091H100.802ZM104.935 401.206V406H103.006V397.818H104.85V399.208H104.945C105.134 398.75 105.434 398.386 105.846 398.116C106.261 397.847 106.774 397.712 107.385 397.712C107.95 397.712 108.442 397.832 108.861 398.074C109.283 398.315 109.61 398.665 109.841 399.123C110.075 399.581 110.19 400.137 110.187 400.79V406H108.259V401.089C108.259 400.542 108.117 400.114 107.832 399.805C107.552 399.496 107.163 399.342 106.666 399.342C106.329 399.342 106.029 399.416 105.766 399.565C105.506 399.711 105.302 399.922 105.153 400.199C105.008 400.476 104.935 400.812 104.935 401.206ZM118.764 399.981L117.006 400.173C116.956 399.995 116.869 399.828 116.745 399.672C116.624 399.516 116.461 399.39 116.255 399.294C116.049 399.198 115.797 399.15 115.498 399.15C115.097 399.15 114.76 399.237 114.486 399.411C114.217 399.585 114.083 399.81 114.087 400.087C114.083 400.325 114.17 400.519 114.348 400.668C114.529 400.817 114.827 400.94 115.243 401.036L116.638 401.334C117.413 401.501 117.988 401.765 118.364 402.127C118.744 402.49 118.936 402.964 118.94 403.55C118.936 404.065 118.785 404.519 118.487 404.913C118.192 405.304 117.782 405.609 117.256 405.83C116.731 406.05 116.127 406.16 115.445 406.16C114.444 406.16 113.638 405.95 113.027 405.531C112.416 405.109 112.052 404.521 111.935 403.768L113.815 403.587C113.9 403.956 114.082 404.235 114.359 404.423C114.636 404.612 114.996 404.706 115.44 404.706C115.898 404.706 116.266 404.612 116.542 404.423C116.823 404.235 116.963 404.002 116.963 403.725C116.963 403.491 116.873 403.298 116.692 403.145C116.514 402.992 116.237 402.875 115.861 402.793L114.465 402.5C113.68 402.337 113.1 402.062 112.723 401.675C112.347 401.284 112.16 400.79 112.164 400.194C112.16 399.69 112.297 399.253 112.574 398.884C112.855 398.511 113.243 398.223 113.741 398.021C114.241 397.815 114.818 397.712 115.472 397.712C116.431 397.712 117.185 397.916 117.736 398.324C118.29 398.733 118.632 399.285 118.764 399.981ZM125.894 402.559V397.818H127.823V406H125.953V404.546H125.868C125.683 405.004 125.379 405.379 124.957 405.67C124.538 405.961 124.021 406.107 123.407 406.107C122.871 406.107 122.397 405.988 121.985 405.75C121.576 405.508 121.257 405.158 121.026 404.7C120.795 404.239 120.68 403.681 120.68 403.028V397.818H122.608V402.729C122.608 403.248 122.75 403.66 123.034 403.965C123.318 404.271 123.691 404.423 124.153 404.423C124.437 404.423 124.712 404.354 124.978 404.216C125.245 404.077 125.463 403.871 125.633 403.598C125.807 403.321 125.894 402.974 125.894 402.559ZM129.956 406V397.818H131.825V399.182H131.91C132.06 398.71 132.315 398.346 132.677 398.09C133.043 397.831 133.46 397.701 133.929 397.701C134.036 397.701 134.155 397.706 134.286 397.717C134.421 397.724 134.533 397.737 134.622 397.754V399.528C134.54 399.5 134.41 399.475 134.233 399.453C134.059 399.429 133.89 399.416 133.727 399.416C133.375 399.416 133.059 399.493 132.779 399.645C132.502 399.794 132.283 400.002 132.123 400.268C131.964 400.535 131.884 400.842 131.884 401.19V406H129.956ZM138.261 406.165C137.742 406.165 137.275 406.073 136.86 405.888C136.448 405.7 136.121 405.423 135.88 405.057C135.642 404.691 135.523 404.24 135.523 403.704C135.523 403.243 135.608 402.861 135.778 402.559C135.949 402.257 136.182 402.016 136.476 401.835C136.771 401.653 137.103 401.517 137.472 401.424C137.845 401.328 138.231 401.259 138.628 401.217C139.108 401.167 139.496 401.123 139.795 401.083C140.093 401.041 140.31 400.977 140.445 400.892C140.583 400.803 140.652 400.666 140.652 400.482V400.45C140.652 400.048 140.533 399.738 140.295 399.517C140.058 399.297 139.715 399.187 139.267 399.187C138.795 399.187 138.42 399.29 138.144 399.496C137.87 399.702 137.685 399.945 137.59 400.226L135.789 399.97C135.931 399.473 136.166 399.058 136.492 398.724C136.819 398.386 137.218 398.134 137.691 397.967C138.163 397.797 138.685 397.712 139.257 397.712C139.651 397.712 140.043 397.758 140.434 397.85C140.825 397.942 141.182 398.095 141.505 398.308C141.828 398.518 142.087 398.804 142.282 399.166C142.481 399.528 142.581 399.981 142.581 400.524V406H140.727V404.876H140.663C140.546 405.103 140.381 405.316 140.168 405.515C139.958 405.711 139.694 405.869 139.374 405.989C139.058 406.107 138.687 406.165 138.261 406.165ZM138.761 404.748C139.148 404.748 139.484 404.672 139.768 404.519C140.052 404.363 140.271 404.157 140.423 403.901C140.58 403.646 140.658 403.367 140.658 403.065V402.101C140.597 402.151 140.494 402.197 140.349 402.239C140.207 402.282 140.047 402.319 139.869 402.351C139.692 402.383 139.516 402.412 139.342 402.436C139.168 402.461 139.017 402.483 138.889 402.5C138.602 402.539 138.344 402.603 138.117 402.692C137.89 402.781 137.71 402.905 137.579 403.065C137.447 403.221 137.382 403.424 137.382 403.672C137.382 404.027 137.511 404.295 137.771 404.477C138.03 404.658 138.36 404.748 138.761 404.748ZM146.598 401.206V406H144.67V397.818H146.513V399.208H146.608C146.797 398.75 147.097 398.386 147.509 398.116C147.924 397.847 148.437 397.712 149.048 397.712C149.613 397.712 150.105 397.832 150.524 398.074C150.946 398.315 151.273 398.665 151.504 399.123C151.738 399.581 151.854 400.137 151.85 400.79V406H149.922V401.089C149.922 400.542 149.78 400.114 149.496 399.805C149.215 399.496 148.826 399.342 148.329 399.342C147.992 399.342 147.692 399.416 147.429 399.565C147.17 399.711 146.965 399.922 146.816 400.199C146.671 400.476 146.598 400.812 146.598 401.206ZM157.529 406.16C156.712 406.16 156.011 405.98 155.425 405.622C154.843 405.263 154.393 404.768 154.077 404.136C153.765 403.5 153.609 402.768 153.609 401.941C153.609 401.11 153.768 400.377 154.088 399.741C154.408 399.102 154.859 398.605 155.441 398.25C156.027 397.891 156.719 397.712 157.518 397.712C158.183 397.712 158.77 397.834 159.282 398.079C159.796 398.321 160.207 398.663 160.512 399.107C160.817 399.548 160.991 400.062 161.034 400.652H159.191C159.116 400.258 158.939 399.929 158.658 399.667C158.381 399.4 158.01 399.267 157.545 399.267C157.151 399.267 156.805 399.374 156.506 399.587C156.208 399.796 155.975 400.098 155.809 400.492C155.645 400.886 155.564 401.359 155.564 401.909C155.564 402.467 155.645 402.946 155.809 403.347C155.972 403.745 156.201 404.052 156.496 404.269C156.794 404.482 157.144 404.588 157.545 404.588C157.829 404.588 158.083 404.535 158.307 404.429C158.534 404.319 158.724 404.161 158.877 403.955C159.029 403.749 159.134 403.498 159.191 403.203H161.034C160.988 403.782 160.817 404.295 160.523 404.743C160.228 405.187 159.827 405.535 159.319 405.787C158.811 406.036 158.214 406.16 157.529 406.16ZM166.39 406.16C165.569 406.16 164.861 405.989 164.264 405.648C163.671 405.304 163.215 404.817 162.895 404.189C162.576 403.557 162.416 402.813 162.416 401.957C162.416 401.115 162.576 400.377 162.895 399.741C163.218 399.102 163.669 398.605 164.248 398.25C164.827 397.891 165.507 397.712 166.288 397.712C166.793 397.712 167.268 397.793 167.716 397.957C168.167 398.116 168.565 398.365 168.909 398.702C169.257 399.04 169.531 399.469 169.729 399.991C169.928 400.51 170.028 401.128 170.028 401.845V402.436H163.321V401.137H168.179C168.176 400.767 168.096 400.439 167.94 400.151C167.783 399.86 167.565 399.631 167.284 399.464C167.007 399.297 166.684 399.214 166.315 399.214C165.921 399.214 165.575 399.31 165.276 399.501C164.978 399.69 164.745 399.938 164.579 400.247C164.415 400.553 164.332 400.888 164.328 401.254V402.388C164.328 402.864 164.415 403.273 164.589 403.614C164.763 403.951 165.006 404.21 165.319 404.391C165.631 404.569 165.997 404.658 166.416 404.658C166.697 404.658 166.951 404.619 167.178 404.54C167.405 404.459 167.602 404.34 167.769 404.184C167.936 404.027 168.062 403.834 168.147 403.603L169.948 403.805C169.834 404.281 169.618 404.697 169.298 405.052C168.982 405.403 168.577 405.677 168.083 405.872C167.59 406.064 167.025 406.16 166.39 406.16Z" fill="black"/>
<path d="M484.755 396.304L484.402 397.607H477.805L478.163 396.304H484.755ZM481.439 404L477.959 399.814L477.954 398.71H479.674C480.085 398.71 480.428 398.642 480.703 398.506C480.982 398.367 481.192 398.173 481.335 397.925C481.48 397.673 481.553 397.378 481.553 397.04C481.553 396.533 481.404 396.125 481.106 395.817C480.808 395.509 480.33 395.354 479.674 395.354H477.805L478.193 393.818H479.674C480.509 393.818 481.2 393.947 481.747 394.206C482.297 394.461 482.708 394.822 482.98 395.29C483.255 395.757 483.393 396.304 483.393 396.93C483.393 397.484 483.292 397.978 483.09 398.412C482.887 398.846 482.569 399.202 482.135 399.481C481.701 399.759 481.132 399.945 480.43 400.038L480.37 400.058L483.512 403.911V404H481.439ZM484.765 393.818L484.402 395.141L479.053 395.121L479.416 393.818H484.765ZM489.911 404.139C489.195 404.139 488.559 404.017 488.002 403.771C487.449 403.526 487.011 403.185 486.69 402.747C486.368 402.31 486.198 401.804 486.178 401.231H488.047C488.064 401.506 488.155 401.746 488.32 401.952C488.486 402.154 488.707 402.311 488.982 402.424C489.257 402.537 489.565 402.593 489.906 402.593C490.271 402.593 490.594 402.53 490.876 402.404C491.158 402.275 491.378 402.096 491.537 401.867C491.696 401.638 491.774 401.375 491.771 401.077C491.774 400.768 491.694 400.497 491.532 400.261C491.37 400.026 491.134 399.842 490.826 399.71C490.521 399.577 490.153 399.511 489.722 399.511H488.823V398.089H489.722C490.077 398.089 490.387 398.027 490.652 397.905C490.921 397.782 491.131 397.61 491.284 397.388C491.436 397.162 491.511 396.902 491.507 396.607C491.511 396.319 491.446 396.069 491.313 395.857C491.184 395.641 491 395.474 490.761 395.354C490.526 395.235 490.249 395.175 489.931 395.175C489.62 395.175 489.331 395.232 489.066 395.344C488.801 395.457 488.587 395.618 488.425 395.827C488.262 396.032 488.176 396.277 488.166 396.562H486.391C486.405 395.992 486.569 395.492 486.884 395.061C487.202 394.627 487.626 394.289 488.156 394.047C488.687 393.802 489.282 393.679 489.941 393.679C490.621 393.679 491.211 393.807 491.711 394.062C492.215 394.314 492.604 394.653 492.879 395.081C493.154 395.509 493.292 395.981 493.292 396.498C493.295 397.071 493.126 397.552 492.785 397.94C492.447 398.327 492.003 398.581 491.453 398.7V398.78C492.168 398.879 492.717 399.144 493.098 399.575C493.483 400.003 493.673 400.535 493.67 401.171C493.67 401.741 493.507 402.252 493.183 402.702C492.861 403.15 492.417 403.501 491.85 403.756C491.287 404.012 490.641 404.139 489.911 404.139ZM495.332 402.111V400.644L499.653 393.818H500.876V395.906H500.13L497.222 400.515V400.594H503.252V402.111H495.332ZM500.19 404V401.663L500.21 401.007V393.818H501.95V404H500.19ZM506.826 402.608L506.762 403.155C506.715 403.572 506.632 403.997 506.513 404.428C506.397 404.862 506.274 405.261 506.145 405.626C506.016 405.99 505.912 406.277 505.832 406.486H504.619C504.665 406.284 504.728 406.009 504.808 405.661C504.891 405.313 504.97 404.921 505.046 404.487C505.123 404.053 505.174 403.612 505.201 403.165L505.235 402.608H506.826ZM508.778 402.111V400.644L513.099 393.818H514.322V395.906H513.576L510.668 400.515V400.594H516.698V402.111H508.778ZM513.636 404V401.663L513.656 401.007V393.818H515.396V404H513.636ZM522.19 404.194C521.371 404.194 520.669 403.987 520.082 403.572C519.499 403.155 519.05 402.553 518.735 401.768C518.423 400.979 518.268 400.029 518.268 398.919C518.271 397.809 518.428 396.864 518.74 396.085C519.055 395.303 519.504 394.706 520.087 394.295C520.674 393.884 521.375 393.679 522.19 393.679C523.005 393.679 523.706 393.884 524.293 394.295C524.88 394.706 525.329 395.303 525.64 396.085C525.955 396.867 526.113 397.812 526.113 398.919C526.113 400.033 525.955 400.984 525.64 401.773C525.329 402.558 524.88 403.158 524.293 403.572C523.71 403.987 523.009 404.194 522.19 404.194ZM522.19 402.638C522.826 402.638 523.329 402.325 523.696 401.698C524.068 401.068 524.253 400.142 524.253 398.919C524.253 398.11 524.169 397.431 524 396.881C523.831 396.33 523.592 395.916 523.284 395.638C522.976 395.356 522.611 395.215 522.19 395.215C521.557 395.215 521.057 395.53 520.689 396.16C520.321 396.786 520.135 397.706 520.132 398.919C520.129 399.731 520.21 400.414 520.375 400.967C520.545 401.521 520.783 401.938 521.091 402.22C521.4 402.499 521.766 402.638 522.19 402.638ZM531.668 404.194C530.849 404.194 530.147 403.987 529.56 403.572C528.977 403.155 528.528 402.553 528.213 401.768C527.901 400.979 527.745 400.029 527.745 398.919C527.749 397.809 527.906 396.864 528.218 396.085C528.533 395.303 528.982 394.706 529.565 394.295C530.152 393.884 530.853 393.679 531.668 393.679C532.483 393.679 533.184 393.884 533.771 394.295C534.358 394.706 534.807 395.303 535.118 396.085C535.433 396.867 535.591 397.812 535.591 398.919C535.591 400.033 535.433 400.984 535.118 401.773C534.807 402.558 534.358 403.158 533.771 403.572C533.188 403.987 532.487 404.194 531.668 404.194ZM531.668 402.638C532.304 402.638 532.806 402.325 533.174 401.698C533.546 401.068 533.731 400.142 533.731 398.919C533.731 398.11 533.647 397.431 533.478 396.881C533.309 396.33 533.07 395.916 532.762 395.638C532.454 395.356 532.089 395.215 531.668 395.215C531.035 395.215 530.534 395.53 530.167 396.16C529.799 396.786 529.613 397.706 529.61 398.919C529.606 399.731 529.688 400.414 529.853 400.967C530.022 401.521 530.261 401.938 530.569 402.22C530.878 402.499 531.244 402.638 531.668 402.638Z" fill="black"/>
<path d="M501.66 418.403L501.357 419.52H495.702L496.009 418.403H501.66ZM498.817 425L495.834 421.412L495.83 420.466H497.304C497.657 420.466 497.951 420.408 498.187 420.291C498.425 420.172 498.606 420.006 498.728 419.793C498.853 419.577 498.915 419.324 498.915 419.034C498.915 418.599 498.787 418.25 498.532 417.986C498.276 417.722 497.867 417.589 497.304 417.589H495.702L496.035 416.273H497.304C498.02 416.273 498.613 416.384 499.081 416.605C499.553 416.824 499.905 417.134 500.138 417.534C500.374 417.935 500.492 418.403 500.492 418.94C500.492 419.415 500.405 419.838 500.232 420.21C500.059 420.582 499.786 420.888 499.414 421.126C499.042 421.365 498.554 421.524 497.952 421.604L497.901 421.621L500.594 424.923V425H498.817ZM501.668 416.273L501.357 417.406L496.772 417.389L497.083 416.273H501.668ZM506.079 425.119C505.466 425.119 504.92 425.014 504.443 424.804C503.968 424.594 503.593 424.301 503.318 423.926C503.042 423.551 502.896 423.118 502.879 422.626H504.481C504.495 422.862 504.574 423.068 504.716 423.244C504.858 423.418 505.047 423.553 505.282 423.649C505.518 423.746 505.782 423.794 506.075 423.794C506.388 423.794 506.664 423.74 506.906 423.632C507.147 423.521 507.336 423.368 507.473 423.172C507.609 422.976 507.676 422.75 507.673 422.494C507.676 422.23 507.608 421.997 507.468 421.795C507.329 421.594 507.128 421.436 506.863 421.322C506.602 421.209 506.287 421.152 505.917 421.152H505.146V419.933H505.917C506.221 419.933 506.487 419.881 506.714 419.776C506.944 419.67 507.125 419.523 507.255 419.332C507.386 419.139 507.45 418.916 507.447 418.663C507.45 418.416 507.395 418.202 507.281 418.02C507.17 417.835 507.013 417.692 506.808 417.589C506.606 417.487 506.369 417.436 506.096 417.436C505.829 417.436 505.582 417.484 505.355 417.581C505.128 417.678 504.944 417.815 504.805 417.994C504.666 418.17 504.592 418.381 504.584 418.625H503.062C503.074 418.136 503.214 417.707 503.484 417.338C503.757 416.966 504.12 416.676 504.575 416.469C505.03 416.259 505.539 416.153 506.105 416.153C506.687 416.153 507.193 416.263 507.622 416.482C508.054 416.697 508.388 416.989 508.623 417.355C508.859 417.722 508.977 418.126 508.977 418.57C508.98 419.061 508.835 419.473 508.542 419.805C508.253 420.138 507.872 420.355 507.4 420.457V420.526C508.014 420.611 508.484 420.838 508.811 421.207C509.14 421.574 509.304 422.03 509.301 422.575C509.301 423.064 509.162 423.501 508.883 423.888C508.608 424.271 508.227 424.572 507.741 424.791C507.258 425.01 506.704 425.119 506.079 425.119ZM512.454 423.807L512.398 424.276C512.359 424.634 512.288 424.997 512.185 425.366C512.086 425.739 511.981 426.081 511.87 426.393C511.759 426.706 511.67 426.952 511.602 427.131H510.562C510.602 426.957 510.656 426.722 510.724 426.423C510.795 426.125 510.863 425.79 510.928 425.418C510.994 425.045 511.038 424.668 511.06 424.284L511.09 423.807H512.454ZM514.127 423.381V422.124L517.83 416.273H518.879V418.062H518.239L515.746 422.013V422.081H520.916V423.381H514.127ZM518.291 425V422.997L518.308 422.435V416.273H519.799V425H518.291ZM525.623 425.166C524.921 425.166 524.319 424.989 523.816 424.634C523.316 424.276 522.931 423.76 522.661 423.087C522.394 422.411 522.261 421.597 522.261 420.645C522.263 419.693 522.398 418.884 522.665 418.216C522.935 417.545 523.32 417.034 523.82 416.682C524.323 416.33 524.924 416.153 525.623 416.153C526.322 416.153 526.923 416.33 527.425 416.682C527.928 417.034 528.313 417.545 528.58 418.216C528.85 418.886 528.985 419.696 528.985 420.645C528.985 421.599 528.85 422.415 528.58 423.091C528.313 423.764 527.928 424.278 527.425 424.634C526.925 424.989 526.325 425.166 525.623 425.166ZM525.623 423.832C526.168 423.832 526.599 423.564 526.914 423.027C527.232 422.487 527.391 421.693 527.391 420.645C527.391 419.952 527.319 419.369 527.174 418.898C527.029 418.426 526.825 418.071 526.56 417.832C526.296 417.591 525.984 417.47 525.623 417.47C525.08 417.47 524.651 417.74 524.336 418.28C524.021 418.817 523.861 419.605 523.859 420.645C523.856 421.341 523.925 421.926 524.067 422.401C524.212 422.875 524.417 423.233 524.681 423.474C524.945 423.713 525.259 423.832 525.623 423.832ZM533.747 425.166C533.045 425.166 532.443 424.989 531.94 424.634C531.44 424.276 531.055 423.76 530.785 423.087C530.518 422.411 530.385 421.597 530.385 420.645C530.387 419.693 530.522 418.884 530.789 418.216C531.059 417.545 531.444 417.034 531.944 416.682C532.447 416.33 533.048 416.153 533.747 416.153C534.446 416.153 535.046 416.33 535.549 416.682C536.052 417.034 536.437 417.545 536.704 418.216C536.974 418.886 537.109 419.696 537.109 420.645C537.109 421.599 536.974 422.415 536.704 423.091C536.437 423.764 536.052 424.278 535.549 424.634C535.049 424.989 534.448 425.166 533.747 425.166ZM533.747 423.832C534.292 423.832 534.723 423.564 535.038 423.027C535.356 422.487 535.515 421.693 535.515 420.645C535.515 419.952 535.443 419.369 535.298 418.898C535.153 418.426 534.948 418.071 534.684 417.832C534.42 417.591 534.108 417.47 533.747 417.47C533.204 417.47 532.775 417.74 532.46 418.28C532.144 418.817 531.985 419.605 531.983 420.645C531.98 421.341 532.049 421.926 532.191 422.401C532.336 422.875 532.541 423.233 532.805 423.474C533.069 423.713 533.383 423.832 533.747 423.832Z" fill="#158A72"/>
<path d="M34.1058 39.6634V37.4545H45.7109V39.6634H41.2151V52H38.6015V39.6634H34.1058ZM51.0109 52.2131C49.9456 52.2131 49.0223 51.9787 48.2411 51.5099C47.4598 51.0412 46.8537 50.3854 46.4229 49.5426C45.9967 48.6998 45.7837 47.715 45.7837 46.5881C45.7837 45.4612 45.9967 44.474 46.4229 43.6264C46.8537 42.7789 47.4598 42.1207 48.2411 41.652C49.0223 41.1832 49.9456 40.9489 51.0109 40.9489C52.0763 40.9489 52.9996 41.1832 53.7808 41.652C54.5621 42.1207 55.1658 42.7789 55.5919 43.6264C56.0228 44.474 56.2382 45.4612 56.2382 46.5881C56.2382 47.715 56.0228 48.6998 55.5919 49.5426C55.1658 50.3854 54.5621 51.0412 53.7808 51.5099C52.9996 51.9787 52.0763 52.2131 51.0109 52.2131ZM51.0251 50.1534C51.6028 50.1534 52.0858 49.9948 52.474 49.6776C52.8623 49.3556 53.1511 48.9247 53.3405 48.3849C53.5346 47.8452 53.6317 47.2438 53.6317 46.581C53.6317 45.9134 53.5346 45.3097 53.3405 44.7699C53.1511 44.2254 52.8623 43.7921 52.474 43.4702C52.0858 43.1482 51.6028 42.9872 51.0251 42.9872C50.4333 42.9872 49.9409 43.1482 49.5479 43.4702C49.1596 43.7921 48.8684 44.2254 48.6743 44.7699C48.4849 45.3097 48.3902 45.9134 48.3902 46.581C48.3902 47.2438 48.4849 47.8452 48.6743 48.3849C48.8684 48.9247 49.1596 49.3556 49.5479 49.6776C49.9409 49.9948 50.4333 50.1534 51.0251 50.1534ZM62.4687 52.1918C61.6117 52.1918 60.8446 51.9716 60.1675 51.5312C59.4905 51.0909 58.9554 50.4517 58.5624 49.6136C58.1694 48.7756 57.9729 47.7576 57.9729 46.5597C57.9729 45.3475 58.1718 44.3248 58.5695 43.4915C58.972 42.6534 59.5141 42.0213 60.196 41.5952C60.8778 41.1643 61.6377 40.9489 62.4758 40.9489C63.115 40.9489 63.6406 41.0578 64.0525 41.2756C64.4644 41.4886 64.7911 41.7467 65.0326 42.0497C65.2741 42.348 65.4611 42.6297 65.5937 42.8949H65.7002V37.4545H68.2783V52H65.7499V50.2812H65.5937C65.4611 50.5464 65.2693 50.8281 65.0184 51.1264C64.7675 51.42 64.436 51.6709 64.0241 51.8793C63.6121 52.0876 63.0937 52.1918 62.4687 52.1918ZM63.186 50.0824C63.7305 50.0824 64.1945 49.9356 64.5781 49.642C64.9616 49.3437 65.2528 48.9295 65.4516 48.3991C65.6505 47.8688 65.7499 47.2509 65.7499 46.5455C65.7499 45.84 65.6505 45.2268 65.4516 44.706C65.2575 44.1851 64.9687 43.7803 64.5852 43.4915C64.2064 43.2027 63.74 43.0582 63.186 43.0582C62.6131 43.0582 62.1349 43.2074 61.7514 43.5057C61.3678 43.804 61.079 44.2159 60.8849 44.7415C60.6907 45.267 60.5937 45.8684 60.5937 46.5455C60.5937 47.2273 60.6907 47.8357 60.8849 48.3707C61.0837 48.901 61.3749 49.3201 61.7585 49.6278C62.1467 49.9309 62.6226 50.0824 63.186 50.0824ZM74.1572 52.2202C73.466 52.2202 72.8433 52.0971 72.2894 51.8509C71.7401 51.5999 71.3045 51.2306 70.9825 50.7429C70.6653 50.2552 70.5067 49.6539 70.5067 48.9389C70.5067 48.3234 70.6203 47.8144 70.8476 47.4119C71.0749 47.0095 71.385 46.6875 71.778 46.446C72.171 46.2045 72.6137 46.0223 73.1061 45.8991C73.6033 45.7713 74.117 45.679 74.6473 45.6222C75.2865 45.5559 75.805 45.4967 76.2027 45.4446C76.6004 45.3878 76.8893 45.3026 77.0692 45.1889C77.2538 45.0705 77.3462 44.8883 77.3462 44.642V44.5994C77.3462 44.0644 77.1876 43.6501 76.8703 43.3565C76.5531 43.063 76.0962 42.9162 75.4996 42.9162C74.8698 42.9162 74.3703 43.0535 74.001 43.3281C73.6364 43.6027 73.3902 43.9271 73.2624 44.3011L70.8618 43.9602C71.0512 43.2973 71.3637 42.7434 71.7993 42.2983C72.2349 41.8485 72.7676 41.5123 73.3973 41.2898C74.027 41.0625 74.7231 40.9489 75.4854 40.9489C76.0109 40.9489 76.5341 41.0104 77.055 41.1335C77.5758 41.2566 78.0517 41.4602 78.4825 41.7443C78.9134 42.0237 79.259 42.4048 79.5195 42.8878C79.7846 43.3707 79.9172 43.9744 79.9172 44.6989V52H77.4456V50.5014H77.3604C77.2041 50.8045 76.984 51.0885 76.6999 51.3537C76.4205 51.6141 76.0678 51.8248 75.6416 51.9858C75.2202 52.142 74.7254 52.2202 74.1572 52.2202ZM74.8249 50.331C75.341 50.331 75.7884 50.2292 76.1672 50.0256C76.546 49.8172 76.8372 49.5426 77.0408 49.2017C77.2491 48.8608 77.3533 48.4891 77.3533 48.0866V46.8011C77.2728 46.8674 77.1355 46.929 76.9413 46.9858C76.7519 47.0426 76.5389 47.0923 76.3021 47.1349C76.0654 47.1776 75.831 47.2154 75.599 47.2486C75.367 47.2817 75.1658 47.3101 74.9953 47.3338C74.6118 47.3859 74.2685 47.4711 73.9655 47.5895C73.6625 47.7079 73.4233 47.8736 73.2482 48.0866C73.073 48.295 72.9854 48.5649 72.9854 48.8963C72.9854 49.3698 73.1582 49.7273 73.5038 49.9688C73.8495 50.2102 74.2898 50.331 74.8249 50.331ZM83.7098 56.0909C83.3594 56.0909 83.0351 56.0625 82.7368 56.0057C82.4432 55.9536 82.2089 55.892 82.0337 55.821L82.6303 53.8182C83.0043 53.9271 83.3381 53.9792 83.6317 53.9744C83.9252 53.9697 84.1833 53.8774 84.4058 53.6974C84.6331 53.5223 84.8249 53.2287 84.9811 52.8168L85.2013 52.2273L81.2453 41.0909H83.9726L86.4868 49.3295H86.6004L89.1217 41.0909H91.8561L87.4882 53.321C87.2846 53.8987 87.0147 54.3935 86.6786 54.8054C86.3424 55.2221 85.9304 55.5393 85.4428 55.7571C84.9598 55.9796 84.3822 56.0909 83.7098 56.0909ZM102.257 43.9744L99.9136 44.2301C99.8474 43.9934 99.7313 43.7708 99.5656 43.5625C99.4046 43.3542 99.1868 43.1861 98.9122 43.0582C98.6376 42.9304 98.3014 42.8665 97.9037 42.8665C97.3687 42.8665 96.9188 42.9825 96.5543 43.2145C96.1944 43.4465 96.0169 43.7472 96.0216 44.1165C96.0169 44.4337 96.1329 44.6918 96.3696 44.8906C96.6111 45.0895 97.0088 45.2528 97.5628 45.3807L99.4236 45.7784C100.456 46.0009 101.223 46.3537 101.725 46.8366C102.231 47.3196 102.487 47.9517 102.492 48.733C102.487 49.4195 102.286 50.0256 101.888 50.5511C101.495 51.072 100.948 51.4792 100.247 51.7727C99.5467 52.0663 98.7418 52.2131 97.8327 52.2131C96.4974 52.2131 95.4226 51.9337 94.6082 51.375C93.7938 50.8116 93.3085 50.0279 93.1523 49.0241L95.6594 48.7827C95.773 49.2751 96.0145 49.6468 96.3838 49.8977C96.7531 50.1487 97.2337 50.2741 97.8256 50.2741C98.4364 50.2741 98.9264 50.1487 99.2957 49.8977C99.6698 49.6468 99.8568 49.3366 99.8568 48.9673C99.8568 48.6548 99.7361 48.3968 99.4946 48.1932C99.2579 47.9896 98.8885 47.8333 98.3867 47.7244L96.5259 47.3338C95.4795 47.116 94.7053 46.7491 94.2034 46.233C93.7015 45.7121 93.4529 45.054 93.4577 44.2585C93.4529 43.5862 93.6352 43.0038 94.0045 42.5114C94.3786 42.0142 94.8971 41.6307 95.5599 41.3608C96.2276 41.0862 96.997 40.9489 97.8682 40.9489C99.1466 40.9489 100.153 41.2211 100.887 41.7656C101.625 42.3101 102.082 43.0464 102.257 43.9744ZM109.686 52V37.4545H119.147V39.6634H112.321V43.6122H118.657V45.821H112.321V49.7912H119.203V52H109.686ZM124.86 52.2202C124.169 52.2202 123.546 52.0971 122.992 51.8509C122.443 51.5999 122.008 51.2306 121.686 50.7429C121.368 50.2552 121.21 49.6539 121.21 48.9389C121.21 48.3234 121.323 47.8144 121.551 47.4119C121.778 47.0095 122.088 46.6875 122.481 46.446C122.874 46.2045 123.317 46.0223 123.809 45.8991C124.306 45.7713 124.82 45.679 125.35 45.6222C125.99 45.5559 126.508 45.4967 126.906 45.4446C127.304 45.3878 127.592 45.3026 127.772 45.1889C127.957 45.0705 128.049 44.8883 128.049 44.642V44.5994C128.049 44.0644 127.891 43.6501 127.573 43.3565C127.256 43.063 126.799 42.9162 126.203 42.9162C125.573 42.9162 125.073 43.0535 124.704 43.3281C124.34 43.6027 124.093 43.9271 123.965 44.3011L121.565 43.9602C121.754 43.2973 122.067 42.7434 122.502 42.2983C122.938 41.8485 123.471 41.5123 124.1 41.2898C124.73 41.0625 125.426 40.9489 126.188 40.9489C126.714 40.9489 127.237 41.0104 127.758 41.1335C128.279 41.2566 128.755 41.4602 129.186 41.7443C129.617 42.0237 129.962 42.4048 130.223 42.8878C130.488 43.3707 130.62 43.9744 130.62 44.6989V52H128.149V50.5014H128.063C127.907 50.8045 127.687 51.0885 127.403 51.3537C127.124 51.6141 126.771 51.8248 126.345 51.9858C125.923 52.142 125.429 52.2202 124.86 52.2202ZM125.528 50.331C126.044 50.331 126.492 50.2292 126.87 50.0256C127.249 49.8172 127.54 49.5426 127.744 49.2017C127.952 48.8608 128.056 48.4891 128.056 48.0866V46.8011C127.976 46.8674 127.839 46.929 127.644 46.9858C127.455 47.0426 127.242 47.0923 127.005 47.1349C126.769 47.1776 126.534 47.2154 126.302 47.2486C126.07 47.2817 125.869 47.3101 125.698 47.3338C125.315 47.3859 124.972 47.4711 124.669 47.5895C124.366 47.7079 124.126 47.8736 123.951 48.0866C123.776 48.295 123.688 48.5649 123.688 48.8963C123.688 49.3698 123.861 49.7273 124.207 49.9688C124.553 50.2102 124.993 50.331 125.528 50.331ZM133.206 52V41.0909H135.698V42.9091H135.812C136.011 42.2794 136.352 41.794 136.835 41.4531C137.322 41.1075 137.879 40.9347 138.504 40.9347C138.646 40.9347 138.805 40.9418 138.98 40.956C139.16 40.9654 139.309 40.982 139.427 41.0057V43.3707C139.318 43.3329 139.145 43.2997 138.909 43.2713C138.677 43.2382 138.452 43.2216 138.234 43.2216C137.765 43.2216 137.344 43.3234 136.97 43.527C136.6 43.7259 136.309 44.0028 136.096 44.358C135.883 44.7131 135.777 45.1226 135.777 45.5866V52H133.206ZM143.706 45.608V52H141.135V41.0909H143.593V42.9446H143.72C143.971 42.3338 144.372 41.8485 144.921 41.4886C145.475 41.1288 146.159 40.9489 146.973 40.9489C147.726 40.9489 148.382 41.1098 148.941 41.4318C149.504 41.7538 149.94 42.2202 150.247 42.831C150.56 43.4418 150.714 44.1828 150.709 45.054V52H148.138V45.4517C148.138 44.7225 147.949 44.152 147.57 43.7401C147.196 43.3281 146.677 43.1222 146.014 43.1222C145.565 43.1222 145.165 43.2216 144.814 43.4205C144.469 43.6146 144.196 43.8963 143.997 44.2656C143.803 44.6349 143.706 45.0824 143.706 45.608ZM153.323 52V41.0909H155.894V52H153.323ZM154.615 39.5426C154.208 39.5426 153.858 39.4077 153.564 39.1378C153.271 38.8632 153.124 38.5341 153.124 38.1506C153.124 37.7623 153.271 37.4332 153.564 37.1634C153.858 36.8887 154.208 36.7514 154.615 36.7514C155.027 36.7514 155.378 36.8887 155.666 37.1634C155.96 37.4332 156.107 37.7623 156.107 38.1506C156.107 38.5341 155.96 38.8632 155.666 39.1378C155.378 39.4077 155.027 39.5426 154.615 39.5426ZM161.109 45.608V52H158.538V41.0909H160.995V42.9446H161.123C161.374 42.3338 161.774 41.8485 162.323 41.4886C162.877 41.1288 163.561 40.9489 164.376 40.9489C165.128 40.9489 165.784 41.1098 166.343 41.4318C166.906 41.7538 167.342 42.2202 167.65 42.831C167.962 43.4418 168.116 44.1828 168.111 45.054V52H165.54V45.4517C165.54 44.7225 165.351 44.152 164.972 43.7401C164.598 43.3281 164.08 43.1222 163.417 43.1222C162.967 43.1222 162.567 43.2216 162.217 43.4205C161.871 43.6146 161.599 43.8963 161.4 44.2656C161.206 44.6349 161.109 45.0824 161.109 45.608ZM175.469 56.3182C174.546 56.3182 173.753 56.1927 173.09 55.9418C172.427 55.6955 171.895 55.3641 171.492 54.9474C171.09 54.5308 170.81 54.0691 170.654 53.5625L172.969 53.0014C173.074 53.2145 173.225 53.4252 173.424 53.6335C173.623 53.8466 173.89 54.0218 174.226 54.1591C174.567 54.3011 174.996 54.3722 175.512 54.3722C176.241 54.3722 176.845 54.1946 177.323 53.8395C177.801 53.4891 178.04 52.9115 178.04 52.1065V50.0398H177.913C177.78 50.3049 177.586 50.5772 177.33 50.8565C177.079 51.1359 176.745 51.3703 176.329 51.5597C175.917 51.7491 175.398 51.8438 174.773 51.8438C173.935 51.8438 173.175 51.6473 172.494 51.2543C171.816 50.8565 171.277 50.2647 170.874 49.4787C170.476 48.688 170.278 47.6984 170.278 46.5099C170.278 45.312 170.476 44.3011 170.874 43.4773C171.277 42.6487 171.819 42.0213 172.501 41.5952C173.182 41.1643 173.942 40.9489 174.78 40.9489C175.42 40.9489 175.945 41.0578 176.357 41.2756C176.774 41.4886 177.105 41.7467 177.351 42.0497C177.598 42.348 177.785 42.6297 177.913 42.8949H178.055V41.0909H180.59V52.1776C180.59 53.1103 180.368 53.8821 179.923 54.4929C179.477 55.1037 178.869 55.5606 178.097 55.8636C177.325 56.1667 176.45 56.3182 175.469 56.3182ZM175.491 49.8267C176.035 49.8267 176.499 49.6941 176.883 49.429C177.266 49.1638 177.557 48.7827 177.756 48.2855C177.955 47.7884 178.055 47.1918 178.055 46.4957C178.055 45.8092 177.955 45.2079 177.756 44.6918C177.562 44.1757 177.273 43.7756 176.89 43.4915C176.511 43.2027 176.045 43.0582 175.491 43.0582C174.918 43.0582 174.44 43.2074 174.056 43.5057C173.673 43.804 173.384 44.2135 173.19 44.7344C172.995 45.2505 172.898 45.8376 172.898 46.4957C172.898 47.1634 172.995 47.7481 173.19 48.25C173.388 48.7472 173.68 49.1354 174.063 49.4148C174.451 49.6894 174.927 49.8267 175.491 49.8267ZM191.847 43.9744L189.503 44.2301C189.437 43.9934 189.321 43.7708 189.155 43.5625C188.994 43.3542 188.777 43.1861 188.502 43.0582C188.227 42.9304 187.891 42.8665 187.494 42.8665C186.959 42.8665 186.509 42.9825 186.144 43.2145C185.784 43.4465 185.607 43.7472 185.611 44.1165C185.607 44.4337 185.723 44.6918 185.959 44.8906C186.201 45.0895 186.599 45.2528 187.153 45.3807L189.013 45.7784C190.046 46.0009 190.813 46.3537 191.315 46.8366C191.821 47.3196 192.077 47.9517 192.082 48.733C192.077 49.4195 191.876 50.0256 191.478 50.5511C191.085 51.072 190.538 51.4792 189.837 51.7727C189.137 52.0663 188.332 52.2131 187.423 52.2131C186.087 52.2131 185.012 51.9337 184.198 51.375C183.384 50.8116 182.898 50.0279 182.742 49.0241L185.249 48.7827C185.363 49.2751 185.604 49.6468 185.974 49.8977C186.343 50.1487 186.824 50.2741 187.415 50.2741C188.026 50.2741 188.516 50.1487 188.886 49.8977C189.26 49.6468 189.447 49.3366 189.447 48.9673C189.447 48.6548 189.326 48.3968 189.084 48.1932C188.848 47.9896 188.478 47.8333 187.976 47.7244L186.116 47.3338C185.069 47.116 184.295 46.7491 183.793 46.233C183.291 45.7121 183.043 45.054 183.048 44.2585C183.043 43.5862 183.225 43.0038 183.594 42.5114C183.968 42.0142 184.487 41.6307 185.15 41.3608C185.817 41.0862 186.587 40.9489 187.458 40.9489C188.736 40.9489 189.743 41.2211 190.476 41.7656C191.215 42.3101 191.672 43.0464 191.847 43.9744Z" fill="#303030"/>
</svg>
