<svg width="578" height="324" viewBox="0 0 578 324" fill="none" xmlns="http://www.w3.org/2000/svg">
<rect x="0.5" y="0.5" width="577" height="323" rx="20.5" fill="white" stroke="#DEDEDE"/>
<path opacity="0.36" d="M77.5858 284.727V292H76.4849V285.828H76.4423L74.7022 286.964V285.913L76.5169 284.727H77.5858ZM82.085 292.121C81.524 292.118 81.0446 291.97 80.6468 291.677C80.2491 291.383 79.9449 290.956 79.7342 290.395C79.5235 289.834 79.4181 289.158 79.4181 288.367C79.4181 287.579 79.5235 286.905 79.7342 286.347C79.9473 285.788 80.2527 285.362 80.6504 285.068C81.0505 284.775 81.5287 284.628 82.085 284.628C82.6414 284.628 83.1184 284.776 83.5162 285.072C83.9139 285.365 84.2181 285.791 84.4288 286.35C84.6419 286.906 84.7484 287.579 84.7484 288.367C84.7484 289.16 84.6431 289.837 84.4324 290.398C84.2217 290.957 83.9174 291.384 83.5197 291.68C83.122 291.974 82.6438 292.121 82.085 292.121ZM82.085 291.173C82.5775 291.173 82.9622 290.932 83.2392 290.452C83.5185 289.971 83.6582 289.276 83.6582 288.367C83.6582 287.763 83.5943 287.253 83.4664 286.837C83.341 286.418 83.1599 286.1 82.9231 285.885C82.6887 285.667 82.4094 285.558 82.085 285.558C81.595 285.558 81.2103 285.8 80.9309 286.283C80.6516 286.766 80.5107 287.46 80.5083 288.367C80.5083 288.973 80.5711 289.486 80.6966 289.905C80.8244 290.321 81.0055 290.638 81.2399 290.853C81.4743 291.066 81.756 291.173 82.085 291.173ZM89.3684 292H88.2037L90.8208 284.727H92.0886L94.7058 292H93.541L91.4849 286.048H91.4281L89.3684 292ZM89.5637 289.152H93.3422V290.075H89.5637V289.152ZM95.756 284.727H97.0877L99.4031 290.381H99.4883L101.804 284.727H103.135V292H102.091V286.737H102.024L99.8789 291.989H99.0124L96.8675 286.734H96.8001V292H95.756V284.727Z" fill="black"/>
<path opacity="0.36" d="M188.779 284.727V292H187.678V285.828H187.635L185.895 286.964V285.913L187.71 284.727H188.779ZM190.746 292V291.205L193.207 288.655C193.47 288.378 193.686 288.135 193.857 287.927C194.03 287.716 194.159 287.516 194.244 287.327C194.329 287.137 194.372 286.936 194.372 286.723C194.372 286.482 194.315 286.273 194.201 286.098C194.088 285.92 193.933 285.784 193.736 285.69C193.54 285.593 193.318 285.544 193.072 285.544C192.812 285.544 192.584 285.597 192.39 285.704C192.196 285.81 192.047 285.961 191.943 286.155C191.839 286.349 191.786 286.576 191.786 286.837H190.739C190.739 286.394 190.841 286.007 191.044 285.675C191.248 285.344 191.527 285.087 191.882 284.905C192.237 284.72 192.641 284.628 193.093 284.628C193.55 284.628 193.953 284.719 194.301 284.901C194.651 285.081 194.924 285.327 195.121 285.64C195.317 285.95 195.416 286.3 195.416 286.691C195.416 286.961 195.365 287.225 195.263 287.483C195.164 287.741 194.99 288.029 194.741 288.346C194.492 288.661 194.147 289.043 193.704 289.493L192.259 291.006V291.059H195.533V292H190.746ZM200.239 292H199.074L201.691 284.727H202.959L205.576 292H204.412L202.356 286.048H202.299L200.239 292ZM200.434 289.152H204.213V290.075H200.434V289.152ZM206.627 284.727H207.958L210.274 290.381H210.359L212.674 284.727H214.006V292H212.962V286.737H212.894L210.75 291.989H209.883L207.738 286.734H207.671V292H206.627V284.727Z" fill="black"/>
<path opacity="0.36" d="M299.745 292.099C299.257 292.099 298.821 292.015 298.438 291.847C298.057 291.679 297.755 291.446 297.532 291.148C297.312 290.847 297.194 290.499 297.177 290.104H298.292C298.307 290.319 298.379 290.506 298.509 290.665C298.641 290.821 298.814 290.942 299.027 291.027C299.24 291.112 299.477 291.155 299.738 291.155C300.024 291.155 300.277 291.105 300.498 291.006C300.72 290.906 300.894 290.768 301.02 290.59C301.145 290.41 301.208 290.203 301.208 289.969C301.208 289.725 301.145 289.511 301.02 289.326C300.896 289.139 300.715 288.992 300.476 288.886C300.24 288.779 299.953 288.726 299.617 288.726H299.003V287.831H299.617C299.887 287.831 300.124 287.782 300.327 287.685C300.533 287.588 300.694 287.453 300.81 287.281C300.926 287.105 300.984 286.901 300.984 286.666C300.984 286.441 300.933 286.246 300.831 286.08C300.732 285.912 300.59 285.781 300.405 285.686C300.223 285.591 300.008 285.544 299.759 285.544C299.522 285.544 299.301 285.588 299.095 285.675C298.891 285.761 298.726 285.884 298.598 286.045C298.47 286.203 298.401 286.394 298.392 286.616H297.33C297.342 286.223 297.458 285.878 297.678 285.58C297.9 285.281 298.194 285.048 298.559 284.88C298.923 284.712 299.328 284.628 299.773 284.628C300.24 284.628 300.642 284.719 300.981 284.901C301.321 285.081 301.584 285.321 301.769 285.622C301.956 285.923 302.048 286.252 302.046 286.609C302.048 287.017 301.935 287.362 301.705 287.646C301.478 287.93 301.175 288.121 300.796 288.218V288.275C301.279 288.348 301.653 288.54 301.918 288.85C302.186 289.16 302.318 289.545 302.316 290.004C302.318 290.404 302.207 290.763 301.982 291.08C301.759 291.397 301.455 291.647 301.069 291.83C300.683 292.009 300.242 292.099 299.745 292.099ZM306.404 292V284.727H308.996C309.562 284.727 310.031 284.83 310.403 285.036C310.774 285.242 311.052 285.524 311.237 285.881C311.422 286.237 311.514 286.637 311.514 287.082C311.514 287.529 311.421 287.932 311.234 288.289C311.049 288.644 310.77 288.926 310.395 289.134C310.024 289.34 309.556 289.443 308.993 289.443H307.21V288.513H308.893C309.251 288.513 309.541 288.451 309.763 288.328C309.986 288.203 310.149 288.032 310.253 287.817C310.358 287.601 310.41 287.356 310.41 287.082C310.41 286.807 310.358 286.563 310.253 286.35C310.149 286.137 309.985 285.97 309.76 285.849C309.537 285.729 309.244 285.668 308.879 285.668H307.501V292H306.404ZM312.8 284.727H314.132L316.447 290.381H316.533L318.848 284.727H320.18V292H319.136V286.737H319.068L316.923 291.989H316.057L313.912 286.734H313.845V292H312.8V284.727Z" fill="black"/>
<path opacity="0.36" d="M405.936 292.099C405.612 292.095 405.292 292.036 404.977 291.922C404.665 291.808 404.381 291.619 404.125 291.354C403.869 291.089 403.664 290.732 403.51 290.285C403.359 289.837 403.283 289.279 403.283 288.609C403.283 287.974 403.346 287.411 403.471 286.918C403.599 286.426 403.783 286.01 404.022 285.672C404.261 285.331 404.55 285.072 404.888 284.894C405.227 284.717 405.607 284.628 406.028 284.628C406.461 284.628 406.846 284.713 407.182 284.884C407.519 285.054 407.791 285.29 407.999 285.59C408.21 285.891 408.344 286.233 408.4 286.616H407.317C407.244 286.313 407.098 286.066 406.881 285.874C406.663 285.683 406.379 285.587 406.028 285.587C405.496 285.587 405.08 285.819 404.782 286.283C404.486 286.747 404.337 287.392 404.334 288.218H404.388C404.513 288.012 404.667 287.837 404.849 287.692C405.034 287.546 405.24 287.433 405.467 287.355C405.697 287.275 405.938 287.234 406.192 287.234C406.613 287.234 406.994 287.337 407.335 287.543C407.678 287.747 407.952 288.029 408.155 288.388C408.359 288.748 408.461 289.16 408.461 289.624C408.461 290.088 408.355 290.509 408.145 290.885C407.936 291.261 407.643 291.56 407.264 291.78C406.885 291.998 406.443 292.104 405.936 292.099ZM405.932 291.176C406.212 291.176 406.461 291.107 406.682 290.97C406.902 290.833 407.076 290.648 407.204 290.416C407.331 290.184 407.395 289.925 407.395 289.638C407.395 289.359 407.333 289.105 407.207 288.875C407.084 288.645 406.914 288.463 406.696 288.328C406.48 288.193 406.234 288.126 405.957 288.126C405.747 288.126 405.551 288.166 405.371 288.246C405.194 288.327 405.037 288.438 404.903 288.58C404.768 288.722 404.661 288.886 404.583 289.07C404.507 289.253 404.469 289.446 404.469 289.649C404.469 289.921 404.532 290.174 404.657 290.406C404.785 290.638 404.959 290.825 405.18 290.967C405.402 291.106 405.653 291.176 405.932 291.176ZM412.5 292V284.727H415.093C415.658 284.727 416.127 284.83 416.499 285.036C416.87 285.242 417.149 285.524 417.333 285.881C417.518 286.237 417.61 286.637 417.61 287.082C417.61 287.529 417.517 287.932 417.33 288.289C417.145 288.644 416.866 288.926 416.492 289.134C416.12 289.34 415.652 289.443 415.089 289.443H413.306V288.513H414.99C415.347 288.513 415.637 288.451 415.86 288.328C416.082 288.203 416.245 288.032 416.35 287.817C416.454 287.601 416.506 287.356 416.506 287.082C416.506 286.807 416.454 286.563 416.35 286.35C416.245 286.137 416.081 285.97 415.856 285.849C415.633 285.729 415.34 285.668 414.975 285.668H413.597V292H412.5ZM418.897 284.727H420.228L422.544 290.381H422.629L424.944 284.727H426.276V292H425.232V286.737H425.164L423.02 291.989H422.153L420.008 286.734H419.941V292H418.897V284.727Z" fill="black"/>
<path opacity="0.36" d="M511.999 284.628C512.324 284.63 512.643 284.689 512.958 284.805C513.273 284.921 513.557 285.111 513.811 285.374C514.066 285.636 514.27 285.991 514.421 286.439C514.575 286.884 514.653 287.438 514.656 288.101C514.656 288.738 514.592 289.305 514.464 289.802C514.336 290.297 514.153 290.714 513.914 291.055C513.677 291.396 513.389 291.656 513.051 291.833C512.712 292.011 512.331 292.099 511.907 292.099C511.474 292.099 511.089 292.014 510.753 291.844C510.417 291.673 510.143 291.438 509.933 291.137C509.722 290.834 509.591 290.486 509.539 290.093H510.622C510.693 290.406 510.837 290.659 511.055 290.853C511.275 291.045 511.559 291.141 511.907 291.141C512.44 291.141 512.855 290.909 513.154 290.445C513.452 289.978 513.602 289.327 513.605 288.491H513.548C513.425 288.695 513.271 288.87 513.086 289.017C512.904 289.164 512.699 289.277 512.472 289.358C512.245 289.438 512.002 289.479 511.744 289.479C511.325 289.479 510.944 289.376 510.6 289.17C510.257 288.964 509.984 288.681 509.78 288.321C509.576 287.961 509.475 287.55 509.475 287.089C509.475 286.629 509.579 286.213 509.787 285.839C509.998 285.465 510.291 285.169 510.668 284.951C511.047 284.731 511.49 284.623 511.999 284.628ZM512.003 285.551C511.726 285.551 511.476 285.62 511.254 285.757C511.034 285.892 510.86 286.076 510.732 286.308C510.604 286.537 510.54 286.793 510.54 287.075C510.54 287.356 510.602 287.612 510.725 287.842C510.85 288.069 511.021 288.25 511.236 288.385C511.454 288.518 511.702 288.584 511.982 288.584C512.19 288.584 512.384 288.544 512.564 288.463C512.744 288.383 512.901 288.271 513.036 288.129C513.171 287.985 513.277 287.821 513.352 287.639C513.428 287.457 513.466 287.265 513.466 287.064C513.466 286.796 513.402 286.548 513.274 286.318C513.149 286.089 512.976 285.904 512.756 285.764C512.536 285.622 512.285 285.551 512.003 285.551ZM518.685 292V284.727H521.277C521.843 284.727 522.311 284.83 522.683 285.036C523.055 285.242 523.333 285.524 523.518 285.881C523.702 286.237 523.795 286.637 523.795 287.082C523.795 287.529 523.701 287.932 523.514 288.289C523.329 288.644 523.05 288.926 522.676 289.134C522.304 289.34 521.837 289.443 521.273 289.443H519.491V288.513H521.174C521.531 288.513 521.821 288.451 522.044 288.328C522.266 288.203 522.43 288.032 522.534 287.817C522.638 287.601 522.69 287.356 522.69 287.082C522.69 286.807 522.638 286.563 522.534 286.35C522.43 286.137 522.265 285.97 522.04 285.849C521.818 285.729 521.524 285.668 521.16 285.668H519.782V292H518.685ZM525.081 284.727H526.413L528.728 290.381H528.813L531.129 284.727H532.46V292H531.416V286.737H531.349L529.204 291.989H528.337L526.192 286.734H526.125V292H525.081V284.727Z" fill="black"/>
<path opacity="0.36" d="M43.5267 267.727V275H42.4258V268.828H42.3832L40.6432 269.964V268.913L42.4578 267.727H43.5267ZM48.026 275.121C47.4649 275.118 46.9855 274.97 46.5878 274.677C46.19 274.383 45.8858 273.956 45.6751 273.395C45.4644 272.834 45.3591 272.158 45.3591 271.367C45.3591 270.579 45.4644 269.905 45.6751 269.347C45.8882 268.788 46.1936 268.362 46.5913 268.068C46.9914 267.775 47.4696 267.628 48.026 267.628C48.5823 267.628 49.0593 267.776 49.4571 268.072C49.8548 268.365 50.159 268.791 50.3697 269.35C50.5828 269.906 50.6893 270.579 50.6893 271.367C50.6893 272.16 50.584 272.837 50.3733 273.398C50.1626 273.957 49.8584 274.384 49.4606 274.68C49.0629 274.974 48.5847 275.121 48.026 275.121ZM48.026 274.173C48.5184 274.173 48.9031 273.932 49.1801 273.452C49.4594 272.971 49.5991 272.276 49.5991 271.367C49.5991 270.763 49.5352 270.253 49.4074 269.837C49.2819 269.418 49.1008 269.1 48.864 268.885C48.6297 268.667 48.3503 268.558 48.026 268.558C47.5359 268.558 47.1512 268.8 46.8718 269.283C46.5925 269.766 46.4516 270.46 46.4493 271.367C46.4493 271.973 46.512 272.486 46.6375 272.905C46.7653 273.321 46.9464 273.638 47.1808 273.853C47.4152 274.066 47.6969 274.173 48.026 274.173Z" fill="black"/>
<path opacity="0.36" d="M42.1661 242.099C41.721 242.099 41.3209 242.014 40.9658 241.844C40.613 241.671 40.3313 241.434 40.1206 241.134C39.9099 240.833 39.7975 240.49 39.7832 240.104H40.8486C40.8746 240.416 41.0131 240.673 41.2641 240.874C41.515 241.076 41.8157 241.176 42.1661 241.176C42.4454 241.176 42.6928 241.112 42.9082 240.984C43.1261 240.854 43.2965 240.675 43.4196 240.448C43.5451 240.221 43.6078 239.962 43.6078 239.67C43.6078 239.375 43.5439 239.111 43.4161 238.879C43.2882 238.647 43.1118 238.464 42.8869 238.332C42.6644 238.199 42.4087 238.132 42.1199 238.129C41.8997 238.129 41.6784 238.167 41.4558 238.243C41.2333 238.319 41.0534 238.418 40.9161 238.541L39.9111 238.392L40.3195 234.727H44.318V235.668H41.2321L41.0013 237.703H41.0439C41.1859 237.566 41.3742 237.451 41.6085 237.359C41.8453 237.266 42.0986 237.22 42.3685 237.22C42.8112 237.22 43.2054 237.326 43.551 237.536C43.899 237.747 44.1725 238.035 44.3713 238.399C44.5725 238.761 44.672 239.178 44.6696 239.649C44.672 240.12 44.5654 240.54 44.35 240.91C44.1369 241.279 43.841 241.57 43.4622 241.783C43.0858 241.994 42.6537 242.099 42.1661 242.099ZM48.4986 242.121C47.9375 242.118 47.4581 241.97 47.0604 241.677C46.6627 241.383 46.3585 240.956 46.1478 240.395C45.9371 239.834 45.8317 239.158 45.8317 238.367C45.8317 237.579 45.9371 236.905 46.1478 236.347C46.3608 235.788 46.6662 235.362 47.064 235.068C47.4641 234.775 47.9423 234.628 48.4986 234.628C49.055 234.628 49.532 234.776 49.9297 235.072C50.3275 235.365 50.6317 235.791 50.8424 236.35C51.0554 236.906 51.162 237.579 51.162 238.367C51.162 239.16 51.0566 239.837 50.8459 240.398C50.6352 240.957 50.331 241.384 49.9333 241.68C49.5356 241.974 49.0573 242.121 48.4986 242.121ZM48.4986 241.173C48.991 241.173 49.3758 240.932 49.6527 240.452C49.9321 239.971 50.0718 239.276 50.0718 238.367C50.0718 237.763 50.0079 237.253 49.88 236.837C49.7545 236.418 49.5734 236.1 49.3367 235.885C49.1023 235.667 48.823 235.558 48.4986 235.558C48.0086 235.558 47.6239 235.8 47.3445 236.283C47.0651 236.766 46.9243 237.46 46.9219 238.367C46.9219 238.973 46.9847 239.486 47.1101 239.905C47.238 240.321 47.4191 240.638 47.6535 240.853C47.8878 241.066 48.1696 241.173 48.4986 241.173Z" fill="black"/>
<path opacity="0.36" d="M37.5162 201.727V209H36.4153V202.828H36.3727L34.6327 203.964V202.913L36.4473 201.727H37.5162ZM42.0155 209.121C41.4544 209.118 40.975 208.97 40.5773 208.677C40.1795 208.383 39.8753 207.956 39.6646 207.395C39.4539 206.834 39.3486 206.158 39.3486 205.367C39.3486 204.579 39.4539 203.905 39.6646 203.347C39.8777 202.788 40.1831 202.362 40.5808 202.068C40.9809 201.775 41.4591 201.628 42.0155 201.628C42.5718 201.628 43.0489 201.776 43.4466 202.072C43.8443 202.365 44.1485 202.791 44.3592 203.35C44.5723 203.906 44.6788 204.579 44.6788 205.367C44.6788 206.16 44.5735 206.837 44.3628 207.398C44.1521 207.957 43.8479 208.384 43.4501 208.68C43.0524 208.974 42.5742 209.121 42.0155 209.121ZM42.0155 208.173C42.5079 208.173 42.8926 207.932 43.1696 207.452C43.4489 206.971 43.5886 206.276 43.5886 205.367C43.5886 204.763 43.5247 204.253 43.3969 203.837C43.2714 203.418 43.0903 203.1 42.8535 202.885C42.6192 202.667 42.3398 202.558 42.0155 202.558C41.5254 202.558 41.1407 202.8 40.8614 203.283C40.582 203.766 40.4411 204.46 40.4388 205.367C40.4388 205.973 40.5015 206.486 40.627 206.905C40.7548 207.321 40.9359 207.638 41.1703 207.853C41.4047 208.066 41.6864 208.173 42.0155 208.173ZM48.4705 209.121C47.9095 209.118 47.4301 208.97 47.0323 208.677C46.6346 208.383 46.3304 207.956 46.1197 207.395C45.909 206.834 45.8036 206.158 45.8036 205.367C45.8036 204.579 45.909 203.905 46.1197 203.347C46.3328 202.788 46.6382 202.362 47.0359 202.068C47.436 201.775 47.9142 201.628 48.4705 201.628C49.0269 201.628 49.5039 201.776 49.9017 202.072C50.2994 202.365 50.6036 202.791 50.8143 203.35C51.0274 203.906 51.1339 204.579 51.1339 205.367C51.1339 206.16 51.0285 206.837 50.8178 207.398C50.6071 207.957 50.3029 208.384 49.9052 208.68C49.5075 208.974 49.0293 209.121 48.4705 209.121ZM48.4705 208.173C48.963 208.173 49.3477 207.932 49.6247 207.452C49.904 206.971 50.0437 206.276 50.0437 205.367C50.0437 204.763 49.9798 204.253 49.8519 203.837C49.7265 203.418 49.5454 203.1 49.3086 202.885C49.0742 202.667 48.7949 202.558 48.4705 202.558C47.9805 202.558 47.5958 202.8 47.3164 203.283C47.0371 203.766 46.8962 204.46 46.8938 205.367C46.8938 205.973 46.9566 206.486 47.0821 206.905C47.2099 207.321 47.391 207.638 47.6254 207.853C47.8598 208.066 48.1415 208.173 48.4705 208.173Z" fill="black"/>
<path opacity="0.36" d="M35.1541 176.099C34.709 176.099 34.3089 176.014 33.9538 175.844C33.6011 175.671 33.3193 175.434 33.1086 175.134C32.8979 174.833 32.7855 174.49 32.7713 174.104H33.8366C33.8627 174.416 34.0012 174.673 34.2521 174.874C34.5031 175.076 34.8037 175.176 35.1541 175.176C35.4335 175.176 35.6808 175.112 35.8963 174.984C36.1141 174.854 36.2845 174.675 36.4076 174.448C36.5331 174.221 36.5959 173.962 36.5959 173.67C36.5959 173.375 36.5319 173.111 36.4041 172.879C36.2763 172.647 36.0999 172.464 35.875 172.332C35.6524 172.199 35.3968 172.132 35.1079 172.129C34.8878 172.129 34.6664 172.167 34.4439 172.243C34.2213 172.319 34.0414 172.418 33.9041 172.541L32.8991 172.392L33.3075 168.727H37.3061V169.668H34.2201L33.9893 171.703H34.0319C34.174 171.566 34.3622 171.451 34.5966 171.359C34.8333 171.266 35.0866 171.22 35.3565 171.22C35.7992 171.22 36.1934 171.326 36.539 171.536C36.8871 171.747 37.1605 172.035 37.3594 172.399C37.5606 172.761 37.66 173.178 37.6576 173.649C37.66 174.12 37.5535 174.54 37.338 174.91C37.125 175.279 36.829 175.57 36.4503 175.783C36.0738 175.994 35.6418 176.099 35.1541 176.099ZM41.4867 176.121C40.9256 176.118 40.4462 175.97 40.0485 175.677C39.6507 175.383 39.3465 174.956 39.1358 174.395C38.9251 173.834 38.8198 173.158 38.8198 172.367C38.8198 171.579 38.9251 170.905 39.1358 170.347C39.3489 169.788 39.6543 169.362 40.052 169.068C40.4521 168.775 40.9303 168.628 41.4867 168.628C42.043 168.628 42.52 168.776 42.9178 169.072C43.3155 169.365 43.6197 169.791 43.8304 170.35C44.0435 170.906 44.15 171.579 44.15 172.367C44.15 173.16 44.0447 173.837 43.834 174.398C43.6233 174.957 43.319 175.384 42.9213 175.68C42.5236 175.974 42.0454 176.121 41.4867 176.121ZM41.4867 175.173C41.9791 175.173 42.3638 174.932 42.6408 174.452C42.9201 173.971 43.0598 173.276 43.0598 172.367C43.0598 171.763 42.9959 171.253 42.8681 170.837C42.7426 170.418 42.5615 170.1 42.3247 169.885C42.0904 169.667 41.811 169.558 41.4867 169.558C40.9966 169.558 40.6119 169.8 40.3325 170.283C40.0532 170.766 39.9123 171.46 39.91 172.367C39.91 172.973 39.9727 173.486 40.0982 173.905C40.226 174.321 40.4071 174.638 40.6415 174.853C40.8759 175.066 41.1576 175.173 41.4867 175.173ZM47.9417 176.121C47.3807 176.118 46.9013 175.97 46.5035 175.677C46.1058 175.383 45.8016 174.956 45.5909 174.395C45.3802 173.834 45.2748 173.158 45.2748 172.367C45.2748 171.579 45.3802 170.905 45.5909 170.347C45.804 169.788 46.1094 169.362 46.5071 169.068C46.9072 168.775 47.3854 168.628 47.9417 168.628C48.4981 168.628 48.9751 168.776 49.3728 169.072C49.7706 169.365 50.0748 169.791 50.2855 170.35C50.4986 170.906 50.6051 171.579 50.6051 172.367C50.6051 173.16 50.4997 173.837 50.289 174.398C50.0783 174.957 49.7741 175.384 49.3764 175.68C48.9787 175.974 48.5005 176.121 47.9417 176.121ZM47.9417 175.173C48.4342 175.173 48.8189 174.932 49.0959 174.452C49.3752 173.971 49.5149 173.276 49.5149 172.367C49.5149 171.763 49.451 171.253 49.3231 170.837C49.1977 170.418 49.0165 170.1 48.7798 169.885C48.5454 169.667 48.2661 169.558 47.9417 169.558C47.4517 169.558 47.067 169.8 46.7876 170.283C46.5083 170.766 46.3674 171.46 46.365 172.367C46.365 172.973 46.4278 173.486 46.5532 173.905C46.6811 174.321 46.8622 174.638 47.0966 174.853C47.3309 175.066 47.6127 175.173 47.9417 175.173Z" fill="black"/>
<path opacity="0.36" d="M30.504 135.727V143H29.4031V136.828H29.3605L27.6205 137.964V136.913L29.4351 135.727H30.504ZM35.0033 143.121C34.4422 143.118 33.9628 142.97 33.5651 142.677C33.1673 142.383 32.8631 141.956 32.6524 141.395C32.4417 140.834 32.3364 140.158 32.3364 139.367C32.3364 138.579 32.4417 137.905 32.6524 137.347C32.8655 136.788 33.1709 136.362 33.5686 136.068C33.9687 135.775 34.4469 135.628 35.0033 135.628C35.5596 135.628 36.0366 135.776 36.4344 136.072C36.8321 136.365 37.1363 136.791 37.347 137.35C37.5601 137.906 37.6666 138.579 37.6666 139.367C37.6666 140.16 37.5613 140.837 37.3506 141.398C37.1399 141.957 36.8356 142.384 36.4379 142.68C36.0402 142.974 35.562 143.121 35.0033 143.121ZM35.0033 142.173C35.4957 142.173 35.8804 141.932 36.1574 141.452C36.4367 140.971 36.5764 140.276 36.5764 139.367C36.5764 138.763 36.5125 138.253 36.3847 137.837C36.2592 137.418 36.0781 137.1 35.8413 136.885C35.607 136.667 35.3276 136.558 35.0033 136.558C34.5132 136.558 34.1285 136.8 33.8491 137.283C33.5698 137.766 33.4289 138.46 33.4266 139.367C33.4266 139.973 33.4893 140.486 33.6148 140.905C33.7426 141.321 33.9237 141.638 34.1581 141.853C34.3925 142.066 34.6742 142.173 35.0033 142.173ZM41.4583 143.121C40.8973 143.118 40.4179 142.97 40.0201 142.677C39.6224 142.383 39.3182 141.956 39.1075 141.395C38.8968 140.834 38.7914 140.158 38.7914 139.367C38.7914 138.579 38.8968 137.905 39.1075 137.347C39.3206 136.788 39.626 136.362 40.0237 136.068C40.4238 135.775 40.902 135.628 41.4583 135.628C42.0147 135.628 42.4917 135.776 42.8894 136.072C43.2872 136.365 43.5914 136.791 43.8021 137.35C44.0152 137.906 44.1217 138.579 44.1217 139.367C44.1217 140.16 44.0163 140.837 43.8056 141.398C43.5949 141.957 43.2907 142.384 42.893 142.68C42.4953 142.974 42.0171 143.121 41.4583 143.121ZM41.4583 142.173C41.9508 142.173 42.3355 141.932 42.6125 141.452C42.8918 140.971 43.0315 140.276 43.0315 139.367C43.0315 138.763 42.9676 138.253 42.8397 137.837C42.7143 137.418 42.5332 137.1 42.2964 136.885C42.062 136.667 41.7827 136.558 41.4583 136.558C40.9683 136.558 40.5836 136.8 40.3042 137.283C40.0249 137.766 39.884 138.46 39.8816 139.367C39.8816 139.973 39.9444 140.486 40.0698 140.905C40.1977 141.321 40.3788 141.638 40.6132 141.853C40.8475 142.066 41.1293 142.173 41.4583 142.173ZM47.9134 143.121C47.3523 143.118 46.8729 142.97 46.4752 142.677C46.0775 142.383 45.7733 141.956 45.5626 141.395C45.3519 140.834 45.2465 140.158 45.2465 139.367C45.2465 138.579 45.3519 137.905 45.5626 137.347C45.7756 136.788 46.081 136.362 46.4788 136.068C46.8789 135.775 47.3571 135.628 47.9134 135.628C48.4698 135.628 48.9468 135.776 49.3445 136.072C49.7423 136.365 50.0465 136.791 50.2572 137.35C50.4702 137.906 50.5768 138.579 50.5768 139.367C50.5768 140.16 50.4714 140.837 50.2607 141.398C50.05 141.957 49.7458 142.384 49.3481 142.68C48.9504 142.974 48.4721 143.121 47.9134 143.121ZM47.9134 142.173C48.4058 142.173 48.7905 141.932 49.0675 141.452C49.3469 140.971 49.4866 140.276 49.4866 139.367C49.4866 138.763 49.4227 138.253 49.2948 137.837C49.1693 137.418 48.9882 137.1 48.7515 136.885C48.5171 136.667 48.2378 136.558 47.9134 136.558C47.4234 136.558 47.0387 136.8 46.7593 137.283C46.4799 137.766 46.3391 138.46 46.3367 139.367C46.3367 139.973 46.3995 140.486 46.5249 140.905C46.6528 141.321 46.8339 141.638 47.0682 141.853C47.3026 142.066 47.5843 142.173 47.9134 142.173Z" fill="black"/>
<path opacity="0.36" d="M26.743 110V109.205L29.204 106.655C29.4668 106.378 29.6834 106.135 29.8538 105.927C30.0266 105.716 30.1557 105.516 30.2409 105.327C30.3261 105.137 30.3687 104.936 30.3687 104.723C30.3687 104.482 30.3119 104.273 30.1983 104.098C30.0847 103.92 29.9296 103.784 29.7331 103.69C29.5366 103.593 29.3152 103.544 29.069 103.544C28.8086 103.544 28.5813 103.597 28.3872 103.704C28.1931 103.81 28.0439 103.961 27.9398 104.155C27.8356 104.349 27.7835 104.576 27.7835 104.837H26.7359C26.7359 104.394 26.8377 104.007 27.0413 103.675C27.2449 103.344 27.5243 103.087 27.8794 102.905C28.2345 102.72 28.6382 102.628 29.0903 102.628C29.5472 102.628 29.9497 102.719 30.2977 102.901C30.6481 103.081 30.9215 103.327 31.118 103.64C31.3145 103.95 31.4128 104.3 31.4128 104.691C31.4128 104.961 31.3619 105.225 31.2601 105.483C31.1606 105.741 30.9866 106.029 30.7381 106.346C30.4895 106.661 30.1438 107.043 29.7011 107.493L28.2558 109.006V109.059H31.53V110H26.743ZM35.4078 110.121C34.8467 110.118 34.3673 109.97 33.9696 109.677C33.5719 109.383 33.2677 108.956 33.057 108.395C32.8463 107.834 32.7409 107.158 32.7409 106.367C32.7409 105.579 32.8463 104.905 33.057 104.347C33.27 103.788 33.5754 103.362 33.9731 103.068C34.3732 102.775 34.8515 102.628 35.4078 102.628C35.9641 102.628 36.4412 102.776 36.8389 103.072C37.2366 103.365 37.5409 103.791 37.7516 104.35C37.9646 104.906 38.0712 105.579 38.0712 106.367C38.0712 107.16 37.9658 107.837 37.7551 108.398C37.5444 108.957 37.2402 109.384 36.8425 109.68C36.4447 109.974 35.9665 110.121 35.4078 110.121ZM35.4078 109.173C35.9002 109.173 36.2849 108.932 36.5619 108.452C36.8413 107.971 36.981 107.276 36.981 106.367C36.981 105.763 36.917 105.253 36.7892 104.837C36.6637 104.418 36.4826 104.1 36.2459 103.885C36.0115 103.667 35.7321 103.558 35.4078 103.558C34.9177 103.558 34.533 103.8 34.2537 104.283C33.9743 104.766 33.8335 105.46 33.8311 106.367C33.8311 106.973 33.8938 107.486 34.0193 107.905C34.1472 108.321 34.3283 108.638 34.5626 108.853C34.797 109.066 35.0787 109.173 35.4078 109.173ZM41.8629 110.121C41.3018 110.118 40.8224 109.97 40.4247 109.677C40.0269 109.383 39.7227 108.956 39.512 108.395C39.3013 107.834 39.196 107.158 39.196 106.367C39.196 105.579 39.3013 104.905 39.512 104.347C39.7251 103.788 40.0305 103.362 40.4282 103.068C40.8283 102.775 41.3065 102.628 41.8629 102.628C42.4192 102.628 42.8963 102.776 43.294 103.072C43.6917 103.365 43.9959 103.791 44.2066 104.35C44.4197 104.906 44.5262 105.579 44.5262 106.367C44.5262 107.16 44.4209 107.837 44.2102 108.398C43.9995 108.957 43.6953 109.384 43.2975 109.68C42.8998 109.974 42.4216 110.121 41.8629 110.121ZM41.8629 109.173C42.3553 109.173 42.74 108.932 43.017 108.452C43.2964 107.971 43.436 107.276 43.436 106.367C43.436 105.763 43.3721 105.253 43.2443 104.837C43.1188 104.418 42.9377 104.1 42.701 103.885C42.4666 103.667 42.1872 103.558 41.8629 103.558C41.3728 103.558 40.9881 103.8 40.7088 104.283C40.4294 104.766 40.2885 105.46 40.2862 106.367C40.2862 106.973 40.3489 107.486 40.4744 107.905C40.6022 108.321 40.7833 108.638 41.0177 108.853C41.2521 109.066 41.5338 109.173 41.8629 109.173ZM48.318 110.121C47.7569 110.118 47.2775 109.97 46.8797 109.677C46.482 109.383 46.1778 108.956 45.9671 108.395C45.7564 107.834 45.6511 107.158 45.6511 106.367C45.6511 105.579 45.7564 104.905 45.9671 104.347C46.1802 103.788 46.4856 103.362 46.8833 103.068C47.2834 102.775 47.7616 102.628 48.318 102.628C48.8743 102.628 49.3513 102.776 49.7491 103.072C50.1468 103.365 50.451 103.791 50.6617 104.35C50.8748 104.906 50.9813 105.579 50.9813 106.367C50.9813 107.16 50.876 107.837 50.6653 108.398C50.4546 108.957 50.1503 109.384 49.7526 109.68C49.3549 109.974 48.8767 110.121 48.318 110.121ZM48.318 109.173C48.8104 109.173 49.1951 108.932 49.4721 108.452C49.7514 107.971 49.8911 107.276 49.8911 106.367C49.8911 105.763 49.8272 105.253 49.6994 104.837C49.5739 104.418 49.3928 104.1 49.156 103.885C48.9217 103.667 48.6423 103.558 48.318 103.558C47.8279 103.558 47.4432 103.8 47.1638 104.283C46.8845 104.766 46.7436 105.46 46.7413 106.367C46.7413 106.973 46.804 107.486 46.9295 107.905C47.0573 108.321 47.2384 108.638 47.4728 108.853C47.7072 109.066 47.9889 109.173 48.318 109.173Z" fill="black"/>
<path d="M26.7594 28.897V26.9091H37.204V28.897H33.1578V40H30.8055V28.897H26.7594ZM38.0957 40V30.1818H40.3393V31.8182H40.4415C40.6205 31.2514 40.9273 30.8146 41.362 30.5078C41.8009 30.1967 42.3016 30.0412 42.8641 30.0412C42.992 30.0412 43.1347 30.0476 43.2924 30.0604C43.4543 30.0689 43.5886 30.0838 43.6951 30.1051V32.2337C43.5971 32.1996 43.4415 32.1697 43.2285 32.1442C43.0197 32.1143 42.8172 32.0994 42.6212 32.0994C42.1994 32.0994 41.8201 32.1911 41.4834 32.3743C41.1511 32.5533 40.889 32.8026 40.6972 33.1222C40.5055 33.4418 40.4096 33.8104 40.4096 34.228V40H38.0957ZM47.8819 40.1982C47.2597 40.1982 46.6994 40.0874 46.2008 39.8658C45.7065 39.6399 45.3144 39.3075 45.0246 38.8686C44.7391 38.4297 44.5964 37.8885 44.5964 37.245C44.5964 36.6911 44.6986 36.233 44.9032 35.8707C45.1077 35.5085 45.3869 35.2188 45.7405 35.0014C46.0942 34.7841 46.4927 34.62 46.9359 34.5092C47.3833 34.3942 47.8457 34.3111 48.3229 34.2599C48.8982 34.2003 49.3648 34.147 49.7228 34.1001C50.0807 34.049 50.3407 33.9723 50.5026 33.87C50.6688 33.7635 50.7519 33.5994 50.7519 33.3778V33.3395C50.7519 32.858 50.6092 32.4851 50.3236 32.2209C50.0381 31.9567 49.6269 31.8246 49.09 31.8246C48.5232 31.8246 48.0736 31.9482 47.7413 32.1953C47.4131 32.4425 47.1915 32.7344 47.0765 33.071L44.916 32.7642C45.0864 32.1676 45.3677 31.669 45.7597 31.2685C46.1518 30.8636 46.6312 30.5611 47.1979 30.3608C47.7647 30.1562 48.3911 30.054 49.0772 30.054C49.5502 30.054 50.0211 30.1094 50.4898 30.2202C50.9586 30.331 51.3869 30.5142 51.7746 30.7699C52.1624 31.0213 52.4735 31.3643 52.7079 31.799C52.9465 32.2337 53.0658 32.777 53.0658 33.429V40H50.8414V38.6513H50.7647C50.6241 38.924 50.4259 39.1797 50.1702 39.4183C49.9188 39.6527 49.6013 39.8423 49.2178 39.9872C48.8386 40.1278 48.3932 40.1982 47.8819 40.1982ZM48.4827 38.4979C48.9472 38.4979 49.3499 38.4062 49.6908 38.223C50.0317 38.0355 50.2938 37.7884 50.4771 37.4815C50.6646 37.1747 50.7583 36.8402 50.7583 36.478V35.321C50.6859 35.3807 50.5623 35.4361 50.3876 35.4872C50.2171 35.5384 50.0253 35.5831 49.8123 35.6214C49.5992 35.6598 49.3883 35.6939 49.1795 35.7237C48.9707 35.7536 48.7896 35.7791 48.6361 35.8004C48.291 35.8473 47.982 35.924 47.7093 36.0305C47.4366 36.1371 47.2214 36.2862 47.0637 36.478C46.906 36.6655 46.8272 36.9084 46.8272 37.2067C46.8272 37.6328 46.9827 37.9545 47.2938 38.1719C47.6049 38.3892 48.0012 38.4979 48.4827 38.4979ZM57.7065 34.2472V40H55.3925V30.1818H57.6042V31.8501H57.7192C57.9451 31.3004 58.3052 30.8636 58.7995 30.5398C59.2981 30.2159 59.9138 30.054 60.6468 30.054C61.3244 30.054 61.9146 30.1989 62.4174 30.4886C62.9245 30.7784 63.3165 31.1982 63.5935 31.7479C63.8748 32.2976 64.0133 32.9645 64.009 33.7486V40H61.6951V34.1065C61.6951 33.4503 61.5246 32.9368 61.1837 32.5661C60.8471 32.1953 60.3805 32.0099 59.7839 32.0099C59.379 32.0099 59.019 32.0994 58.7036 32.2784C58.3925 32.4531 58.1475 32.7067 57.9685 33.0391C57.7938 33.3714 57.7065 33.7741 57.7065 34.2472ZM74.1212 32.777L72.0119 33.0071C71.9522 32.794 71.8478 32.5938 71.6986 32.4062C71.5538 32.2188 71.3577 32.0675 71.1106 31.9524C70.8634 31.8374 70.5609 31.7798 70.2029 31.7798C69.7214 31.7798 69.3165 31.8842 68.9884 32.093C68.6646 32.3018 68.5047 32.5724 68.509 32.9048C68.5047 33.1903 68.6092 33.4226 68.8222 33.6016C69.0396 33.7805 69.3975 33.9276 69.8961 34.0426L71.5708 34.4006C72.4998 34.6009 73.1901 34.9183 73.6418 35.353C74.0978 35.7876 74.3279 36.3565 74.3322 37.0597C74.3279 37.6776 74.1468 38.223 73.7888 38.696C73.4351 39.1648 72.943 39.5312 72.3123 39.7955C71.6816 40.0597 70.9572 40.1918 70.139 40.1918C68.9373 40.1918 67.9699 39.9403 67.237 39.4375C66.504 38.9304 66.0672 38.2251 65.9266 37.3217L68.183 37.1044C68.2853 37.5476 68.5026 37.8821 68.835 38.108C69.1674 38.3338 69.5999 38.4467 70.1326 38.4467C70.6823 38.4467 71.1234 38.3338 71.4557 38.108C71.7924 37.8821 71.9607 37.603 71.9607 37.2706C71.9607 36.9893 71.8521 36.7571 71.6347 36.5739C71.4217 36.3906 71.0893 36.25 70.6376 36.152L68.9628 35.8004C68.0211 35.6044 67.3244 35.2741 66.8726 34.8097C66.4209 34.3409 66.1972 33.7486 66.2015 33.0327C66.1972 32.4276 66.3613 31.9034 66.6937 31.4602C67.0303 31.0128 67.4969 30.6676 68.0935 30.4247C68.6944 30.1776 69.3869 30.054 70.1709 30.054C71.3215 30.054 72.2271 30.299 72.8876 30.7891C73.5523 31.2791 73.9636 31.9418 74.1212 32.777ZM79.0655 40.1982C78.4433 40.1982 77.8829 40.0874 77.3844 39.8658C76.89 39.6399 76.498 39.3075 76.2082 38.8686C75.9227 38.4297 75.78 37.8885 75.78 37.245C75.78 36.6911 75.8822 36.233 76.0868 35.8707C76.2913 35.5085 76.5704 35.2188 76.9241 35.0014C77.2778 34.7841 77.6763 34.62 78.1195 34.5092C78.5669 34.3942 79.0293 34.3111 79.5065 34.2599C80.0818 34.2003 80.5484 34.147 80.9064 34.1001C81.2643 34.049 81.5243 33.9723 81.6862 33.87C81.8524 33.7635 81.9355 33.5994 81.9355 33.3778V33.3395C81.9355 32.858 81.7927 32.4851 81.5072 32.2209C81.2217 31.9567 80.8105 31.8246 80.2736 31.8246C79.7068 31.8246 79.2572 31.9482 78.9248 32.1953C78.5967 32.4425 78.3751 32.7344 78.2601 33.071L76.0996 32.7642C76.27 32.1676 76.5513 31.669 76.9433 31.2685C77.3354 30.8636 77.8148 30.5611 78.3815 30.3608C78.9483 30.1562 79.5747 30.054 80.2608 30.054C80.7338 30.054 81.2047 30.1094 81.6734 30.2202C82.1422 30.331 82.5704 30.5142 82.9582 30.7699C83.346 31.0213 83.6571 31.3643 83.8915 31.799C84.1301 32.2337 84.2494 32.777 84.2494 33.429V40H82.025V38.6513H81.9483C81.8077 38.924 81.6095 39.1797 81.3538 39.4183C81.1024 39.6527 80.7849 39.8423 80.4014 39.9872C80.0222 40.1278 79.5768 40.1982 79.0655 40.1982ZM79.6663 38.4979C80.1308 38.4979 80.5335 38.4062 80.8744 38.223C81.2153 38.0355 81.4774 37.7884 81.6606 37.4815C81.8481 37.1747 81.9419 36.8402 81.9419 36.478V35.321C81.8695 35.3807 81.7459 35.4361 81.5712 35.4872C81.4007 35.5384 81.2089 35.5831 80.9959 35.6214C80.7828 35.6598 80.5719 35.6939 80.3631 35.7237C80.1543 35.7536 79.9731 35.7791 79.8197 35.8004C79.4746 35.8473 79.1656 35.924 78.8929 36.0305C78.6202 36.1371 78.405 36.2862 78.2473 36.478C78.0896 36.6655 78.0108 36.9084 78.0108 37.2067C78.0108 37.6328 78.1663 37.9545 78.4774 38.1719C78.7885 38.3892 79.1848 38.4979 79.6663 38.4979ZM90.8588 40.1918C89.8787 40.1918 89.0371 39.9766 88.3339 39.5462C87.6351 39.1158 87.096 38.5213 86.7168 37.7628C86.3418 37 86.1543 36.1222 86.1543 35.1293C86.1543 34.1321 86.346 33.2521 86.7295 32.4893C87.1131 31.7223 87.6543 31.1257 88.3531 30.6996C89.0562 30.2692 89.8872 30.054 90.846 30.054C91.6429 30.054 92.3481 30.201 92.9618 30.495C93.5797 30.7848 94.0719 31.196 94.4383 31.7287C94.8048 32.2571 95.0136 32.875 95.0648 33.5824H92.8531C92.7636 33.1094 92.5506 32.7152 92.2139 32.3999C91.8815 32.0803 91.4362 31.9205 90.878 31.9205C90.405 31.9205 89.9895 32.0483 89.6315 32.304C89.2736 32.5554 88.9945 32.9176 88.7942 33.3906C88.5981 33.8636 88.5001 34.4304 88.5001 35.0909C88.5001 35.7599 88.5981 36.3352 88.7942 36.8168C88.9902 37.294 89.265 37.6626 89.6187 37.9226C89.9767 38.1783 90.3964 38.3061 90.878 38.3061C91.2189 38.3061 91.5236 38.2422 91.792 38.1143C92.0648 37.9822 92.2927 37.7926 92.476 37.5455C92.6592 37.2983 92.7849 36.9979 92.8531 36.6442H95.0648C95.0094 37.3388 94.8048 37.9545 94.4511 38.4915C94.0974 39.0241 93.6159 39.4418 93.0065 39.7443C92.3972 40.0426 91.6812 40.1918 90.8588 40.1918ZM101.867 30.1818V31.9716H96.2233V30.1818H101.867ZM97.6168 27.8295H99.9307V37.0469C99.9307 37.358 99.9776 37.5966 100.071 37.7628C100.169 37.9247 100.297 38.0355 100.455 38.0952C100.613 38.1548 100.787 38.1847 100.979 38.1847C101.124 38.1847 101.256 38.174 101.375 38.1527C101.499 38.1314 101.593 38.1122 101.657 38.0952L102.046 39.9041C101.923 39.9467 101.746 39.9936 101.516 40.0447C101.29 40.0959 101.013 40.1257 100.685 40.1342C100.105 40.1513 99.5834 40.0639 99.1189 39.8722C98.6544 39.6761 98.2858 39.3736 98.0131 38.9645C97.7446 38.5554 97.6125 38.044 97.6168 37.4304V27.8295ZM103.803 40V30.1818H106.117V40H103.803ZM104.966 28.7884C104.6 28.7884 104.284 28.6669 104.02 28.424C103.756 28.1768 103.624 27.8807 103.624 27.5355C103.624 27.1861 103.756 26.8899 104.02 26.647C104.284 26.3999 104.6 26.2763 104.966 26.2763C105.337 26.2763 105.652 26.3999 105.912 26.647C106.176 26.8899 106.308 27.1861 106.308 27.5355C106.308 27.8807 106.176 28.1768 105.912 28.424C105.652 28.6669 105.337 28.7884 104.966 28.7884ZM112.779 40.1918C111.82 40.1918 110.989 39.9808 110.286 39.5589C109.583 39.1371 109.037 38.5469 108.649 37.7884C108.266 37.0298 108.074 36.1435 108.074 35.1293C108.074 34.1151 108.266 33.2266 108.649 32.4638C109.037 31.701 109.583 31.1087 110.286 30.6868C110.989 30.2649 111.82 30.054 112.779 30.054C113.738 30.054 114.568 30.2649 115.272 30.6868C115.975 31.1087 116.518 31.701 116.902 32.4638C117.289 33.2266 117.483 34.1151 117.483 35.1293C117.483 36.1435 117.289 37.0298 116.902 37.7884C116.518 38.5469 115.975 39.1371 115.272 39.5589C114.568 39.9808 113.738 40.1918 112.779 40.1918ZM112.792 38.3381C113.311 38.3381 113.746 38.1953 114.095 37.9098C114.445 37.62 114.705 37.2322 114.875 36.7464C115.05 36.2607 115.137 35.7195 115.137 35.1229C115.137 34.522 115.05 33.9787 114.875 33.4929C114.705 33.0028 114.445 32.6129 114.095 32.3232C113.746 32.0334 113.311 31.8885 112.792 31.8885C112.259 31.8885 111.816 32.0334 111.462 32.3232C111.113 32.6129 110.85 33.0028 110.676 33.4929C110.505 33.9787 110.42 34.522 110.42 35.1229C110.42 35.7195 110.505 36.2607 110.676 36.7464C110.85 37.2322 111.113 37.62 111.462 37.9098C111.816 38.1953 112.259 38.3381 112.792 38.3381ZM121.761 34.2472V40H119.447V30.1818H121.659V31.8501H121.774C122 31.3004 122.36 30.8636 122.854 30.5398C123.353 30.2159 123.969 30.054 124.701 30.054C125.379 30.054 125.969 30.1989 126.472 30.4886C126.979 30.7784 127.371 31.1982 127.648 31.7479C127.929 32.2976 128.068 32.9645 128.064 33.7486V40H125.75V34.1065C125.75 33.4503 125.579 32.9368 125.238 32.5661C124.902 32.1953 124.435 32.0099 123.839 32.0099C123.434 32.0099 123.074 32.0994 122.758 32.2784C122.447 32.4531 122.202 32.7067 122.023 33.0391C121.848 33.3714 121.761 33.7741 121.761 34.2472ZM136.735 26.9091L140.141 37.2131H140.276L143.676 26.9091H146.284L141.669 40H138.742L134.133 26.9091H136.735ZM149.712 40.1982C149.09 40.1982 148.529 40.0874 148.031 39.8658C147.537 39.6399 147.144 39.3075 146.855 38.8686C146.569 38.4297 146.426 37.8885 146.426 37.245C146.426 36.6911 146.529 36.233 146.733 35.8707C146.938 35.5085 147.217 35.2188 147.571 35.0014C147.924 34.7841 148.323 34.62 148.766 34.5092C149.213 34.3942 149.676 34.3111 150.153 34.2599C150.728 34.2003 151.195 34.147 151.553 34.1001C151.911 34.049 152.171 33.9723 152.333 33.87C152.499 33.7635 152.582 33.5994 152.582 33.3778V33.3395C152.582 32.858 152.439 32.4851 152.154 32.2209C151.868 31.9567 151.457 31.8246 150.92 31.8246C150.353 31.8246 149.904 31.9482 149.571 32.1953C149.243 32.4425 149.022 32.7344 148.907 33.071L146.746 32.7642C146.917 32.1676 147.198 31.669 147.59 31.2685C147.982 30.8636 148.461 30.5611 149.028 30.3608C149.595 30.1562 150.221 30.054 150.907 30.054C151.38 30.054 151.851 30.1094 152.32 30.2202C152.789 30.331 153.217 30.5142 153.605 30.7699C153.992 31.0213 154.304 31.3643 154.538 31.799C154.777 32.2337 154.896 32.777 154.896 33.429V40H152.671V38.6513H152.595C152.454 38.924 152.256 39.1797 152 39.4183C151.749 39.6527 151.431 39.8423 151.048 39.9872C150.669 40.1278 150.223 40.1982 149.712 40.1982ZM150.313 38.4979C150.777 38.4979 151.18 38.4062 151.521 38.223C151.862 38.0355 152.124 37.7884 152.307 37.4815C152.495 37.1747 152.588 36.8402 152.588 36.478V35.321C152.516 35.3807 152.392 35.4361 152.218 35.4872C152.047 35.5384 151.855 35.5831 151.642 35.6214C151.429 35.6598 151.218 35.6939 151.01 35.7237C150.801 35.7536 150.62 35.7791 150.466 35.8004C150.121 35.8473 149.812 35.924 149.539 36.0305C149.267 36.1371 149.051 36.2862 148.894 36.478C148.736 36.6655 148.657 36.9084 148.657 37.2067C148.657 37.6328 148.813 37.9545 149.124 38.1719C149.435 38.3892 149.831 38.4979 150.313 38.4979ZM159.537 26.9091V40H157.223V26.9091H159.537ZM168.174 35.8707V30.1818H170.488V40H168.244V38.255H168.142C167.92 38.8047 167.556 39.2543 167.049 39.6037C166.546 39.9531 165.926 40.1278 165.189 40.1278C164.545 40.1278 163.976 39.9851 163.482 39.6996C162.992 39.4098 162.608 38.9901 162.331 38.4403C162.054 37.8864 161.916 37.2173 161.916 36.4332V30.1818H164.23V36.0753C164.23 36.6974 164.4 37.1918 164.741 37.5582C165.082 37.9247 165.53 38.108 166.084 38.108C166.424 38.108 166.755 38.0249 167.074 37.8587C167.394 37.6925 167.656 37.4453 167.861 37.1172C168.069 36.7848 168.174 36.3693 168.174 35.8707ZM177.214 40.1918C176.229 40.1918 175.379 39.9872 174.663 39.5781C173.952 39.1648 173.404 38.581 173.021 37.8267C172.637 37.0682 172.445 36.1754 172.445 35.1484C172.445 34.1385 172.637 33.2521 173.021 32.4893C173.408 31.7223 173.95 31.1257 174.644 30.6996C175.339 30.2692 176.155 30.054 177.092 30.054C177.697 30.054 178.268 30.152 178.805 30.348C179.347 30.5398 179.824 30.8381 180.237 31.2429C180.655 31.6477 180.983 32.1634 181.222 32.7898C181.46 33.4119 181.58 34.1534 181.58 35.0142V35.7237H173.532V34.1641H179.361C179.357 33.7209 179.261 33.3267 179.074 32.9815C178.886 32.6321 178.624 32.3572 178.288 32.157C177.955 31.9567 177.567 31.8565 177.124 31.8565C176.651 31.8565 176.236 31.9716 175.878 32.2017C175.52 32.4276 175.241 32.7259 175.04 33.0966C174.844 33.4631 174.744 33.8658 174.74 34.3047V35.6662C174.74 36.2372 174.844 36.7273 175.053 37.1364C175.262 37.5412 175.554 37.8523 175.929 38.0696C176.304 38.2827 176.743 38.3892 177.246 38.3892C177.582 38.3892 177.887 38.3423 178.16 38.2486C178.432 38.1506 178.669 38.0078 178.869 37.8203C179.07 37.6328 179.221 37.4006 179.323 37.1236L181.484 37.3665C181.347 37.9375 181.087 38.4361 180.704 38.8622C180.325 39.2841 179.839 39.6122 179.246 39.8466C178.654 40.0767 177.977 40.1918 177.214 40.1918Z" fill="#303030"/>
<path opacity="0.56" d="M30.5399 52.5455V62H29.1088V53.9766H29.0534L26.7913 55.4538V54.0874L29.1503 52.5455H30.5399ZM33.0974 62V60.9659L36.2967 57.6513C36.6383 57.2912 36.9199 56.9757 37.1415 56.7049C37.3661 56.431 37.5339 56.1709 37.6447 55.9247C37.7555 55.6785 37.8109 55.4169 37.8109 55.1399C37.8109 54.826 37.737 54.5552 37.5893 54.3274C37.4415 54.0966 37.24 53.9196 36.9845 53.7965C36.7291 53.6703 36.4413 53.6072 36.1212 53.6072C35.7827 53.6072 35.4872 53.6765 35.2349 53.815C34.9825 53.9535 34.7886 54.1489 34.6532 54.4013C34.5178 54.6536 34.4501 54.9491 34.4501 55.2876H33.0882C33.0882 54.7121 33.2205 54.2089 33.4852 53.7781C33.7499 53.3472 34.1131 53.0133 34.5747 52.7763C35.0364 52.5362 35.5611 52.4162 36.1489 52.4162C36.7429 52.4162 37.2661 52.5347 37.7185 52.7717C38.174 53.0056 38.5295 53.3256 38.7849 53.7319C39.0404 54.1351 39.1681 54.5906 39.1681 55.0984C39.1681 55.4492 39.1019 55.7924 38.9696 56.1278C38.8403 56.4633 38.6141 56.8372 38.291 57.2496C37.9678 57.659 37.5185 58.156 36.943 58.7408L35.0641 60.7074V60.7766H39.3204V62H33.0974ZM44.3616 62.157C43.6322 62.1539 43.009 61.9615 42.492 61.5799C41.9749 61.1983 41.5794 60.6428 41.3055 59.9134C41.0316 59.1839 40.8947 58.3053 40.8947 57.2773C40.8947 56.2525 41.0316 55.3769 41.3055 54.6506C41.5825 53.9242 41.9795 53.3703 42.4966 52.9886C43.0167 52.607 43.6384 52.4162 44.3616 52.4162C45.0849 52.4162 45.705 52.6085 46.2221 52.9933C46.7391 53.3749 47.1346 53.9289 47.4085 54.6552C47.6855 55.3784 47.824 56.2525 47.824 57.2773C47.824 58.3084 47.687 59.1886 47.4131 59.918C47.1392 60.6443 46.7437 61.1998 46.2267 61.5845C45.7097 61.9661 45.088 62.157 44.3616 62.157ZM44.3616 60.9244C45.0018 60.9244 45.5019 60.612 45.862 59.9872C46.2252 59.3625 46.4067 58.4592 46.4067 57.2773C46.4067 56.4925 46.3236 55.8293 46.1574 55.2876C45.9943 54.7429 45.7589 54.3305 45.4511 54.0504C45.1464 53.7673 44.7833 53.6257 44.3616 53.6257C43.7246 53.6257 43.2244 53.9396 42.8613 54.5675C42.4981 55.1953 42.315 56.0986 42.3119 57.2773C42.3119 58.0652 42.3935 58.7315 42.5566 59.2763C42.7228 59.8179 42.9582 60.2288 43.2629 60.5089C43.5676 60.7859 43.9338 60.9244 44.3616 60.9244ZM52.5651 53.7734V52.5455H59.8822V53.7734H56.9323V62H55.5104V53.7734H52.5651ZM60.652 62V54.9091H61.9862V56.0355H62.0601C62.1893 55.6539 62.4171 55.3538 62.7433 55.1353C63.0726 54.9137 63.445 54.8029 63.8605 54.8029C63.9467 54.8029 64.0482 54.806 64.1652 54.8121C64.2852 54.8183 64.3791 54.826 64.4468 54.8352V56.1555C64.3914 56.1402 64.2929 56.1232 64.1513 56.1048C64.0098 56.0832 63.8682 56.0724 63.7266 56.0724C63.4004 56.0724 63.1095 56.1417 62.8541 56.2802C62.6017 56.4156 62.4017 56.6049 62.254 56.848C62.1062 57.0881 62.0324 57.362 62.0324 57.6697V62H60.652ZM67.6414 62.157C67.192 62.157 66.7858 62.0739 66.4226 61.9077C66.0595 61.7384 65.7717 61.4937 65.5593 61.1737C65.3501 60.8536 65.2454 60.4612 65.2454 59.9964C65.2454 59.5964 65.3224 59.267 65.4763 59.0085C65.6301 58.75 65.8379 58.5453 66.0995 58.3945C66.3611 58.2437 66.6535 58.1299 66.9766 58.0529C67.2998 57.976 67.6291 57.9175 67.9645 57.8775C68.3892 57.8282 68.7339 57.7882 68.9986 57.7575C69.2633 57.7236 69.4557 57.6697 69.5757 57.5959C69.6957 57.522 69.7557 57.402 69.7557 57.2358V57.2035C69.7557 56.8003 69.6419 56.4879 69.4141 56.2663C69.1894 56.0447 68.854 55.9339 68.4077 55.9339C67.943 55.9339 67.5767 56.037 67.309 56.2433C67.0443 56.4464 66.8612 56.6726 66.7596 56.9219L65.4624 56.6264C65.6163 56.1955 65.841 55.8478 66.1364 55.5831C66.4349 55.3153 66.7781 55.1214 67.1659 55.0014C67.5537 54.8783 67.9615 54.8168 68.3892 54.8168C68.6724 54.8168 68.9725 54.8506 69.2895 54.9183C69.6095 54.983 69.9081 55.103 70.1851 55.2784C70.4651 55.4538 70.6944 55.7047 70.8729 56.0309C71.0514 56.354 71.1407 56.7741 71.1407 57.2912V62H69.7927V61.0305H69.7373C69.648 61.209 69.5141 61.3845 69.3356 61.5568C69.1571 61.7292 68.9278 61.8723 68.6478 61.9862C68.3677 62.1 68.0322 62.157 67.6414 62.157ZM67.9415 61.049C68.3231 61.049 68.6493 60.9736 68.9201 60.8228C69.1941 60.672 69.4018 60.475 69.5434 60.2319C69.688 59.9857 69.7603 59.7225 69.7603 59.4425V58.5284C69.7111 58.5777 69.6157 58.6238 69.4741 58.6669C69.3356 58.7069 69.1771 58.7423 68.9986 58.7731C68.8201 58.8008 68.6462 58.8269 68.477 58.8516C68.3077 58.8731 68.1661 58.8916 68.0522 58.907C67.7845 58.9408 67.5398 58.9978 67.3182 59.0778C67.0997 59.1578 66.9243 59.2732 66.7919 59.424C66.6627 59.5717 66.5981 59.7687 66.5981 60.0149C66.5981 60.3565 66.7242 60.6151 66.9766 60.7905C67.229 60.9628 67.5506 61.049 67.9415 61.049ZM74.3595 57.7898V62H72.9792V54.9091H74.3041V56.0632H74.3918C74.5549 55.6877 74.8104 55.3861 75.1582 55.1584C75.509 54.9306 75.9507 54.8168 76.4831 54.8168C76.9663 54.8168 77.3895 54.9183 77.7526 55.1214C78.1158 55.3215 78.3974 55.62 78.5974 56.017C78.7975 56.4141 78.8975 56.9049 78.8975 57.4897V62H77.5172V57.6559C77.5172 57.1419 77.3833 56.7403 77.1155 56.451C76.8478 56.1586 76.48 56.0124 76.0122 56.0124C75.6921 56.0124 75.4074 56.0817 75.1582 56.2202C74.9119 56.3587 74.7165 56.5618 74.5719 56.8295C74.4303 57.0942 74.3595 57.4143 74.3595 57.7898ZM86.0623 56.6403L84.8112 56.8619C84.7589 56.7018 84.6758 56.5495 84.5619 56.4048C84.4511 56.2602 84.3003 56.1417 84.1095 56.0494C83.9187 55.957 83.6802 55.9109 83.394 55.9109C83.0031 55.9109 82.6769 55.9986 82.4153 56.174C82.1537 56.3464 82.0229 56.5695 82.0229 56.8434C82.0229 57.0804 82.1106 57.2712 82.286 57.4158C82.4614 57.5605 82.7446 57.679 83.1354 57.7713L84.2619 58.0298C84.9143 58.1806 85.4006 58.413 85.7207 58.7269C86.0407 59.0408 86.2008 59.4486 86.2008 59.9503C86.2008 60.375 86.0777 60.7536 85.8315 61.0859C85.5883 61.4152 85.2482 61.6738 84.8112 61.8615C84.3773 62.0492 83.8741 62.1431 83.3016 62.1431C82.5076 62.1431 81.8597 61.9738 81.3581 61.6353C80.8564 61.2937 80.5487 60.8089 80.4348 60.1811L81.769 59.978C81.8521 60.3258 82.0229 60.5889 82.2814 60.7674C82.5399 60.9428 82.8769 61.0305 83.2924 61.0305C83.7448 61.0305 84.1064 60.9367 84.3773 60.7489C84.6481 60.5581 84.7835 60.3258 84.7835 60.0518C84.7835 59.8303 84.7004 59.6441 84.5342 59.4933C84.3711 59.3424 84.1203 59.2286 83.7817 59.1516L82.5815 58.8885C81.9198 58.7377 81.4304 58.4976 81.1134 58.1683C80.7995 57.839 80.6425 57.422 80.6425 56.9173C80.6425 56.4987 80.7595 56.1325 80.9934 55.8185C81.2273 55.5046 81.5504 55.2599 81.9628 55.0845C82.3753 54.906 82.8477 54.8168 83.3801 54.8168C84.1464 54.8168 84.7497 54.983 85.1898 55.3153C85.6299 55.6446 85.9207 56.0863 86.0623 56.6403ZM89.782 62.157C89.3327 62.157 88.9264 62.0739 88.5633 61.9077C88.2001 61.7384 87.9123 61.4937 87.7 61.1737C87.4907 60.8536 87.3861 60.4612 87.3861 59.9964C87.3861 59.5964 87.463 59.267 87.6169 59.0085C87.7708 58.75 87.9785 58.5453 88.2401 58.3945C88.5017 58.2437 88.7941 58.1299 89.1172 58.0529C89.4404 57.976 89.7697 57.9175 90.1052 57.8775C90.5299 57.8282 90.8746 57.7882 91.1392 57.7575C91.4039 57.7236 91.5963 57.6697 91.7163 57.5959C91.8363 57.522 91.8964 57.402 91.8964 57.2358V57.2035C91.8964 56.8003 91.7825 56.4879 91.5547 56.2663C91.3301 56.0447 90.9946 55.9339 90.5483 55.9339C90.0836 55.9339 89.7174 56.037 89.4496 56.2433C89.1849 56.4464 89.0018 56.6726 88.9003 56.9219L87.603 56.6264C87.7569 56.1955 87.9816 55.8478 88.277 55.5831C88.5756 55.3153 88.9187 55.1214 89.3065 55.0014C89.6943 54.8783 90.1021 54.8168 90.5299 54.8168C90.813 54.8168 91.1131 54.8506 91.4301 54.9183C91.7502 54.983 92.0487 55.103 92.3257 55.2784C92.6057 55.4538 92.835 55.7047 93.0135 56.0309C93.192 56.354 93.2813 56.7741 93.2813 57.2912V62H91.9333V61.0305H91.8779C91.7886 61.209 91.6548 61.3845 91.4763 61.5568C91.2977 61.7292 91.0685 61.8723 90.7884 61.9862C90.5083 62.1 90.1729 62.157 89.782 62.157ZM90.0821 61.049C90.4637 61.049 90.7899 60.9736 91.0608 60.8228C91.3347 60.672 91.5424 60.475 91.684 60.2319C91.8286 59.9857 91.901 59.7225 91.901 59.4425V58.5284C91.8517 58.5777 91.7563 58.6238 91.6147 58.6669C91.4763 58.7069 91.3178 58.7423 91.1392 58.7731C90.9607 58.8008 90.7869 58.8269 90.6176 58.8516C90.4483 58.8731 90.3067 58.8916 90.1929 58.907C89.9251 58.9408 89.6804 58.9978 89.4589 59.0778C89.2403 59.1578 89.0649 59.2732 88.9326 59.424C88.8033 59.5717 88.7387 59.7687 88.7387 60.0149C88.7387 60.3565 88.8649 60.6151 89.1172 60.7905C89.3696 60.9628 89.6912 61.049 90.0821 61.049ZM98.1067 62.1431C97.4204 62.1431 96.8294 61.9877 96.3339 61.6768C95.8415 61.3629 95.463 60.9305 95.1983 60.3796C94.9336 59.8287 94.8013 59.1978 94.8013 58.4869C94.8013 57.7667 94.9367 57.1312 95.2075 56.5803C95.4784 56.0263 95.86 55.5939 96.3524 55.283C96.8448 54.9722 97.425 54.8168 98.0928 54.8168C98.6314 54.8168 99.1115 54.9168 99.5332 55.1168C99.9548 55.3138 100.295 55.5908 100.553 55.9478C100.815 56.3048 100.97 56.7218 101.02 57.1989H99.6763C99.6024 56.8665 99.4331 56.5803 99.1685 56.3402C98.9069 56.1001 98.556 55.9801 98.1159 55.9801C97.7312 55.9801 97.3942 56.0817 97.1049 56.2848C96.8187 56.4848 96.5955 56.7711 96.4355 57.1435C96.2755 57.5128 96.1954 57.9498 96.1954 58.4545C96.1954 58.9716 96.2739 59.4179 96.4309 59.7933C96.5878 60.1688 96.8094 60.4596 97.0957 60.6658C97.385 60.872 97.725 60.9751 98.1159 60.9751C98.3775 60.9751 98.6145 60.9274 98.8268 60.832C99.0423 60.7335 99.2223 60.5935 99.367 60.4119C99.5147 60.2304 99.6178 60.0118 99.6763 59.7564H101.02C100.97 60.215 100.821 60.6243 100.572 60.9844C100.323 61.3445 99.9887 61.6276 99.5701 61.8338C99.1546 62.04 98.6668 62.1431 98.1067 62.1431ZM105.806 54.9091V56.017H101.933V54.9091H105.806ZM102.971 53.2102H104.352V59.918C104.352 60.1857 104.392 60.3873 104.472 60.5227C104.552 60.6551 104.655 60.7459 104.781 60.7951C104.91 60.8413 105.05 60.8643 105.201 60.8643C105.312 60.8643 105.409 60.8567 105.492 60.8413C105.575 60.8259 105.64 60.8136 105.686 60.8043L105.935 61.9446C105.855 61.9754 105.741 62.0062 105.593 62.0369C105.446 62.0708 105.261 62.0893 105.039 62.0923C104.676 62.0985 104.338 62.0339 104.024 61.8984C103.71 61.763 103.456 61.5537 103.262 61.2706C103.068 60.9875 102.971 60.632 102.971 60.2042V53.2102ZM107.333 62V54.9091H108.713V62H107.333ZM108.03 53.815C107.79 53.815 107.584 53.735 107.411 53.5749C107.242 53.4118 107.157 53.2179 107.157 52.9933C107.157 52.7655 107.242 52.5716 107.411 52.4116C107.584 52.2485 107.79 52.1669 108.03 52.1669C108.27 52.1669 108.475 52.2485 108.644 52.4116C108.816 52.5716 108.902 52.7655 108.902 52.9933C108.902 53.2179 108.816 53.4118 108.644 53.5749C108.475 53.735 108.27 53.815 108.03 53.815ZM113.557 62.1431C112.892 62.1431 112.312 61.9908 111.816 61.6861C111.321 61.3814 110.936 60.9551 110.662 60.4073C110.388 59.8595 110.251 59.2193 110.251 58.4869C110.251 57.7513 110.388 57.1081 110.662 56.5572C110.936 56.0063 111.321 55.5785 111.816 55.2738C112.312 54.9691 112.892 54.8168 113.557 54.8168C114.222 54.8168 114.802 54.9691 115.297 55.2738C115.793 55.5785 116.177 56.0063 116.451 56.5572C116.725 57.1081 116.862 57.7513 116.862 58.4869C116.862 59.2193 116.725 59.8595 116.451 60.4073C116.177 60.9551 115.793 61.3814 115.297 61.6861C114.802 61.9908 114.222 62.1431 113.557 62.1431ZM113.561 60.9844C113.992 60.9844 114.349 60.8705 114.633 60.6428C114.916 60.415 115.125 60.1119 115.26 59.7333C115.399 59.3548 115.468 58.9377 115.468 58.4822C115.468 58.0298 115.399 57.6143 115.26 57.2358C115.125 56.8542 114.916 56.5479 114.633 56.3171C114.349 56.0863 113.992 55.9709 113.561 55.9709C113.128 55.9709 112.767 56.0863 112.481 56.3171C112.198 56.5479 111.987 56.8542 111.849 57.2358C111.713 57.6143 111.646 58.0298 111.646 58.4822C111.646 58.9377 111.713 59.3548 111.849 59.7333C111.987 60.1119 112.198 60.415 112.481 60.6428C112.767 60.8705 113.128 60.9844 113.561 60.9844ZM119.783 57.7898V62H118.403V54.9091H119.728V56.0632H119.816C119.979 55.6877 120.234 55.3861 120.582 55.1584C120.933 54.9306 121.374 54.8168 121.907 54.8168C122.39 54.8168 122.813 54.9183 123.176 55.1214C123.54 55.3215 123.821 55.62 124.021 56.017C124.221 56.4141 124.321 56.9049 124.321 57.4897V62H122.941V57.6559C122.941 57.1419 122.807 56.7403 122.539 56.451C122.272 56.1586 121.904 56.0124 121.436 56.0124C121.116 56.0124 120.831 56.0817 120.582 56.2202C120.336 56.3587 120.14 56.5618 119.996 56.8295C119.854 57.0942 119.783 57.4143 119.783 57.7898ZM131.486 56.6403L130.235 56.8619C130.183 56.7018 130.1 56.5495 129.986 56.4048C129.875 56.2602 129.724 56.1417 129.533 56.0494C129.343 55.957 129.104 55.9109 128.818 55.9109C128.427 55.9109 128.101 55.9986 127.839 56.174C127.577 56.3464 127.447 56.5695 127.447 56.8434C127.447 57.0804 127.534 57.2712 127.71 57.4158C127.885 57.5605 128.168 57.679 128.559 57.7713L129.686 58.0298C130.338 58.1806 130.824 58.413 131.144 58.7269C131.465 59.0408 131.625 59.4486 131.625 59.9503C131.625 60.375 131.501 60.7536 131.255 61.0859C131.012 61.4152 130.672 61.6738 130.235 61.8615C129.801 62.0492 129.298 62.1431 128.725 62.1431C127.931 62.1431 127.284 61.9738 126.782 61.6353C126.28 61.2937 125.972 60.8089 125.859 60.1811L127.193 59.978C127.276 60.3258 127.447 60.5889 127.705 60.7674C127.964 60.9428 128.301 61.0305 128.716 61.0305C129.169 61.0305 129.53 60.9367 129.801 60.7489C130.072 60.5581 130.207 60.3258 130.207 60.0518C130.207 59.8303 130.124 59.6441 129.958 59.4933C129.795 59.3424 129.544 59.2286 129.206 59.1516L128.005 58.8885C127.344 58.7377 126.854 58.4976 126.537 58.1683C126.223 57.839 126.066 57.422 126.066 56.9173C126.066 56.4987 126.183 56.1325 126.417 55.8185C126.651 55.5046 126.974 55.2599 127.387 55.0845C127.799 54.906 128.271 54.8168 128.804 54.8168C129.57 54.8168 130.173 54.983 130.614 55.3153C131.054 55.6446 131.345 56.0863 131.486 56.6403ZM139.893 54.9091V56.017H136.019V54.9091H139.893ZM137.058 53.2102H138.439V59.918C138.439 60.1857 138.479 60.3873 138.559 60.5227C138.639 60.6551 138.742 60.7459 138.868 60.7951C138.997 60.8413 139.137 60.8643 139.288 60.8643C139.399 60.8643 139.496 60.8567 139.579 60.8413C139.662 60.8259 139.727 60.8136 139.773 60.8043L140.022 61.9446C139.942 61.9754 139.828 62.0062 139.68 62.0369C139.533 62.0708 139.348 62.0893 139.126 62.0923C138.763 62.0985 138.425 62.0339 138.111 61.8984C137.797 61.763 137.543 61.5537 137.349 61.2706C137.155 60.9875 137.058 60.632 137.058 60.2042V53.2102ZM144.33 62.1431C143.666 62.1431 143.085 61.9908 142.59 61.6861C142.094 61.3814 141.71 60.9551 141.436 60.4073C141.162 59.8595 141.025 59.2193 141.025 58.4869C141.025 57.7513 141.162 57.1081 141.436 56.5572C141.71 56.0063 142.094 55.5785 142.59 55.2738C143.085 54.9691 143.666 54.8168 144.33 54.8168C144.995 54.8168 145.575 54.9691 146.071 55.2738C146.566 55.5785 146.951 56.0063 147.225 56.5572C147.499 57.1081 147.636 57.7513 147.636 58.4869C147.636 59.2193 147.499 59.8595 147.225 60.4073C146.951 60.9551 146.566 61.3814 146.071 61.6861C145.575 61.9908 144.995 62.1431 144.33 62.1431ZM144.335 60.9844C144.766 60.9844 145.123 60.8705 145.406 60.6428C145.689 60.415 145.898 60.1119 146.034 59.7333C146.172 59.3548 146.242 58.9377 146.242 58.4822C146.242 58.0298 146.172 57.6143 146.034 57.2358C145.898 56.8542 145.689 56.5479 145.406 56.3171C145.123 56.0863 144.766 55.9709 144.335 55.9709C143.901 55.9709 143.541 56.0863 143.255 56.3171C142.972 56.5479 142.761 56.8542 142.622 57.2358C142.487 57.6143 142.419 58.0298 142.419 58.4822C142.419 58.9377 142.487 59.3548 142.622 59.7333C142.761 60.1119 142.972 60.415 143.255 60.6428C143.541 60.8705 143.901 60.9844 144.335 60.9844ZM151.831 62.1385C151.258 62.1385 150.748 61.9923 150.298 61.6999C149.852 61.4045 149.501 60.9844 149.246 60.4396C148.993 59.8918 148.867 59.2347 148.867 58.4684C148.867 57.7021 148.995 57.0465 149.25 56.5018C149.509 55.957 149.863 55.54 150.312 55.2507C150.761 54.9614 151.271 54.8168 151.84 54.8168C152.28 54.8168 152.634 54.8906 152.902 55.0384C153.173 55.183 153.382 55.3523 153.53 55.5462C153.681 55.7401 153.798 55.9109 153.881 56.0586H153.964V52.5455H155.344V62H153.996V60.8967H153.881C153.798 61.0475 153.678 61.2198 153.521 61.4137C153.367 61.6076 153.154 61.7769 152.883 61.9215C152.613 62.0662 152.262 62.1385 151.831 62.1385ZM152.136 60.9613C152.533 60.9613 152.868 60.8567 153.142 60.6474C153.419 60.435 153.628 60.1411 153.77 59.7656C153.914 59.3902 153.987 58.9531 153.987 58.4545C153.987 57.9621 153.916 57.5312 153.774 57.1619C153.633 56.7926 153.425 56.5049 153.151 56.2987C152.877 56.0924 152.539 55.9893 152.136 55.9893C151.72 55.9893 151.374 56.0971 151.097 56.3125C150.82 56.5279 150.611 56.8219 150.469 57.1942C150.331 57.5666 150.261 57.9867 150.261 58.4545C150.261 58.9285 150.332 59.3548 150.474 59.7333C150.615 60.1119 150.825 60.4119 151.102 60.6335C151.382 60.852 151.726 60.9613 152.136 60.9613ZM159.378 62.157C158.928 62.157 158.522 62.0739 158.159 61.9077C157.796 61.7384 157.508 61.4937 157.296 61.1737C157.086 60.8536 156.982 60.4612 156.982 59.9964C156.982 59.5964 157.059 59.267 157.213 59.0085C157.366 58.75 157.574 58.5453 157.836 58.3945C158.097 58.2437 158.39 58.1299 158.713 58.0529C159.036 57.976 159.365 57.9175 159.701 57.8775C160.126 57.8282 160.47 57.7882 160.735 57.7575C161 57.7236 161.192 57.6697 161.312 57.5959C161.432 57.522 161.492 57.402 161.492 57.2358V57.2035C161.492 56.8003 161.378 56.4879 161.15 56.2663C160.926 56.0447 160.59 55.9339 160.144 55.9339C159.679 55.9339 159.313 56.037 159.045 56.2433C158.781 56.4464 158.598 56.6726 158.496 56.9219L157.199 56.6264C157.353 56.1955 157.577 55.8478 157.873 55.5831C158.171 55.3153 158.514 55.1214 158.902 55.0014C159.29 54.8783 159.698 54.8168 160.126 54.8168C160.409 54.8168 160.709 54.8506 161.026 54.9183C161.346 54.983 161.644 55.103 161.921 55.2784C162.201 55.4538 162.431 55.7047 162.609 56.0309C162.788 56.354 162.877 56.7741 162.877 57.2912V62H161.529V61.0305H161.474C161.384 61.209 161.25 61.3845 161.072 61.5568C160.893 61.7292 160.664 61.8723 160.384 61.9862C160.104 62.1 159.769 62.157 159.378 62.157ZM159.678 61.049C160.059 61.049 160.386 60.9736 160.656 60.8228C160.93 60.672 161.138 60.475 161.28 60.2319C161.424 59.9857 161.497 59.7225 161.497 59.4425V58.5284C161.447 58.5777 161.352 58.6238 161.21 58.6669C161.072 58.7069 160.913 58.7423 160.735 58.7731C160.556 58.8008 160.383 58.8269 160.213 58.8516C160.044 58.8731 159.902 58.8916 159.789 58.907C159.521 58.9408 159.276 58.9978 159.055 59.0778C158.836 59.1578 158.661 59.2732 158.528 59.424C158.399 59.5717 158.334 59.7687 158.334 60.0149C158.334 60.3565 158.461 60.6151 158.713 60.7905C158.965 60.9628 159.287 61.049 159.678 61.049ZM165.334 64.6591C165.128 64.6591 164.94 64.6422 164.771 64.6083C164.602 64.5775 164.475 64.5437 164.392 64.5067L164.725 63.3757C164.977 63.4434 165.202 63.4727 165.399 63.4634C165.596 63.4542 165.77 63.3803 165.92 63.2418C166.074 63.1033 166.21 62.8771 166.327 62.5632L166.497 62.0923L163.903 54.9091H165.38L167.176 60.4119H167.25L169.046 54.9091H170.528L167.605 62.9464C167.47 63.3157 167.298 63.6281 167.088 63.8835C166.879 64.142 166.63 64.3359 166.341 64.4652C166.051 64.5945 165.716 64.6591 165.334 64.6591Z" fill="#303030"/>
<path d="M513.143 27.5455V28.3977H510.164V27.5455H513.143ZM510.963 26.2386H512.025V31.3984C512.025 31.6044 512.056 31.7595 512.117 31.8636C512.179 31.9654 512.258 32.0353 512.355 32.0732C512.455 32.1087 512.562 32.1264 512.678 32.1264C512.764 32.1264 512.838 32.1205 512.902 32.1087C512.966 32.0968 513.016 32.0874 513.051 32.0803L513.243 32.9574C513.181 32.9811 513.094 33.0047 512.98 33.0284C512.866 33.0545 512.724 33.0687 512.554 33.071C512.275 33.0758 512.014 33.026 511.773 32.9219C511.531 32.8177 511.336 32.6567 511.187 32.4389C511.038 32.2211 510.963 31.9477 510.963 31.6186V26.2386Z" fill="black"/>
<path d="M106.645 107.161L73.1252 134.134V225L537.932 210.5L537.932 153.352L519.31 125.031H493.984L463.444 93H429.924L405.343 125.031H369.589L353.946 116.264H317.447L297.335 159.084L255.779 107.161L222.102 134.134H183.368L158.042 107.161H106.645Z" fill="url(#paint0_linear_1091_172)"/>
<path d="M73.1252 134.082L104.724 108.687C105.967 107.687 107.514 107.143 109.109 107.143H155.015C156.947 107.143 158.792 107.941 160.115 109.348L181.295 131.876C182.618 133.284 184.463 134.082 186.395 134.082H219.725C221.266 134.082 222.765 133.573 223.987 132.635L251.67 111.388C254.728 109.041 259.108 109.608 261.467 112.656L290.333 149.953C293.535 154.09 299.977 153.381 302.203 148.648L315.556 120.256C316.71 117.801 319.178 116.235 321.89 116.235H352.12C353.318 116.235 354.495 116.542 355.539 117.126L367.996 124.098C369.04 124.683 370.217 124.99 371.414 124.99H401.894C404.069 124.99 406.12 123.979 407.445 122.255L427.823 95.7349C429.148 94.0106 431.199 93 433.373 93H460.449C462.362 93 464.191 93.7828 465.512 95.1663L491.916 122.824C493.237 124.207 495.066 124.99 496.979 124.99H515.538C517.893 124.99 520.09 126.174 521.385 128.141L537.932 153.276" stroke="#7285E9" stroke-width="3" stroke-linecap="round"/>
<path d="M118.748 203.199H72.1235V273H533.925V231.823L515.424 189.641H490.261L459.919 157L429.576 163.026L402.193 189.641H366.67L351.129 222.281L291.923 196.169L226.057 210.229L208.296 163.026H156.491L118.748 203.199Z" fill="url(#paint1_linear_1091_172)" fill-opacity="0.2"/>
<path d="M72.1235 203.309H115.281C117.493 203.309 119.606 202.393 121.118 200.78L154.121 165.569C155.633 163.956 157.746 163.04 159.958 163.04H202.754C206.088 163.04 209.072 165.108 210.244 168.229L223.635 203.902C225.027 207.611 228.924 209.742 232.798 208.913L289.387 196.804C291.036 196.452 292.754 196.629 294.296 197.311L344.008 219.288C347.972 221.041 352.61 219.318 354.469 215.404L364.501 194.286C365.826 191.496 368.638 189.718 371.727 189.718H398.941C401.026 189.718 403.029 188.904 404.523 187.448L427.879 164.694C428.986 163.615 430.383 162.88 431.9 162.578L455.532 157.873C458.258 157.331 461.07 158.242 462.96 160.279L487.887 187.158C489.401 188.79 491.527 189.718 493.753 189.718H510.192C513.37 189.718 516.247 191.599 517.521 194.511L533.925 232" stroke="#FFBB30" stroke-width="3"/>
<line x1="74.127" y1="272.5" x2="539.936" y2="272.5" stroke="#D6D6D6" stroke-dasharray="4 4"/>
<line x1="74.127" y1="238.5" x2="531.922" y2="238.5" stroke="#D6D6D6" stroke-dasharray="4 4"/>
<line x1="74.127" y1="205.5" x2="531.922" y2="205.5" stroke="#D6D6D6" stroke-dasharray="4 4"/>
<line x1="74.127" y1="171.5" x2="531.922" y2="171.5" stroke="#D6D6D6" stroke-dasharray="4 4"/>
<line x1="74.127" y1="139.5" x2="531.922" y2="139.5" stroke="#D6D6D6" stroke-dasharray="4 4"/>
<line x1="74.127" y1="105.5" x2="531.922" y2="105.5" stroke="#D6D6D6" stroke-dasharray="4 4"/>
<rect x="484.088" y="21.25" width="70.6235" height="25.5" rx="5.75" fill="#F9F9F9" stroke="#DEDEDE" stroke-width="0.5"/>
<path d="M536.931 35.9904L533.622 32.6875H540.239L536.931 35.9904Z" fill="black"/>
<path opacity="0.56" d="M498.611 30.7273V38H497.073V32.1868H497.031L495.365 33.2308V31.8672L497.166 30.7273H498.611ZM505.275 38H502.697V30.7273H505.296C506.028 30.7273 506.657 30.8729 507.185 31.1641C507.713 31.4529 508.119 31.8684 508.403 32.4105C508.69 32.9527 508.833 33.6013 508.833 34.3565C508.833 35.1141 508.69 35.7652 508.403 36.3097C508.119 36.8542 507.711 37.272 507.178 37.5632C506.648 37.8544 506.013 38 505.275 38ZM504.234 36.6825H505.211C505.665 36.6825 506.048 36.602 506.358 36.4411C506.67 36.2777 506.905 36.0256 507.061 35.6847C507.22 35.3414 507.299 34.8987 507.299 34.3565C507.299 33.8191 507.22 33.38 507.061 33.0391C506.905 32.6982 506.671 32.4472 506.361 32.2862C506.051 32.1252 505.669 32.0447 505.214 32.0447H504.234V36.6825ZM511.499 38.103C511.151 38.103 510.841 38.0426 510.569 37.9219C510.296 37.7988 510.081 37.6177 509.922 37.3786C509.766 37.1371 509.688 36.8364 509.688 36.4766C509.688 36.1735 509.743 35.919 509.855 35.7131C509.966 35.5071 510.118 35.3414 510.309 35.2159C510.501 35.0904 510.719 34.9957 510.963 34.9318C511.209 34.8679 511.467 34.8229 511.737 34.7969C512.054 34.7637 512.31 34.733 512.504 34.7045C512.698 34.6738 512.839 34.6288 512.926 34.5696C513.014 34.5104 513.058 34.4228 513.058 34.3068V34.2855C513.058 34.0606 512.987 33.8866 512.845 33.7635C512.705 33.6404 512.506 33.5788 512.248 33.5788C511.976 33.5788 511.759 33.6392 511.598 33.7599C511.437 33.8783 511.331 34.0275 511.279 34.2074L509.88 34.0938C509.951 33.7623 510.09 33.4759 510.299 33.2344C510.507 32.9905 510.776 32.8035 511.105 32.6733C511.436 32.5407 511.82 32.4744 512.255 32.4744C512.558 32.4744 512.848 32.5099 513.125 32.581C513.405 32.652 513.652 32.7621 513.868 32.9112C514.085 33.0604 514.257 33.2521 514.382 33.4865C514.508 33.7185 514.571 33.9967 514.571 34.321V38H513.136V37.2436H513.093C513.006 37.4141 512.889 37.5644 512.742 37.6946C512.595 37.8224 512.419 37.9231 512.213 37.9964C512.007 38.0675 511.769 38.103 511.499 38.103ZM511.932 37.0589C512.155 37.0589 512.351 37.0152 512.522 36.9276C512.692 36.8376 512.826 36.7169 512.923 36.5653C513.02 36.4138 513.069 36.2422 513.069 36.0504V35.4716C513.021 35.5024 512.956 35.5308 512.873 35.5568C512.793 35.5805 512.702 35.603 512.6 35.6243C512.498 35.6432 512.396 35.661 512.294 35.6776C512.193 35.6918 512.1 35.7048 512.017 35.7166C511.84 35.7427 511.685 35.7841 511.552 35.8409C511.42 35.8977 511.317 35.9747 511.243 36.0717C511.17 36.1664 511.133 36.2848 511.133 36.4268C511.133 36.6328 511.208 36.7902 511.357 36.8991C511.508 37.0057 511.7 37.0589 511.932 37.0589ZM516.483 40.0455C516.291 40.0455 516.111 40.0301 515.943 39.9993C515.777 39.9709 515.64 39.9342 515.531 39.8892L515.872 38.7599C516.05 38.8144 516.21 38.844 516.352 38.8487C516.496 38.8535 516.62 38.8203 516.724 38.7493C516.831 38.6783 516.917 38.5575 516.984 38.3871L517.072 38.1562L515.116 32.5455H516.707L517.836 36.5511H517.893L519.033 32.5455H520.634L518.514 38.5895C518.412 38.883 518.274 39.1387 518.099 39.3565C517.926 39.5767 517.707 39.746 517.442 39.8643C517.177 39.9851 516.857 40.0455 516.483 40.0455Z" fill="black"/>
<defs>
<linearGradient id="paint0_linear_1091_172" x1="314.057" y1="119" x2="310.419" y2="205.675" gradientUnits="userSpaceOnUse">
<stop stop-color="#EEF1FF"/>
<stop offset="1" stop-color="white" stop-opacity="0"/>
</linearGradient>
<linearGradient id="paint1_linear_1091_172" x1="303.765" y1="155.996" x2="303.424" y2="273.001" gradientUnits="userSpaceOnUse">
<stop stop-color="#FFD25F"/>
<stop offset="1" stop-color="white" stop-opacity="0"/>
</linearGradient>
</defs>
</svg>
